<svg width="55" height="55" viewBox="0 0 55 55" fill="none" xmlns="http://www.w3.org/2000/svg">
<circle cx="27.5" cy="27.5" r="25.7372" stroke="#333333" stroke-width="3.52564"/>
<path d="M29.8175 33.6939C31.0768 34.9504 31.0731 36.9841 29.8111 38.2433C28.5554 39.4961 26.5158 39.5007 25.2565 38.2442C24.0008 36.9914 23.9944 34.9458 25.25 33.6926C26.5121 32.4333 28.5614 32.4407 29.817 33.6935L29.8175 33.6939Z" fill="#333333"/>
<path d="M38.5841 29.2357L35.5842 32.2288C33.4051 30.1333 30.5539 28.9798 27.5334 28.978C24.5087 28.9739 21.6626 30.1173 19.4954 32.2018L16.5051 29.2183C22.6328 23.2674 32.4476 23.2751 38.5841 29.2357Z" fill="#333333"/>
<path d="M44.4231 23.4097L41.4287 26.3973C33.7174 18.8667 21.35 18.8512 13.6561 26.363L10.6667 23.3809C20.0127 14.2217 35.0634 14.235 44.4231 23.4097Z" fill="#333333"/>
</svg>
