<svg width="55" height="55" viewBox="0 0 55 55" fill="none" xmlns="http://www.w3.org/2000/svg">
<path d="M38.1203 14.8077H17.5848C15.7459 14.8077 14.2556 16.298 14.2556 18.137V32.4696H41.449V18.137C41.449 16.2985 39.9587 14.8077 38.1198 14.8077H38.1203ZM39.2145 30.8264H16.4906V18.137C16.4906 17.5325 16.9804 17.0427 17.5848 17.0427H38.1203C38.7247 17.0427 39.2145 17.5325 39.2145 18.137V30.8264Z" fill="#333333"/>
<path d="M42.4925 34.2965H13.2123C12.1461 34.2965 11.2821 35.0249 11.2821 35.9239C11.2821 36.8228 12.1461 37.5512 13.2123 37.5512H42.4929C43.5592 37.5512 44.4231 36.8228 44.4231 35.9239C44.4231 35.0249 43.5592 34.2965 42.4929 34.2965H42.4925ZM27.8524 36.7898C27.3743 36.7898 26.987 36.402 26.987 35.9243C26.987 35.4467 27.3747 35.0589 27.8524 35.0589C28.33 35.0589 28.7178 35.4467 28.7178 35.9243C28.7178 36.402 28.33 36.7898 27.8524 36.7898Z" fill="#333333"/>
<path d="M27.5 1.7627C41.7142 1.7627 53.2373 13.2857 53.2373 27.5C53.2373 41.7142 41.7142 53.2373 27.5 53.2373C13.2857 53.2373 1.7627 41.7142 1.7627 27.5C1.7627 13.2857 13.2857 1.7627 27.5 1.7627Z" stroke="#333333" stroke-width="3.52564"/>
</svg>
