<svg width="100" height="99" viewBox="0 0 100 99" fill="none" xmlns="http://www.w3.org/2000/svg">
<g clip-path="url(#clip0_319_159)">
<path d="M54.8751 52.3622C54.6245 52.9592 54.2782 53.4824 53.8286 53.9246C53.3864 54.3668 52.8705 54.7205 52.2736 54.9785C51.6767 55.2364 51.0502 55.3617 50.3796 55.3617H49.0531C48.3824 55.3617 47.756 55.2364 47.159 54.9785C46.5621 54.7205 46.0462 54.3741 45.604 53.9246C45.1619 53.475 44.8155 52.9592 44.5575 52.3622C44.307 51.7653 44.1743 51.1315 44.1743 50.4535V31.6608H46.1641V39.7453C46.6211 39.2 47.1664 38.7799 47.8002 38.4704C48.434 38.1682 49.1267 38.0134 49.8711 38.0134H50.3722C51.0429 38.0134 51.6693 38.1387 52.2662 38.3967C52.8558 38.6546 53.3791 39.001 53.8212 39.4505C54.2634 39.8927 54.6098 40.416 54.8677 41.0129C55.1183 41.6098 55.251 42.2436 55.251 42.9217V50.4535C55.251 51.1241 55.1257 51.7653 54.8677 52.3622M53.2685 42.8111C53.2685 42.4058 53.1948 42.0299 53.04 41.6762C52.8853 41.3224 52.6863 41.0129 52.4284 40.755C52.1704 40.497 51.8609 40.2907 51.5145 40.1359C51.1608 39.9811 50.7923 39.9074 50.387 39.9074H49.0604C48.6625 39.9074 48.2866 39.9811 47.9402 40.1359C47.5865 40.2907 47.2843 40.497 47.0264 40.755C46.7684 41.0129 46.5621 41.3224 46.4147 41.6762C46.2673 42.0299 46.1862 42.4058 46.1862 42.8111V50.5714C46.1862 50.9694 46.2599 51.3526 46.4147 51.7063C46.5621 52.0601 46.7684 52.3622 47.0264 52.6275C47.2843 52.8855 47.5865 53.0918 47.9402 53.2466C48.294 53.4013 48.6625 53.475 49.0604 53.475H50.387C50.7849 53.475 51.1608 53.4013 51.5145 53.2466C51.8683 53.0918 52.1704 52.8855 52.4284 52.6275C52.6863 52.3696 52.8927 52.0601 53.04 51.7063C53.1874 51.3526 53.2685 50.9767 53.2685 50.5714V42.8111Z" fill="#414141"/>
<path d="M80.3817 55.0374L79.2836 53.3424C78.8341 53.9614 78.2666 54.4552 77.5886 54.8163C76.9106 55.1774 76.1662 55.3617 75.3556 55.3617H74.8544C74.1838 55.3617 73.5574 55.2364 72.9604 54.9785C72.3635 54.7205 71.8476 54.3741 71.4054 53.9246C70.9632 53.475 70.6169 52.9592 70.3589 52.3622C70.1084 51.7653 69.9757 51.1315 69.9757 50.4535V42.9217C69.9757 42.251 70.101 41.6098 70.3589 41.0129C70.6095 40.416 70.9632 39.8927 71.4054 39.4505C71.8476 39.0083 72.3635 38.6546 72.9604 38.3967C73.55 38.1387 74.1838 38.0134 74.8544 38.0134H75.3556C76.0999 38.0134 76.7927 38.1682 77.4265 38.4704C78.0603 38.7725 78.6056 39.2 79.0625 39.7453V31.6608H81.0523V55.0374H80.3891H80.3817ZM79.0552 42.8111C79.0552 42.4058 78.9815 42.0299 78.8267 41.6762C78.6793 41.3224 78.473 41.0129 78.215 40.755C77.9571 40.497 77.6549 40.2907 77.3012 40.1359C76.9474 39.9811 76.5716 39.9074 76.1736 39.9074H74.8471C74.4491 39.9074 74.0733 39.9811 73.7269 40.1359C73.3731 40.2907 73.071 40.497 72.813 40.755C72.5551 41.0129 72.3487 41.3224 72.2014 41.6762C72.054 42.0299 71.9729 42.4058 71.9729 42.8111V50.5714C71.9729 50.9694 72.0466 51.3526 72.2014 51.7063C72.3487 52.0601 72.5551 52.3622 72.813 52.6275C73.071 52.8855 73.3731 53.0918 73.7269 53.2466C74.0806 53.4013 74.4491 53.475 74.8471 53.475H76.1736C76.5716 53.475 76.9474 53.4013 77.3012 53.2466C77.6549 53.0918 77.9571 52.8855 78.215 52.6275C78.473 52.3696 78.6793 52.0601 78.8267 51.7063C78.9741 51.3526 79.0552 50.9767 79.0552 50.5714V42.8111Z" fill="#414141"/>
<path d="M85.7173 31.6608H83.5728V55.0374H85.7173V31.6608Z" fill="#414141"/>
<path d="M97.0961 55.0374V42.8111C97.0961 42.4058 97.0224 42.0299 96.8676 41.6762C96.7128 41.3224 96.5139 41.0129 96.2559 40.755C95.998 40.497 95.6884 40.2907 95.3421 40.1359C94.9883 39.9811 94.6125 39.9074 94.2145 39.9074H92.888C92.49 39.9074 92.1141 39.9811 91.7604 40.1359C91.4067 40.2907 91.1045 40.497 90.8466 40.755C90.5886 41.0129 90.3823 41.3224 90.2349 41.6762C90.0875 42.0299 90.0064 42.4058 90.0064 42.8111V55.0374H88.0166V31.6608H90.0064V39.7453C90.4633 39.2 91.0087 38.7799 91.6425 38.4777C92.2763 38.1756 92.969 38.0208 93.7134 38.0208H94.2145C94.8852 38.0208 95.5116 38.1461 96.1085 38.404C96.7055 38.662 97.2213 39.0083 97.6635 39.4579C98.1057 39.9074 98.4521 40.4233 98.71 41.0203C98.9606 41.6172 99.0932 42.251 99.0932 42.929V55.0374H97.1034H97.0961Z" fill="#414141"/>
<path d="M67.772 52.3615C67.5215 52.9584 67.1677 53.4817 66.7255 53.9239C66.2833 54.366 65.7675 54.7198 65.1705 54.9777C64.5736 55.2357 63.9472 55.361 63.2765 55.361H62.7754C62.031 55.361 61.3383 55.2062 60.7045 54.904C60.0707 54.6019 59.5253 54.1744 59.0684 53.6364V61.721H57.0786V38.3443H57.7419L58.8252 40.0394C59.2748 39.4203 59.8496 38.9266 60.535 38.5654C61.2204 38.2043 61.9647 38.0201 62.7754 38.0201H63.2765C63.9472 38.0201 64.5736 38.1454 65.1705 38.4033C65.7601 38.6612 66.2833 39.0076 66.7255 39.4572C67.1677 39.8994 67.5141 40.4226 67.772 41.0195C68.0226 41.6165 68.1553 42.2503 68.1553 42.9283V50.4601C68.1553 51.1308 68.03 51.7719 67.772 52.3689M66.1654 42.8104C66.1654 42.405 66.0917 42.0292 65.937 41.6754C65.7822 41.3217 65.5759 41.0122 65.3179 40.7542C65.06 40.4963 64.7578 40.2899 64.4041 40.1352C64.0503 39.9804 63.6818 39.9067 63.2765 39.9067H61.95C61.552 39.9067 61.1762 39.9804 60.8224 40.1352C60.4687 40.2899 60.1665 40.4963 59.9086 40.7542C59.6506 41.0122 59.4443 41.3217 59.2969 41.6754C59.1421 42.0292 59.0684 42.405 59.0684 42.8104V50.5707C59.0684 50.9686 59.1421 51.3518 59.2969 51.7056C59.4443 52.0593 59.6506 52.3615 59.9086 52.6268C60.1665 52.8847 60.4687 53.0911 60.8224 53.2459C61.1762 53.4006 61.5446 53.4743 61.95 53.4743H63.2765C63.6745 53.4743 64.0503 53.4006 64.4041 53.2459C64.7578 53.0911 65.06 52.8847 65.3179 52.6268C65.5759 52.3689 65.7822 52.0593 65.937 51.7056C66.0844 51.3518 66.1654 50.976 66.1654 50.5707V42.8104Z" fill="#414141"/>
<path d="M6.84693 59.1931V56.3853C6.84693 49.5241 7.48072 44.7485 9.47054 41.3438C7.70181 42.007 6.23525 42.9061 5.01188 44.0926C1.45969 47.5343 0.435303 52.8994 0.435303 61.6325V64.4404H3.33159C12.3447 64.4404 17.8794 63.4454 21.4315 60.0038C22.1906 59.2668 22.8392 58.4341 23.3845 57.5055C20.046 58.7583 15.639 59.1858 9.74322 59.1858H6.84693V59.1931Z" fill="#AEC636"/>
<path d="M15.5873 36.2148C13.9513 36.8707 12.5805 37.7256 11.4161 38.8532C10.657 39.5901 10.0085 40.4229 9.46313 41.3515C10.8265 40.8356 12.3815 40.4598 14.1355 40.1945C14.4893 38.6984 14.9683 37.3719 15.5873 36.2075" fill="#AEC636"/>
<path d="M23.3771 57.5131C25.1458 56.8498 26.6124 55.9507 27.8357 54.7642C28.7201 53.9093 29.4423 52.9365 30.0393 51.8163C28.6022 52.3911 26.9587 52.8038 25.0721 53.0839C24.6741 54.7789 24.114 56.2381 23.3771 57.5131Z" fill="#AEC636"/>
<path d="M16.1107 53.6144H13.2144V50.8066C13.2144 46.51 13.4649 43.0315 14.1356 40.1942C12.3816 40.4595 10.834 40.8354 9.46321 41.3513C7.47339 44.756 6.8396 49.5316 6.8396 56.3928V59.2006H9.73589C15.6316 59.2006 20.0387 58.7732 23.3698 57.5203C24.1141 56.2454 24.6669 54.7862 25.0648 53.0912C22.537 53.4744 19.5818 53.6218 16.1033 53.6218" fill="#6BB545"/>
<path d="M35.8908 28.8304C26.8776 28.8304 21.343 29.8253 17.7908 33.2669C16.9065 34.1218 16.1842 35.0946 15.5873 36.2074C18.9552 34.8661 23.4507 34.4092 29.516 34.4092H32.4123V37.2171C32.4123 43.7835 31.8301 48.4411 30.0392 51.8091C31.6753 51.1532 33.0461 50.2983 34.2105 49.1707C37.7627 45.7291 38.7871 40.3639 38.7871 31.6308V28.823H35.8908V28.8304Z" fill="#AEC636"/>
<path d="M32.4123 34.4163H29.516C23.4434 34.4163 18.9553 34.8659 15.5873 36.2145C14.9683 37.3789 14.4892 38.6981 14.1355 40.2015C16.6633 39.8183 19.6185 39.6709 23.097 39.6709H25.9933V42.4788C25.9933 46.7753 25.7428 50.2538 25.0721 53.0837C26.9588 52.8037 28.5948 52.391 30.0393 51.8162C31.8301 48.4482 32.4123 43.7832 32.4123 37.2242V34.4163Z" fill="#6BB545"/>
<path d="M13.2144 53.6145H16.1106C19.5891 53.6145 22.5518 53.4671 25.0796 53.0839C25.7502 50.2466 26.0008 46.7681 26.0008 42.4715V39.6637H23.1045C19.626 39.6637 16.6634 39.8111 14.1356 40.1943C13.4649 43.0316 13.2144 46.5101 13.2144 50.8067V53.6145Z" fill="#00A24B"/>
<path d="M68.3101 63.4898C68.3101 63.7846 68.2438 64.0204 68.1111 64.1973C67.9785 64.3741 67.8016 64.4552 67.5732 64.4552C67.3079 64.4552 67.1015 64.3594 66.9615 64.1604V64.4184H66.7551V61.7137H66.9688V62.7897C67.1015 62.5833 67.3079 62.4801 67.5732 62.4801C67.8016 62.4801 67.9785 62.5686 68.1111 62.7381C68.2438 62.9076 68.3101 63.1508 68.3101 63.4529V63.4824V63.4898ZM68.0964 63.4529C68.0964 63.2024 68.0448 63.0107 67.949 62.8707C67.8532 62.7307 67.7132 62.6644 67.5289 62.6644C67.3889 62.6644 67.2784 62.7012 67.1826 62.7675C67.0868 62.8339 67.0131 62.9297 66.9688 63.055V63.9172C67.0794 64.1531 67.2636 64.2783 67.5363 64.2783C67.7132 64.2783 67.8458 64.212 67.949 64.072C68.0448 63.932 68.0964 63.733 68.0964 63.4529Z" fill="#414141"/>
<path d="M69.8872 64.4186C69.8651 64.3597 69.8503 64.2712 69.843 64.1533C69.7693 64.2491 69.6734 64.3228 69.5555 64.3744C69.4376 64.426 69.3197 64.4555 69.187 64.4555C69.0028 64.4555 68.8554 64.4039 68.7375 64.3007C68.6196 64.1975 68.568 64.0723 68.568 63.9175C68.568 63.7333 68.6491 63.5859 68.8038 63.4753C68.9586 63.3648 69.1797 63.3132 69.4524 63.3132H69.843V63.0995C69.843 62.9594 69.7987 62.8563 69.7177 62.7752C69.6292 62.6941 69.5113 62.6573 69.3492 62.6573C69.2018 62.6573 69.0765 62.6941 68.9807 62.7678C68.8849 62.8415 68.8333 62.93 68.8333 63.0405H68.6196C68.6196 62.8857 68.6933 62.7531 68.8333 62.6425C68.9733 62.532 69.1502 62.4804 69.3565 62.4804C69.5629 62.4804 69.7398 62.532 69.8651 62.6425C69.9903 62.7457 70.0493 62.9005 70.0567 63.0847V63.9838C70.0567 64.1681 70.0788 64.3081 70.1156 64.3965V64.4186H69.8872ZM69.2165 64.2712C69.3565 64.2712 69.4892 64.2344 69.5998 64.1681C69.7103 64.1017 69.7914 64.0059 69.843 63.8954V63.4753H69.4597C69.246 63.4753 69.0839 63.5195 68.9586 63.5932C68.8407 63.6669 68.7817 63.7701 68.7817 63.9028C68.7817 64.0133 68.8186 64.1017 68.8996 64.1681C68.9807 64.2344 69.0839 64.2712 69.2165 64.2712Z" fill="#414141"/>
<path d="M70.4326 63.4456C70.4326 63.1508 70.4989 62.915 70.6316 62.7381C70.7643 62.5612 70.9485 62.4728 71.177 62.4728C71.4349 62.4728 71.6339 62.576 71.7739 62.775V61.7064H71.9876V64.411H71.7886V64.1605C71.6412 64.3521 71.4423 64.4479 71.177 64.4479C70.9559 64.4479 70.7716 64.3594 70.639 64.1826C70.5063 64.0057 70.4326 63.7699 70.4326 63.4677V63.4456ZM70.6463 63.4898C70.6463 63.733 70.6979 63.9246 70.7937 64.0647C70.8895 64.2047 71.0296 64.271 71.2064 64.271C71.4717 64.271 71.656 64.1531 71.7665 63.9246V63.0329C71.656 62.7823 71.4717 62.6644 71.2064 62.6644C71.0296 62.6644 70.8895 62.7307 70.7864 62.8708C70.6832 63.0108 70.639 63.2171 70.639 63.4898" fill="#414141"/>
<path d="M73.6532 64.4186C73.6311 64.3597 73.6163 64.2712 73.6089 64.1533C73.5352 64.2491 73.4394 64.3228 73.3215 64.3744C73.2036 64.426 73.0857 64.4555 72.953 64.4555C72.7688 64.4555 72.614 64.4039 72.5035 64.3007C72.3856 64.1975 72.334 64.0723 72.334 63.9175C72.334 63.7333 72.4151 63.5859 72.5698 63.4753C72.7246 63.3648 72.9457 63.3132 73.2183 63.3132H73.6089V63.0995C73.6089 62.9594 73.5647 62.8563 73.4837 62.7752C73.3952 62.6941 73.2773 62.6573 73.1078 62.6573C72.9604 62.6573 72.8351 62.6941 72.7393 62.7678C72.6435 62.8415 72.5919 62.93 72.5919 63.0405H72.3782C72.3782 62.8857 72.4519 62.7531 72.5919 62.6425C72.7319 62.532 72.9088 62.4804 73.1152 62.4804C73.3215 62.4804 73.4984 62.532 73.6237 62.6425C73.749 62.7457 73.8079 62.9005 73.8153 63.0847V63.9838C73.8153 64.1681 73.8374 64.3081 73.8743 64.3965V64.4186H73.6458H73.6532ZM72.9825 64.2712C73.1225 64.2712 73.2552 64.2344 73.3657 64.1681C73.4763 64.1017 73.5574 64.0059 73.6089 63.8954V63.4753H73.2257C73.012 63.4753 72.8499 63.5195 72.7246 63.5932C72.6067 63.6669 72.5477 63.7701 72.5477 63.9028C72.5477 64.0133 72.5846 64.1017 72.6656 64.1681C72.7467 64.2344 72.8499 64.2712 72.9825 64.2712Z" fill="#414141"/>
<path d="M74.4785 62.5173V62.8415C74.5596 62.7236 74.648 62.6352 74.7586 62.5762C74.8691 62.5173 74.987 62.4804 75.1197 62.4804C75.326 62.4804 75.4808 62.5394 75.584 62.6499C75.6872 62.7678 75.7387 62.9373 75.7387 63.1658V64.4186H75.525V63.1658C75.525 62.9963 75.4882 62.871 75.4145 62.7826C75.3408 62.7015 75.2302 62.6573 75.0681 62.6573C74.9354 62.6573 74.8175 62.7015 74.7144 62.7826C74.6112 62.8636 74.5375 62.9742 74.4933 63.1142V64.4186H74.2795V62.5173H74.4859H74.4785Z" fill="#414141"/>
<path d="M78.4949 63.4898C78.4949 63.7846 78.4286 64.0204 78.296 64.1973C78.1633 64.3741 77.9864 64.4552 77.758 64.4552C77.5 64.4552 77.2937 64.3594 77.1537 64.1825V65.1553H76.9399V62.517H77.1389V62.7896C77.2863 62.5833 77.4927 62.4875 77.7506 62.4875C77.9791 62.4875 78.1633 62.5759 78.296 62.7454C78.4286 62.9149 78.4949 63.1581 78.4949 63.4603V63.4898ZM78.2812 63.4529C78.2812 63.2097 78.2296 63.0181 78.1338 62.8781C78.0307 62.7381 77.8906 62.6644 77.7138 62.6644C77.5811 62.6644 77.4706 62.6938 77.3748 62.7602C77.2789 62.8265 77.2126 62.9149 77.161 63.0328V63.9467C77.2126 64.0572 77.2863 64.1383 77.3821 64.1973C77.4779 64.2562 77.5885 64.2857 77.7211 64.2857C77.898 64.2857 78.038 64.212 78.1412 64.072C78.2444 63.9319 78.2886 63.7256 78.2886 63.4603" fill="#414141"/>
<path d="M79.6079 64.4552C79.4457 64.4552 79.2983 64.4183 79.1657 64.3373C79.033 64.2562 78.9298 64.1457 78.8562 64.0056C78.7825 63.8656 78.7456 63.7035 78.7456 63.5266V63.4529C78.7456 63.2687 78.7825 63.1065 78.8562 62.9591C78.9298 62.8118 79.0257 62.7012 79.1583 62.6128C79.2836 62.5317 79.4236 62.4875 79.5784 62.4875C79.8142 62.4875 79.9985 62.5686 80.1385 62.7233C80.2711 62.8781 80.3448 63.0992 80.3448 63.3718V63.4898H78.9667V63.534C78.9667 63.7477 79.0257 63.9319 79.1509 64.072C79.2762 64.2194 79.4384 64.2857 79.6226 64.2857C79.7331 64.2857 79.8363 64.2636 79.9248 64.2267C80.0132 64.1825 80.0869 64.1162 80.1606 64.0277L80.2932 64.1309C80.1385 64.352 79.91 64.4699 79.6152 64.4699M79.571 62.657C79.4089 62.657 79.2762 62.7159 79.1657 62.8339C79.0551 62.9518 78.9888 63.1065 78.9667 63.3055H80.1237V63.2834C80.1237 63.0992 80.0648 62.9518 79.969 62.8339C79.8732 62.7159 79.7405 62.6644 79.5784 62.6644" fill="#414141"/>
<path d="M80.8386 62.5173V62.8415C80.9196 62.7236 81.0081 62.6352 81.1186 62.5762C81.2291 62.5173 81.3471 62.4804 81.4797 62.4804C81.6861 62.4804 81.8408 62.5394 81.944 62.6499C82.0472 62.7678 82.0988 62.9373 82.0988 63.1658V64.4186H81.885V63.1658C81.885 62.9963 81.8482 62.871 81.7745 62.7826C81.7008 62.7015 81.5903 62.6573 81.4281 62.6573C81.2955 62.6573 81.1776 62.7015 81.0744 62.7826C80.9712 62.8636 80.8975 62.9742 80.8459 63.1142V64.4186H80.6322V62.5173H80.8312H80.8386Z" fill="#414141"/>
<path d="M82.4452 63.4458C82.4452 63.151 82.5115 62.9152 82.6442 62.7383C82.7768 62.5615 82.9611 62.4804 83.1895 62.4804C83.4475 62.4804 83.6538 62.5836 83.7865 62.7899V62.5173H83.9928V64.3818C83.9928 64.625 83.9265 64.824 83.7865 64.964C83.6464 65.104 83.4622 65.1777 83.219 65.1777C83.0863 65.1777 82.9537 65.1482 82.8358 65.0893C82.7179 65.0303 82.6221 64.9493 82.5484 64.8534L82.6663 64.7282C82.8137 64.9124 82.9979 65.0008 83.2043 65.0008C83.3811 65.0008 83.5212 64.9493 83.6243 64.8461C83.7275 64.7429 83.7791 64.5955 83.7791 64.4113V64.1754C83.6464 64.3597 83.4401 64.4555 83.1822 64.4555C82.9611 64.4555 82.7768 64.367 82.6442 64.1902C82.5115 64.0133 82.4452 63.7775 82.4452 63.4753V63.4458ZM82.6589 63.4901C82.6589 63.7333 82.7105 63.9249 82.8063 64.0649C82.9021 64.2049 83.0421 64.2712 83.2264 64.2712C83.4917 64.2712 83.6759 64.1533 83.7865 63.9249V63.0405C83.7349 62.9152 83.6686 62.8268 83.5728 62.7605C83.4769 62.6941 83.3664 62.6646 83.2337 62.6646C83.0569 62.6646 82.9169 62.731 82.8137 62.871C82.7179 63.011 82.6663 63.2174 82.6663 63.4901" fill="#414141"/>
<path d="M85.1867 64.4552C85.0246 64.4552 84.8772 64.4183 84.7445 64.3373C84.6119 64.2562 84.5087 64.1457 84.435 64.0056C84.3613 63.8656 84.3245 63.7035 84.3245 63.5266V63.4529C84.3245 63.2687 84.3613 63.1065 84.435 62.9591C84.5087 62.8118 84.6045 62.7012 84.7372 62.6128C84.8625 62.5317 85.0025 62.4875 85.1572 62.4875C85.3931 62.4875 85.5773 62.5686 85.7173 62.7233C85.8574 62.8781 85.9237 63.0992 85.9237 63.3718V63.4898H84.5456V63.534C84.5456 63.7477 84.6119 63.9319 84.7372 64.072C84.8625 64.2194 85.0172 64.2857 85.2088 64.2857C85.3194 64.2857 85.4225 64.2636 85.511 64.2267C85.5994 64.1825 85.6731 64.1162 85.7468 64.0277L85.8795 64.1309C85.7247 64.352 85.4962 64.4699 85.2015 64.4699M85.1499 62.657C84.9877 62.657 84.8551 62.7159 84.7445 62.8339C84.634 62.9518 84.5677 63.1065 84.5456 63.3055H85.7026V63.2834C85.6952 63.0992 85.6436 62.9518 85.5405 62.8339C85.4373 62.7159 85.312 62.6644 85.1499 62.6644" fill="#414141"/>
<path d="M86.4543 61.7137H86.2406V64.4184H86.4543V61.7137Z" fill="#414141"/>
<path d="M86.808 63.4385C86.808 63.2542 86.8448 63.0921 86.9185 62.9447C86.9922 62.7973 87.088 62.6868 87.2207 62.6057C87.3533 62.5246 87.5007 62.4804 87.6629 62.4804C87.9208 62.4804 88.1272 62.5688 88.2893 62.7457C88.4441 62.9226 88.5251 63.1584 88.5251 63.4532V63.4974C88.5251 63.6817 88.4883 63.8512 88.4146 63.9912C88.3409 64.1312 88.2451 64.2491 88.1124 64.3302C87.9798 64.4113 87.8324 64.4481 87.6629 64.4481C87.4049 64.4481 87.1986 64.3597 87.0438 64.1828C86.8817 64.0059 86.808 63.7701 86.808 63.4753V63.4311V63.4385ZM87.0217 63.4974C87.0217 63.7259 87.0807 63.9101 87.1986 64.0575C87.3165 64.2049 87.4786 64.2786 87.6702 64.2786C87.8618 64.2786 88.0166 64.2049 88.1419 64.0575C88.2598 63.9101 88.3188 63.7185 88.3188 63.4753V63.4385C88.3188 63.2911 88.2893 63.1584 88.2377 63.0405C88.1861 62.9226 88.105 62.8268 88.0092 62.7605C87.9134 62.6941 87.8029 62.6646 87.6702 62.6646C87.4786 62.6646 87.3239 62.7383 87.2059 62.8857C87.088 63.0331 87.0291 63.2247 87.0291 63.4606V63.4974H87.0217Z" fill="#414141"/>
<path d="M89.1 61.7137H88.8862V64.4184H89.1V61.7137Z" fill="#414141"/>
<path d="M90.7802 64.4186C90.7581 64.3597 90.7434 64.2712 90.736 64.1533C90.6623 64.2491 90.5665 64.3228 90.4486 64.3744C90.3307 64.426 90.2128 64.4555 90.0801 64.4555C89.8959 64.4555 89.7411 64.4039 89.6306 64.3007C89.5126 64.1975 89.4611 64.0723 89.4611 63.9175C89.4611 63.7333 89.5421 63.5859 89.6969 63.4753C89.8517 63.3648 90.0727 63.3132 90.3528 63.3132H90.736V63.0995C90.736 62.9594 90.6918 62.8563 90.6107 62.7752C90.5223 62.6941 90.4044 62.6573 90.2349 62.6573C90.0875 62.6573 89.9622 62.6941 89.8664 62.7678C89.7706 62.8415 89.719 62.93 89.719 63.0405H89.5053C89.5053 62.8857 89.579 62.7531 89.719 62.6425C89.859 62.532 90.0359 62.4804 90.2423 62.4804C90.4486 62.4804 90.6255 62.532 90.7508 62.6425C90.876 62.7457 90.935 62.9005 90.9424 63.0847V63.9838C90.9424 64.1681 90.9645 64.3081 91.0013 64.3965V64.4186H90.7729H90.7802ZM90.117 64.2712C90.257 64.2712 90.3896 64.2344 90.5002 64.1681C90.6107 64.1017 90.6918 64.0059 90.7434 63.8954V63.4753H90.3602C90.1464 63.4753 89.9843 63.5195 89.859 63.5932C89.7411 63.6669 89.6822 63.7701 89.6822 63.9028C89.6822 64.0133 89.719 64.1017 89.8001 64.1681C89.8811 64.2344 89.9843 64.2712 90.1096 64.2712" fill="#414141"/>
<path d="M92.1068 63.4456C92.1068 63.1508 92.1731 62.915 92.3058 62.7381C92.4384 62.5612 92.6227 62.4728 92.8512 62.4728C93.1091 62.4728 93.3081 62.576 93.4481 62.775V61.7064H93.6618V64.411H93.4628V64.1605C93.3154 64.3521 93.1165 64.4479 92.8512 64.4479C92.6301 64.4479 92.4458 64.3594 92.3132 64.1826C92.1805 64.0057 92.1068 63.7699 92.1068 63.4677V63.4456ZM92.3205 63.4898C92.3205 63.733 92.3721 63.9246 92.4679 64.0647C92.5637 64.2047 92.7038 64.271 92.888 64.271C93.1459 64.271 93.3375 64.1531 93.4481 63.9246V63.0329C93.3375 62.7823 93.1533 62.6644 92.8954 62.6644C92.7185 62.6644 92.5785 62.7307 92.4753 62.8708C92.3721 63.0108 92.3279 63.2171 92.3279 63.4898" fill="#414141"/>
<path d="M95.32 64.4186C95.2979 64.3597 95.2832 64.2712 95.2758 64.1533C95.2021 64.2491 95.1063 64.3228 94.9884 64.3744C94.8705 64.426 94.7526 64.4555 94.6199 64.4555C94.4357 64.4555 94.2883 64.4039 94.1704 64.3007C94.0524 64.1975 94.0009 64.0723 94.0009 63.9175C94.0009 63.7333 94.0819 63.5859 94.2367 63.4753C94.3914 63.3648 94.6125 63.3132 94.8926 63.3132H95.2758V63.0995C95.2758 62.9594 95.2316 62.8563 95.1505 62.7752C95.0621 62.6941 94.9442 62.6573 94.7747 62.6573C94.6273 62.6573 94.502 62.6941 94.4062 62.7678C94.3104 62.8415 94.2588 62.93 94.2588 63.0405H94.0451C94.0451 62.8857 94.1188 62.7531 94.2588 62.6425C94.3988 62.532 94.5757 62.4804 94.782 62.4804C94.9884 62.4804 95.1653 62.532 95.2905 62.6425C95.4158 62.7457 95.4748 62.9005 95.4822 63.0847V63.9838C95.4822 64.1681 95.5043 64.3081 95.5411 64.3965V64.4186H95.3127H95.32ZM94.6494 64.2712C94.7894 64.2712 94.9221 64.2344 95.0326 64.1681C95.1432 64.1017 95.2242 64.0059 95.2758 63.8954V63.4753H94.8926C94.6789 63.4753 94.5167 63.5195 94.3914 63.5932C94.2735 63.6669 94.2146 63.7701 94.2146 63.9028C94.2146 64.0133 94.2514 64.1017 94.3325 64.1681C94.4136 64.2344 94.5167 64.2712 94.6494 64.2712Z" fill="#414141"/>
<path d="M96.1529 62.5173V62.8415C96.234 62.7236 96.3224 62.6352 96.4256 62.5762C96.5361 62.5173 96.6541 62.4804 96.7867 62.4804C96.9931 62.4804 97.1478 62.5394 97.251 62.6499C97.3542 62.7678 97.4058 62.9373 97.4058 63.1658V64.4186H97.1921V63.1658C97.1921 62.9963 97.1552 62.871 97.0815 62.7826C97.0078 62.7015 96.8973 62.6573 96.7351 62.6573C96.6025 62.6573 96.4846 62.7015 96.3814 62.7826C96.2782 62.8636 96.2045 62.9742 96.1529 63.1142V64.4186H95.9392V62.5173H96.1456H96.1529Z" fill="#414141"/>
<path d="M99.0564 64.4186C99.0343 64.3597 99.0195 64.2712 99.0121 64.1533C98.9384 64.2491 98.8426 64.3228 98.7247 64.3744C98.6068 64.426 98.4889 64.4555 98.3562 64.4555C98.172 64.4555 98.0246 64.4039 97.9067 64.3007C97.7961 64.1975 97.7372 64.0723 97.7372 63.9175C97.7372 63.7333 97.8183 63.5859 97.973 63.4753C98.1278 63.3648 98.3489 63.3132 98.6289 63.3132H99.0121V63.0995C99.0121 62.9594 98.9679 62.8563 98.8869 62.7752C98.7984 62.6941 98.6805 62.6573 98.511 62.6573C98.3636 62.6573 98.2383 62.6941 98.1425 62.7678C98.0467 62.8415 97.9951 62.93 97.9951 63.0405H97.7814C97.7814 62.8857 97.8551 62.7531 97.9951 62.6425C98.1352 62.532 98.312 62.4804 98.5184 62.4804C98.7247 62.4804 98.9016 62.532 99.0269 62.6425C99.1522 62.7457 99.2111 62.9005 99.2185 63.0847V63.9838C99.2185 64.1681 99.2406 64.3081 99.2775 64.3965V64.4186H99.049H99.0564ZM98.3931 64.2712C98.5331 64.2712 98.6658 64.2344 98.7763 64.1681C98.8869 64.1017 98.9679 64.0059 99.0195 63.8954V63.4753H98.6363C98.4226 63.4753 98.2531 63.5195 98.1352 63.5932C98.0172 63.6669 97.9583 63.7701 97.9583 63.9028C97.9583 64.0133 97.9951 64.1017 98.0762 64.1681C98.1573 64.2344 98.2604 64.2712 98.3857 64.2712" fill="#414141"/>
<path d="M66.9247 66.5629H66.7109V69.2676H66.9247V66.5629Z" fill="#414141"/>
<path d="M67.3815 66.8137L67.4183 66.7105L67.5215 66.6663L67.632 66.7105L67.6689 66.8137L67.632 66.9095L67.5215 66.9537L67.4183 66.9095L67.3815 66.8137ZM67.632 69.2678H67.4183V67.3664H67.632V69.2678Z" fill="#414141"/>
<path d="M68.3027 67.3663V67.6905C68.3838 67.5726 68.4722 67.4842 68.5828 67.4178C68.6933 67.3589 68.8112 67.3294 68.9439 67.3294C69.1503 67.3294 69.305 67.3884 69.4082 67.4989C69.5114 67.6168 69.563 67.7863 69.563 68.0148V69.2603H69.3492V68.0074C69.3492 67.8379 69.3124 67.7126 69.2387 67.6242C69.165 67.5431 69.0544 67.4989 68.8923 67.4989C68.7597 67.4989 68.6417 67.5358 68.5386 67.6242C68.4354 67.7053 68.3617 67.8158 68.3175 67.9558V69.2603H68.1038V67.3589H68.3101L68.3027 67.3663Z" fill="#414141"/>
<path d="M69.9093 68.2948C69.9093 68 69.9756 67.7642 70.1083 67.5873C70.2409 67.4105 70.4252 67.3294 70.6536 67.3294C70.919 67.3294 71.1179 67.4326 71.2506 67.6389V67.3663H71.4569V69.2308C71.4569 69.474 71.3906 69.673 71.2506 69.813C71.1106 69.953 70.9263 70.0267 70.6831 70.0267C70.5505 70.0267 70.4252 69.9972 70.2999 69.9383C70.182 69.8793 70.0788 69.7983 70.0125 69.7024L70.1304 69.5772C70.2778 69.7614 70.462 69.8498 70.6684 69.8498C70.8453 69.8498 70.9853 69.7983 71.0885 69.6951C71.1916 69.5919 71.2432 69.4445 71.2432 69.2603V69.0244C71.1106 69.2087 70.9042 69.3045 70.6463 69.3045C70.4252 69.3045 70.2409 69.216 70.1083 69.0392C69.9756 68.8623 69.9093 68.6265 69.9093 68.3243V68.2948ZM70.123 68.3317C70.123 68.5749 70.1746 68.7665 70.2704 68.9065C70.3662 69.0465 70.5062 69.1129 70.6905 69.1129C70.9558 69.1129 71.14 68.995 71.2506 68.7665V67.8821C71.199 67.7568 71.1327 67.6684 71.0369 67.6021C70.9411 67.5358 70.8305 67.5063 70.6979 67.5063C70.521 67.5063 70.381 67.5726 70.2778 67.7126C70.182 67.8527 70.1304 68.059 70.1304 68.3243" fill="#414141"/>
<path d="M72.3634 68.3095L72.1202 68.538V69.2676H71.9065V66.5629H72.1202V68.2948L72.3192 68.0811L73.0635 67.3662H73.3288L72.5108 68.1695L73.4025 69.2676H73.1446L72.3634 68.3095Z" fill="#414141"/>
<path d="M74.8249 69.0246C74.6997 69.2088 74.4933 69.2972 74.2133 69.2972C74.0069 69.2972 73.8521 69.2383 73.7416 69.1204C73.6311 69.0024 73.5795 68.8256 73.5795 68.5971V67.359H73.7932V68.5676C73.7932 68.9288 73.9406 69.113 74.2354 69.113C74.5302 69.113 74.7439 68.9877 74.8176 68.7371V67.359H75.0313V69.2604H74.8249V69.0172V69.0246Z" fill="#414141"/>
<path d="M75.6797 67.3663V67.6905C75.7608 67.5726 75.8492 67.4842 75.9598 67.4178C76.0703 67.3589 76.1882 67.3294 76.3209 67.3294C76.5273 67.3294 76.682 67.3884 76.7852 67.4989C76.8884 67.6168 76.94 67.7863 76.94 68.0148V69.2603H76.7262V68.0074C76.7262 67.8379 76.6894 67.7126 76.6157 67.6242C76.542 67.5431 76.4314 67.4989 76.2693 67.4989C76.1367 67.4989 76.0187 67.5358 75.9156 67.6242C75.8124 67.7053 75.7387 67.8158 75.6871 67.9558V69.2603H75.4734V67.3589H75.6797V67.3663Z" fill="#414141"/>
<path d="M77.2864 68.2948C77.2864 68 77.3527 67.7642 77.4854 67.5873C77.6181 67.4105 77.8023 67.3294 78.0308 67.3294C78.2961 67.3294 78.4951 67.4326 78.6277 67.6389V67.3663H78.8341V69.2308C78.8341 69.474 78.7677 69.673 78.6277 69.813C78.4877 69.953 78.3034 70.0267 78.0602 70.0267C77.9276 70.0267 77.8023 69.9972 77.677 69.9383C77.5591 69.8793 77.4633 69.7983 77.3896 69.7024L77.5075 69.5772C77.6549 69.7614 77.8391 69.8498 78.0455 69.8498C78.2224 69.8498 78.3624 69.7983 78.4656 69.6951C78.5614 69.5919 78.613 69.4445 78.6203 69.2603V69.0244C78.4803 69.2087 78.2813 69.3045 78.0234 69.3045C77.8023 69.3045 77.6181 69.216 77.4854 69.0392C77.3527 68.8623 77.2791 68.6265 77.2791 68.3243V68.2948H77.2864ZM77.5001 68.3317C77.5001 68.5749 77.5517 68.7665 77.6475 68.9065C77.7433 69.0465 77.8834 69.1129 78.0602 69.1129C78.3255 69.1129 78.5098 68.995 78.6203 68.7665V67.8821C78.5687 67.7568 78.4951 67.6684 78.4066 67.6021C78.3108 67.5358 78.2003 67.5063 78.0676 67.5063C77.8907 67.5063 77.7507 67.5726 77.6475 67.7126C77.5517 67.8527 77.5001 68.059 77.5001 68.3243" fill="#414141"/>
<path d="M80.4995 69.2677C80.4774 69.2087 80.4627 69.1203 80.4627 69.0024C80.389 69.0982 80.2932 69.1719 80.1753 69.2235C80.0574 69.2751 79.9394 69.3045 79.8068 69.3045C79.6226 69.3045 79.4752 69.2529 79.3572 69.1498C79.2467 69.0466 79.1877 68.9213 79.1877 68.7665C79.1877 68.5823 79.2688 68.4349 79.4236 68.3244C79.5783 68.2138 79.7994 68.1622 80.0795 68.1622H80.4701V67.9485C80.4701 67.8159 80.4259 67.7053 80.3448 67.6242C80.2563 67.5432 80.1384 67.5063 79.9689 67.5063C79.8215 67.5063 79.6963 67.5432 79.6004 67.6169C79.5046 67.6906 79.4531 67.779 79.4531 67.8896H79.2393C79.2393 67.7348 79.313 67.6021 79.4531 67.4916C79.5931 67.381 79.7699 67.3221 79.9763 67.3221C80.1827 67.3221 80.3595 67.3737 80.4848 67.4842C80.6101 67.5948 80.669 67.7422 80.6764 67.9264V68.8255C80.6764 69.0097 80.6985 69.1498 80.7354 69.2382V69.2603H80.5069L80.4995 69.2677ZM79.8289 69.1203C79.9689 69.1203 80.1016 69.0834 80.2121 69.0171C80.3227 68.9508 80.4037 68.855 80.4553 68.7444V68.3244H80.0721C79.8584 68.3244 79.6963 68.3686 79.571 68.4423C79.4531 68.516 79.3941 68.6191 79.3941 68.7518C79.3941 68.855 79.4309 68.9434 79.512 69.0171C79.5931 69.0908 79.6963 69.1203 79.8215 69.1203" fill="#414141"/>
<path d="M81.3324 67.3663V67.6905C81.4135 67.5726 81.5019 67.4842 81.6125 67.4178C81.723 67.3589 81.8409 67.3294 81.9736 67.3294C82.1799 67.3294 82.3347 67.3884 82.4379 67.4989C82.541 67.6168 82.5926 67.7863 82.5926 68.0148V69.2603H82.3789V68.0074C82.3789 67.8379 82.3421 67.7126 82.2684 67.6242C82.1947 67.5431 82.0841 67.4989 81.922 67.4989C81.7893 67.4989 81.6714 67.5358 81.5682 67.6242C81.4651 67.7053 81.3914 67.8158 81.3471 67.9558V69.2603H81.1334V67.3589H81.3398L81.3324 67.3663Z" fill="#414141"/>
<path d="M84.0149 67.6832C84.0886 67.5726 84.177 67.4842 84.2875 67.4179C84.3981 67.3589 84.516 67.3221 84.6487 67.3221C84.855 67.3221 85.0098 67.381 85.113 67.4916C85.2161 67.6095 85.2677 67.779 85.2677 68.0074V69.2603H85.054V68.0074C85.054 67.8379 85.0171 67.7126 84.9435 67.6242C84.8698 67.5431 84.7592 67.4989 84.5971 67.4989C84.4644 67.4989 84.3465 67.5431 84.2433 67.6242C84.1402 67.7053 84.0665 67.8158 84.0149 67.9558V69.2603H83.8011V66.5556H84.0149V67.6758V67.6832Z" fill="#414141"/>
<path d="M85.6804 66.8137L85.7173 66.7105L85.8204 66.6663L85.931 66.7105L85.9678 66.8137L85.931 66.9095L85.8204 66.9537L85.7173 66.9095L85.6804 66.8137ZM85.931 69.2678H85.7173V67.3664H85.931V69.2678Z" fill="#414141"/>
<path d="M86.3142 68.2948C86.3142 68.0001 86.3805 67.7642 86.5132 67.5874C86.6458 67.4105 86.8301 67.3221 87.0585 67.3221C87.3165 67.3221 87.5155 67.4252 87.6555 67.6242V66.5556H87.8692V69.2603H87.6702V69.0097C87.5228 69.2013 87.3239 69.2971 87.0585 69.2971C86.8375 69.2971 86.6606 69.2087 86.5206 69.0318C86.3879 68.8549 86.3142 68.6191 86.3142 68.317V68.2948ZM86.5279 68.3317C86.5279 68.5749 86.5795 68.7665 86.6753 68.9065C86.7711 69.0466 86.9112 69.1129 87.0954 69.1129C87.3607 69.1129 87.5449 69.0023 87.6555 68.7665V67.8748C87.5449 67.6316 87.3607 67.5063 87.1028 67.5063C86.9259 67.5063 86.7859 67.5726 86.6827 67.7126C86.5869 67.8527 86.5353 68.059 86.5353 68.3243" fill="#414141"/>
<path d="M89.557 69.0246C89.4317 69.2088 89.2253 69.2972 88.9453 69.2972C88.7389 69.2972 88.5842 69.2383 88.481 69.1204C88.3704 69.0024 88.3188 68.8256 88.3188 68.5971V67.359H88.5326V68.5676C88.5326 68.9288 88.68 69.113 88.9821 69.113C89.2843 69.113 89.4833 68.9877 89.5717 68.7371V67.359H89.7854V69.2604H89.5791V69.0172L89.557 69.0246Z" fill="#414141"/>
<path d="M91.7604 68.3317C91.7604 68.6265 91.6941 68.8623 91.5614 69.0392C91.4288 69.216 91.2519 69.2971 91.0308 69.2971C90.7655 69.2971 90.5665 69.2087 90.4265 69.0244V69.9972H90.2128V67.3589H90.4117V67.6316C90.5591 67.4252 90.7655 67.3294 91.0234 67.3294C91.2519 67.3294 91.4361 67.4178 91.5688 67.5873C91.7014 67.7568 91.7678 68 91.7678 68.3022V68.3317H91.7604ZM91.5467 68.2948C91.5467 68.0516 91.4951 67.86 91.3993 67.72C91.2961 67.58 91.1561 67.5063 90.9792 67.5063C90.8466 67.5063 90.736 67.5358 90.6402 67.6021C90.5444 67.661 90.4781 67.7568 90.4265 67.8748V68.7886C90.4781 68.8991 90.5518 68.9802 90.6476 69.0392C90.7434 69.0981 90.8539 69.1276 90.9866 69.1276C91.1635 69.1276 91.3035 69.0613 91.4067 68.9139C91.5025 68.7739 91.5541 68.5675 91.5541 68.2948" fill="#414141"/>
</g>
<defs>
<clipPath id="clip0_319_159">
<rect width="98.857" height="98.857" fill="white" transform="translate(0.427979)"/>
</clipPath>
</defs>
</svg>
