<svg width="100" height="39" viewBox="0 0 100 39" fill="none" xmlns="http://www.w3.org/2000/svg">
<path d="M27.1446 3.11954C27.1078 2.2794 27.0709 1.41715 27.1078 0.562264L27.1299 0.00953768H26.5772C26.2897 0.00953768 26.0244 0.0095361 25.7665 0.00216642C25.2211 -0.00520327 24.7053 -0.0199407 24.1894 0.0242774C23.1208 0.112714 21.9785 0.223259 20.8435 0.444349C15.7879 1.43189 13.1275 4.65244 13.1348 9.77437V10.0249C13.1348 10.2166 13.1348 10.4082 13.1348 10.5998C13.1348 11.0198 13.1201 11.4473 13.098 11.5136C12.9948 11.5726 12.5158 11.5799 12.162 11.5799C9.00045 11.6315 6.58319 12.2653 4.5639 13.5845C2.38984 15.0069 1.17384 16.8124 0.945381 18.9644C0.805357 20.3204 0.834836 21.6543 0.871684 23.0693C0.886423 23.6883 0.901163 24.3148 0.901163 24.9559V25.4497L1.39493 25.4865C1.53496 25.4939 1.66024 25.5087 1.78553 25.5234C2.01399 25.5455 2.22771 25.5676 2.44143 25.5676H2.45617C3.32579 25.5676 4.19541 25.5676 5.06504 25.5676C7.68864 25.5676 10.4007 25.5676 13.0685 25.516C14.373 25.4939 15.6184 25.3318 16.7681 25.0444C20.6814 24.0716 23.0176 21.8533 23.9241 18.2716L24.322 16.6871L23.0692 17.7336C23.0102 17.7852 22.966 17.8147 22.9292 17.8442C22.8481 17.9105 22.7597 17.9768 22.686 18.08C20.6888 20.7921 17.8662 22.2218 14.0561 22.4576C11.6388 22.605 9.16995 22.6197 6.7748 22.6345H5.36719C5.05767 22.6418 4.78499 22.6566 4.55653 22.664C4.26174 22.6713 3.96695 22.6861 3.82693 22.664C3.79745 22.5018 3.79745 22.1039 3.79745 21.7133C3.79745 21.529 3.79745 21.3153 3.79745 21.0868C3.77534 17.7189 5.05767 15.9649 8.07924 15.2132C9.39104 14.8889 10.7397 14.8079 12.1768 14.7194C13.1054 14.6605 14.0634 14.6015 15.0141 14.4689C17.2471 14.1593 19.5612 13.8351 21.75 13.1718C24.1894 12.4348 25.9434 10.7767 26.6951 8.49942C27.2846 6.71595 27.2109 4.89564 27.1373 3.14165M24.2483 3.06059C24.2336 3.39959 24.2189 3.73123 24.2115 4.05549C24.1746 5.16832 24.1378 6.22218 23.9462 7.2392C23.7325 8.36676 22.9439 9.25849 21.4479 10.0471C19.915 10.8577 18.242 11.2852 16.0753 11.4104C16.0753 11.1378 16.068 10.8725 16.0606 10.6071C16.0459 9.66383 16.0311 8.76472 16.0975 7.8951C16.1785 6.81176 16.7165 5.83159 17.6525 5.06514C19.6496 3.4217 22.0669 3.09744 24.2483 3.06059Z" fill="#0D4D8B"/>
<path d="M37.5137 15.7876C37.499 15.1686 37.4843 14.5422 37.4843 13.901V13.4072L36.9905 13.3704C36.8505 13.363 36.7252 13.3483 36.6073 13.3409C36.3567 13.3188 36.143 13.2967 35.9293 13.2967C35.0449 13.2967 34.1605 13.2967 33.2835 13.2967C30.6747 13.2967 27.9774 13.2967 25.3243 13.3483C24.0125 13.3778 22.767 13.5325 21.6247 13.8199C17.7114 14.7927 15.3752 17.0036 14.4687 20.5927L14.0781 22.1624L15.3236 21.1307C15.3826 21.0865 15.4268 21.0496 15.4636 21.0201C15.5521 20.9538 15.6405 20.8875 15.7142 20.7843C17.7114 18.0796 20.534 16.6425 24.3441 16.4067C26.754 16.2593 29.2155 16.2446 31.6033 16.2298H33.033C33.3425 16.2225 33.6078 16.2077 33.8363 16.2003C34.1311 16.193 34.4258 16.1782 34.5659 16.2003C34.5954 16.3625 34.5954 16.7604 34.5954 17.1437C34.5954 17.3279 34.5954 17.5416 34.5954 17.7775C34.6175 21.1454 33.3351 22.8994 30.3136 23.6511C29.0018 23.9754 27.6531 24.0564 26.2234 24.1449C25.2948 24.2038 24.3367 24.2628 23.3934 24.3881C21.153 24.6976 18.839 25.0219 16.6428 25.6925C14.2034 26.4295 12.4494 28.095 11.6977 30.3649C11.1082 32.1484 11.1819 33.9687 11.2556 35.7227C11.2924 36.5628 11.3292 37.4324 11.285 38.2799L11.2629 38.8327H11.8156C12.1031 38.8327 12.3684 38.8327 12.6263 38.84C12.8621 38.84 13.0906 38.8474 13.3191 38.8474C13.6139 38.8474 13.9086 38.84 14.2034 38.8179C15.2204 38.7295 16.3996 38.6189 17.5493 38.3978C22.6712 37.3956 25.2653 34.2635 25.258 29.0678V28.8173C25.258 28.6256 25.258 28.434 25.258 28.2424C25.258 27.8223 25.2727 27.3949 25.2948 27.3286C25.398 27.2696 25.877 27.2622 26.2234 27.2622C29.385 27.2107 31.8022 26.5769 33.8215 25.2577C35.9956 23.8353 37.219 22.0298 37.44 19.8778C37.5801 18.5218 37.5506 17.1879 37.5137 15.7729M22.3027 30.9692C22.2216 32.0526 21.6837 33.0253 20.7477 33.7918C18.7505 35.4352 16.3333 35.7669 14.1518 35.8037C14.1666 35.4721 14.1813 35.1404 14.1887 34.8162C14.2255 33.696 14.2624 32.6421 14.454 31.6251C14.6677 30.4975 15.4563 29.6058 16.9523 28.8173C18.4631 28.0213 20.1802 27.5865 22.3248 27.4539C22.3248 27.7265 22.3322 27.9992 22.3396 28.2645C22.3543 29.2078 22.369 30.0996 22.3027 30.9692Z" fill="#8FC640"/>
<path d="M42.1641 20.8876C42.1641 22.9585 46.7849 22.9585 46.7849 22.9585V4.95431C46.7849 2.88342 42.1641 2.88342 42.1641 2.88342V20.8876Z" fill="#0D4D8B"/>
<path d="M61.2294 20.8876C61.2294 22.9585 65.8502 22.9585 65.8502 22.9585V4.95435C65.8502 2.88347 61.2294 2.88347 61.2294 2.88347V11.2923H53.4617V4.94698C53.4617 2.8761 48.8409 2.8761 48.8409 2.8761V20.8802C48.8409 22.9511 53.4617 22.9511 53.4617 22.9511V14.5939H61.2294V20.8802V20.8876Z" fill="#0D4D8B"/>
<path d="M76.411 6.24408C78.8798 6.24408 82.0562 6.67152 83.2353 9.41304C86.3232 4.6817 81.4887 2.83191 76.411 2.83191C71.8123 2.83191 67.7885 4.63011 67.7885 9.76679V16.0826C67.7885 21.2193 71.8197 23.0175 76.411 23.0175C81.4887 23.0175 85.8958 20.895 83.2353 16.4364C81.754 19.34 78.8798 19.6348 76.411 19.6348C73.9421 19.6348 72.4092 18.6915 72.4092 15.6846V10.15C72.4092 7.16529 74.0453 6.25144 76.411 6.25144" fill="#0D4D8B"/>
<path d="M43.4758 26.9971H42.6136V30.9031H43.4758V26.9971Z" fill="#0D4D8B"/>
<path fill-rule="evenodd" clip-rule="evenodd" d="M47.0207 30.9029V28.9646C47.0207 28.2793 46.6448 27.8518 46.0037 27.8518C45.5762 27.8518 45.3257 28.0803 45.1267 28.3308V27.9034H44.2792V30.8955H45.1267V29.2299C45.1267 28.8246 45.333 28.6183 45.6573 28.6183C45.9816 28.6183 46.1732 28.8246 46.1732 29.2299V30.8955H47.0207V30.9029Z" fill="#0D4D8B"/>
<path fill-rule="evenodd" clip-rule="evenodd" d="M49.8433 29.4144C49.8433 29.9082 49.5117 30.2398 49.1211 30.2398C48.7305 30.2398 48.3915 29.9082 48.3915 29.4144V29.3997C48.3915 28.8985 48.7231 28.5743 49.1211 28.5743C49.519 28.5743 49.8433 28.9059 49.8433 29.3997V29.4144ZM50.6834 30.9031V26.8276H49.8359V28.3016C49.6369 28.0584 49.3569 27.852 48.9073 27.852C48.1998 27.852 47.5439 28.3974 47.5439 29.3997V29.4144C47.5439 30.4093 48.2072 30.962 48.9073 30.962C49.3495 30.962 49.6296 30.7557 49.8359 30.4756V30.9031H50.6834Z" fill="#0D4D8B"/>
<path fill-rule="evenodd" clip-rule="evenodd" d="M53.6166 29.4289C53.6166 29.8711 53.3292 30.2396 52.8428 30.2396C52.3564 30.2396 52.0543 29.8564 52.0543 29.4142V29.3994C52.0543 28.9573 52.3417 28.5814 52.8281 28.5814C53.3145 28.5814 53.6166 28.9646 53.6166 29.4068V29.4215V29.4289ZM54.4494 29.4142V29.3994C54.4494 28.5372 53.764 27.8518 52.8354 27.8518C51.9069 27.8518 51.2141 28.5519 51.2141 29.4068V29.4215C51.2141 30.2838 51.8995 30.9692 52.8281 30.9692C53.7566 30.9692 54.4494 30.2691 54.4494 29.4142Z" fill="#0D4D8B"/>
<path fill-rule="evenodd" clip-rule="evenodd" d="M57.7288 30.9029V28.9646C57.7288 28.2793 57.353 27.8518 56.7118 27.8518C56.2844 27.8518 56.0338 28.0803 55.8348 28.3308V27.9034H54.9873V30.8955H55.8348V29.2299C55.8348 28.8246 56.0412 28.6183 56.3654 28.6183C56.6897 28.6183 56.8813 28.8246 56.8813 29.2299V30.8955H57.7288V30.9029Z" fill="#0D4D8B"/>
<path fill-rule="evenodd" clip-rule="evenodd" d="M60.3451 29.1788H59.0701C59.1365 28.7956 59.3649 28.545 59.7187 28.545C60.0724 28.545 60.3009 28.8029 60.3525 29.1788M61.1705 29.4957V29.4809C61.1705 28.6334 60.7136 27.8596 59.7113 27.8596C58.8417 27.8596 58.23 28.5597 58.23 29.4146V29.4294C58.23 30.3432 58.8933 30.977 59.7924 30.977C60.3303 30.977 60.7357 30.7633 61.0157 30.4169L60.5293 29.9895C60.2935 30.2032 60.0871 30.299 59.8071 30.299C59.4239 30.299 59.1586 30.1 59.0775 29.7168H61.1557C61.1557 29.6357 61.1705 29.5915 61.1705 29.5031" fill="#0D4D8B"/>
<path fill-rule="evenodd" clip-rule="evenodd" d="M63.9194 29.9965V29.9818C63.9194 29.4364 63.433 29.2375 63.0129 29.0974C62.6886 28.9869 62.4012 28.9058 62.4012 28.7437V28.729C62.4012 28.611 62.5044 28.5226 62.7108 28.5226C62.9245 28.5226 63.2266 28.6258 63.5214 28.8027L63.8457 28.2131C63.5214 27.9994 63.1087 27.8667 62.7329 27.8667C62.1285 27.8667 61.6421 28.2057 61.6421 28.8174V28.8321C61.6421 29.4143 62.1138 29.606 62.5339 29.7312C62.8655 29.8344 63.1529 29.8934 63.1529 30.0776V30.0923C63.1529 30.225 63.0424 30.3134 62.7992 30.3134C62.5191 30.3134 62.1801 30.1882 61.8559 29.9597L61.4948 30.5198C61.8927 30.8293 62.357 30.9693 62.7771 30.9693C63.4256 30.9693 63.9194 30.6672 63.9194 30.0039" fill="#0D4D8B"/>
<path fill-rule="evenodd" clip-rule="evenodd" d="M65.3343 27.9183H64.4868V30.9104H65.3343V27.9183ZM65.3565 26.835H64.4647V27.5867H65.3565V26.835Z" fill="#0D4D8B"/>
<path fill-rule="evenodd" clip-rule="evenodd" d="M67.818 29.8489C67.818 30.1584 67.5527 30.3721 67.1547 30.3721C66.882 30.3721 66.6904 30.2395 66.6904 30.011V29.9963C66.6904 29.731 66.9115 29.5836 67.28 29.5836C67.4863 29.5836 67.678 29.6278 67.8254 29.6941V29.8415L67.818 29.8489ZM68.6213 30.9027V29.1709C68.6213 28.3602 68.2159 27.8812 67.2874 27.8812C66.7789 27.8812 66.4546 27.977 66.1303 28.1244L66.344 28.7729C66.6167 28.6697 66.8452 28.6108 67.1695 28.6108C67.5969 28.6108 67.8106 28.8024 67.8106 29.1561V29.2077C67.5969 29.134 67.3832 29.0824 67.081 29.0824C66.3735 29.0824 65.8798 29.3846 65.8798 30.0331V30.0479C65.8798 30.6374 66.3441 30.9617 66.9041 30.9617C67.3168 30.9617 67.6043 30.8143 67.8106 30.5858V30.9101H68.6287L68.6213 30.9027Z" fill="#0D4D8B"/>
<path fill-rule="evenodd" clip-rule="evenodd" d="M73.8464 30.9031V26.9971H72.9915V28.5448H71.407V26.9971H70.5447V30.9031H71.407V29.3407H72.9915V30.9031H73.8464Z" fill="#8FC640"/>
<path fill-rule="evenodd" clip-rule="evenodd" d="M76.5806 29.1788H75.3056C75.3719 28.7956 75.6004 28.545 75.9541 28.545C76.3079 28.545 76.5363 28.8029 76.5879 29.1788M77.406 29.4957V29.4809C77.406 28.6334 76.949 27.8596 75.9468 27.8596C75.0771 27.8596 74.4655 28.5597 74.4655 29.4146V29.4294C74.4655 30.3432 75.1287 30.977 76.0278 30.977C76.5658 30.977 76.9712 30.7633 77.2512 30.4169L76.7648 29.9895C76.529 30.2032 76.3226 30.299 76.0426 30.299C75.6667 30.299 75.394 30.1 75.313 29.7168H77.3912C77.3912 29.6357 77.406 29.5915 77.406 29.5031" fill="#8FC640"/>
<path fill-rule="evenodd" clip-rule="evenodd" d="M79.7273 29.8489C79.7273 30.1584 79.462 30.3721 79.0641 30.3721C78.7914 30.3721 78.5998 30.2395 78.5998 30.011V29.9963C78.5998 29.731 78.8209 29.5836 79.1894 29.5836C79.3957 29.5836 79.5873 29.6278 79.7347 29.6941V29.8415L79.7273 29.8489ZM80.5306 30.9027V29.1709C80.5306 28.3602 80.1253 27.8812 79.1967 27.8812C78.6882 27.8812 78.3639 27.977 78.0323 28.1244L78.246 28.7729C78.5187 28.6697 78.7472 28.6108 79.0714 28.6108C79.4989 28.6108 79.7126 28.8024 79.7126 29.1561V29.2077C79.4989 29.134 79.2852 29.0824 78.983 29.0824C78.2755 29.0824 77.7817 29.3846 77.7817 30.0331V30.0479C77.7817 30.6374 78.246 30.9617 78.8061 30.9617C79.2188 30.9617 79.5062 30.8143 79.7126 30.5858V30.9101H80.5306V30.9027Z" fill="#8FC640"/>
<path d="M82.0709 26.835H81.2234V30.9104H82.0709V26.835Z" fill="#8FC640"/>
<path fill-rule="evenodd" clip-rule="evenodd" d="M84.466 30.7853V30.1072C84.3407 30.1736 84.2007 30.2104 84.046 30.2104C83.8543 30.2104 83.7733 30.1146 83.7733 29.923V28.648H84.4734V27.9258H83.7733V27.1594H82.9258V27.9258H82.572V28.648H82.9258V30.063C82.9258 30.7558 83.2795 30.9621 83.7954 30.9621C84.0828 30.9621 84.2892 30.8958 84.466 30.7926" fill="#8FC640"/>
<path fill-rule="evenodd" clip-rule="evenodd" d="M87.7603 30.9031V28.9648C87.7603 28.2795 87.3845 27.852 86.7433 27.852C86.3159 27.852 86.0653 28.0805 85.8663 28.3311V26.8276H85.0188V30.9031H85.8663V29.2375C85.8663 28.8322 86.0727 28.6258 86.3969 28.6258C86.7212 28.6258 86.9128 28.8322 86.9128 29.2375V30.9031H87.7603Z" fill="#8FC640"/>
<path fill-rule="evenodd" clip-rule="evenodd" d="M91.0545 30.4238L90.5607 29.9227C90.3544 30.1217 90.1554 30.2396 89.8753 30.2396C89.4111 30.2396 89.1163 29.8711 89.1163 29.4142V29.3994C89.1163 28.9573 89.4184 28.5814 89.8385 28.5814C90.1407 28.5814 90.3323 28.7067 90.5165 28.913L91.0398 28.3529C90.7597 28.0434 90.406 27.8518 89.8459 27.8518C88.932 27.8518 88.2761 28.5519 88.2761 29.4068V29.4215C88.2761 30.2764 88.932 30.9692 89.8311 30.9692C90.4281 30.9692 90.7597 30.7407 91.0545 30.4238Z" fill="#8FC640"/>
<path fill-rule="evenodd" clip-rule="evenodd" d="M93.295 29.8489C93.295 30.1584 93.0297 30.3721 92.6318 30.3721C92.3591 30.3721 92.1675 30.2395 92.1675 30.011V29.9963C92.1675 29.731 92.3886 29.5836 92.7497 29.5836C92.956 29.5836 93.1476 29.6278 93.2877 29.6941V29.8415L93.295 29.8489ZM94.0983 30.9027V29.1709C94.0983 28.3602 93.693 27.8812 92.7644 27.8812C92.2559 27.8812 91.9316 27.977 91.6074 28.1244L91.8211 28.7729C92.0938 28.6697 92.3222 28.6108 92.6465 28.6108C93.0739 28.6108 93.2877 28.8024 93.2877 29.1561V29.2077C93.0739 29.134 92.8602 29.0824 92.5581 29.0824C91.8506 29.0824 91.3494 29.3846 91.3494 30.0331V30.0479C91.3494 30.6374 91.8137 30.9617 92.3738 30.9617C92.7865 30.9617 93.0739 30.8143 93.2803 30.5858V30.9101H94.0983V30.9027Z" fill="#8FC640"/>
<path fill-rule="evenodd" clip-rule="evenodd" d="M96.5597 28.7436V27.8593C96.0585 27.8371 95.7785 28.1025 95.609 28.5152V27.9108H94.7615V30.9029H95.609V29.7975C95.609 29.0826 95.9554 28.7436 96.5155 28.7436H96.5597Z" fill="#8FC640"/>
<path fill-rule="evenodd" clip-rule="evenodd" d="M98.8885 29.1788H97.6136C97.6799 28.7956 97.9084 28.545 98.2621 28.545C98.6159 28.545 98.8443 28.8029 98.8959 29.1788M99.7139 29.4957V29.4809C99.7139 28.6334 99.257 27.8596 98.2548 27.8596C97.3851 27.8596 96.7734 28.5597 96.7734 29.4146V29.4294C96.7734 30.3432 97.4367 30.977 98.3358 30.977C98.8738 30.977 99.2791 30.7633 99.5592 30.4169L99.0728 29.9895C98.837 30.2032 98.6306 30.299 98.3506 30.299C97.9747 30.299 97.702 30.1 97.621 29.7168H99.6992C99.6992 29.6357 99.7139 29.5915 99.7139 29.5031" fill="#8FC640"/>
<path fill-rule="evenodd" clip-rule="evenodd" d="M46.0037 35.2954L45.4583 34.7427C45.1488 35.0227 44.8761 35.1996 44.434 35.1996C43.7633 35.1996 43.299 34.6395 43.299 33.9689V33.9541C43.299 33.2835 43.7707 32.7381 44.434 32.7381C44.8245 32.7381 45.1341 32.9076 45.4362 33.1803L45.9816 32.5465C45.6205 32.1928 45.1783 31.9422 44.4413 31.9422C43.2401 31.9422 42.4073 32.8487 42.4073 33.9615V33.9762C42.4073 35.0964 43.2622 35.9882 44.4118 35.9882C45.1635 35.9882 45.6131 35.7228 46.0111 35.288" fill="#0D4D8B"/>
<path fill-rule="evenodd" clip-rule="evenodd" d="M48.7157 34.4479C48.7157 34.8901 48.4283 35.2586 47.9419 35.2586C47.4555 35.2586 47.1533 34.8754 47.1533 34.4332V34.4184C47.1533 33.9763 47.4407 33.6078 47.9271 33.6078C48.4135 33.6078 48.7157 33.991 48.7157 34.4332V34.4479ZM49.5559 34.4405V34.4258C49.5559 33.5636 48.8705 32.8782 47.9419 32.8782C47.0133 32.8782 46.3206 33.5783 46.3206 34.4332V34.4479C46.3206 35.3102 47.0059 35.9956 47.9345 35.9956C48.8631 35.9956 49.5559 35.2954 49.5559 34.4405Z" fill="#0D4D8B"/>
<path fill-rule="evenodd" clip-rule="evenodd" d="M51.8921 33.77V32.8856C51.3909 32.8635 51.1109 33.1288 50.9414 33.5415V32.9372H50.0939V35.9293H50.9414V34.8238C50.9414 34.109 51.2878 33.77 51.8479 33.77H51.8921Z" fill="#0D4D8B"/>
<path fill-rule="evenodd" clip-rule="evenodd" d="M54.6336 34.4405C54.6336 34.9417 54.302 35.266 53.904 35.266C53.506 35.266 53.1818 34.9343 53.1818 34.4405V34.4258C53.1818 33.932 53.5134 33.6004 53.904 33.6004C54.2946 33.6004 54.6336 33.932 54.6336 34.4258V34.4405ZM55.4811 34.4405V34.4258C55.4811 33.4309 54.8178 32.8782 54.1177 32.8782C53.6755 32.8782 53.3955 33.0845 53.1891 33.3646V32.9371H52.3416V36.821H53.1891V35.5386C53.3881 35.7818 53.6682 35.9882 54.1177 35.9882C54.8252 35.9882 55.4811 35.4428 55.4811 34.4405Z" fill="#0D4D8B"/>
<path fill-rule="evenodd" clip-rule="evenodd" d="M58.2816 34.4479C58.2816 34.8901 57.9941 35.2586 57.5077 35.2586C57.0213 35.2586 56.7192 34.8754 56.7192 34.4332V34.4184C56.7192 33.9763 57.0066 33.6078 57.493 33.6078C57.9794 33.6078 58.2816 33.991 58.2816 34.4332V34.4479ZM59.1217 34.4405V34.4258C59.1217 33.5636 58.4363 32.8782 57.5077 32.8782C56.5792 32.8782 55.8864 33.5783 55.8864 34.4332V34.4479C55.8864 35.3102 56.5718 35.9956 57.5004 35.9956C58.429 35.9956 59.1217 35.2954 59.1217 34.4405Z" fill="#0D4D8B"/>
<path fill-rule="evenodd" clip-rule="evenodd" d="M61.4579 33.77V32.8856C60.9568 32.8635 60.6767 33.1288 60.5072 33.5415V32.9372H59.6597V35.9293H60.5072V34.8238C60.5072 34.109 60.8536 33.77 61.4137 33.77H61.4579Z" fill="#0D4D8B"/>
<path fill-rule="evenodd" clip-rule="evenodd" d="M63.5435 34.8754C63.5435 35.1849 63.2782 35.3987 62.8802 35.3987C62.6076 35.3987 62.416 35.266 62.416 35.0376V35.0228C62.416 34.7575 62.637 34.6101 63.0055 34.6101C63.2119 34.6101 63.4035 34.6543 63.5509 34.7207V34.868L63.5435 34.8754ZM64.3468 35.9293V34.1974C64.3468 33.3867 63.9415 32.9077 63.0129 32.9077C62.5044 32.9077 62.1801 33.0035 61.8559 33.1509L62.0696 33.7994C62.3423 33.6963 62.5707 33.6373 62.895 33.6373C63.3224 33.6373 63.5361 33.8363 63.5361 34.1827V34.2343C63.3224 34.1606 63.1087 34.109 62.8065 34.109C62.0991 34.109 61.6053 34.4111 61.6053 35.0597V35.0744C61.6053 35.664 62.0696 35.9882 62.6297 35.9882C63.0424 35.9882 63.3298 35.8408 63.5361 35.6124V35.9367H64.3542L64.3468 35.9293Z" fill="#0D4D8B"/>
<path fill-rule="evenodd" clip-rule="evenodd" d="M66.6461 35.804V35.126C66.5209 35.1923 66.3808 35.2292 66.2261 35.2292C66.0345 35.2292 65.9534 35.1333 65.9534 34.9417V33.6668H66.6535V32.9445H65.9534V32.1781H65.1059V32.9445H64.7521V33.6668H65.1059V35.0818C65.1059 35.7745 65.4596 35.9809 65.9755 35.9809C66.2629 35.9809 66.4693 35.9145 66.6461 35.8114" fill="#0D4D8B"/>
<path fill-rule="evenodd" clip-rule="evenodd" d="M68.0906 32.9371H67.2431V35.9292H68.0906V32.9371ZM68.1127 31.8538H67.221V32.6055H68.1127V31.8538Z" fill="#0D4D8B"/>
<path fill-rule="evenodd" clip-rule="evenodd" d="M71.0679 34.4479C71.0679 34.8901 70.7805 35.2586 70.2941 35.2586C69.8077 35.2586 69.5055 34.8754 69.5055 34.4332V34.4184C69.5055 33.9763 69.793 33.6078 70.2794 33.6078C70.7658 33.6078 71.0679 33.991 71.0679 34.4332V34.4479ZM71.9007 34.4405V34.4258C71.9007 33.5636 71.2153 32.8782 70.2867 32.8782C69.3582 32.8782 68.6654 33.5783 68.6654 34.4332V34.4479C68.6654 35.3102 69.3508 35.9956 70.2794 35.9956C71.2079 35.9956 71.9007 35.2954 71.9007 34.4405Z" fill="#0D4D8B"/>
<path fill-rule="evenodd" clip-rule="evenodd" d="M75.1729 35.9292V33.991C75.1729 33.3056 74.7971 32.8782 74.1559 32.8782C73.7285 32.8782 73.4779 33.1066 73.2789 33.3572V32.9298H72.4314V35.9219H73.2789V34.2563C73.2789 33.8583 73.4853 33.6446 73.8095 33.6446C74.1338 33.6446 74.3254 33.851 74.3254 34.2563V35.9219H75.1729V35.9292Z" fill="#0D4D8B"/>
</svg>
