<svg width="99" height="99" viewBox="0 0 99 99" fill="none" xmlns="http://www.w3.org/2000/svg">
<path d="M5.53348 74.3308H4.73018V75.7753H3.66895V70.9629H5.63665C6.78632 70.9629 7.47907 71.6409 7.47907 72.6284V72.6432C7.47907 73.756 6.60945 74.3308 5.53348 74.3308ZM6.4031 72.6505C6.4031 72.1789 6.07146 71.9209 5.54085 71.9209H4.72281V73.3949H5.56296C6.09357 73.3949 6.4031 73.078 6.4031 72.6653V72.6505Z" fill="#3F3100"/>
<path d="M10.4419 71.9352V75.7748H9.38063V71.9352H7.91406V70.9624H11.9011V71.9352H10.4345H10.4419Z" fill="#3F3100"/>
<path d="M17.9008 75.7748L16.4121 73.726L15.852 74.3009V75.7748H14.7908V70.9624H15.852V73.0628L17.805 70.9624H19.0799L17.1196 73.0038L19.1684 75.7748H17.8934H17.9008Z" fill="#3F3100"/>
<path d="M19.8165 75.7748V70.9624H23.4423V71.9057H20.8629V72.8785H23.1328V73.8218H20.8629V74.8315H23.4718V75.7748H19.8091H19.8165Z" fill="#3F3100"/>
<path d="M24.4226 75.7748V70.9624H25.4838V74.8094H27.8864V75.7748H24.43H24.4226Z" fill="#3F3100"/>
<path d="M30.7447 75.8559C29.2561 75.8559 28.1948 74.7505 28.1948 73.3797V73.365C28.1948 71.9942 29.2708 70.874 30.7595 70.874C32.2482 70.874 33.3094 71.9795 33.3094 73.3502V73.365C33.3094 74.7357 32.2334 75.8559 30.7447 75.8559ZM32.2039 73.365C32.2039 72.5396 31.5996 71.8542 30.7447 71.8542C29.8899 71.8542 29.3003 72.5322 29.3003 73.3502V73.365C29.3003 74.1904 29.9046 74.8758 30.7595 74.8758C31.6144 74.8758 32.2039 74.2051 32.2039 73.3797V73.365Z" fill="#3F3100"/>
<path d="M34.2534 75.7748V70.9624H35.3147V74.8094H37.7172V75.7748H34.2608H34.2534Z" fill="#3F3100"/>
<path d="M42.095 75.775L41.6528 74.6991H39.6187L39.1766 75.775H38.1006L40.1641 70.9258H41.1369L43.2004 75.775H42.095ZM40.6358 72.2007L39.9946 73.7631H41.2769L40.6358 72.2007Z" fill="#3F3100"/>
<path d="M49.1256 75.7748L47.637 73.726L47.0769 74.3009V75.7748H46.0156V70.9624H47.0769V73.0628L49.0298 70.9624H50.3048L48.3444 73.0038L50.3932 75.7748H49.1183H49.1256Z" fill="#3F3100"/>
<path d="M52.943 75.8488C51.6533 75.8488 50.8574 75.1266 50.8574 73.7116V70.9627H51.9187V73.6821C51.9187 74.4633 52.3092 74.8686 52.9578 74.8686C53.6063 74.8686 53.9969 74.478 53.9969 73.7116V70.9553H55.0581V73.6674C55.0581 75.1266 54.2401 75.8414 52.9504 75.8414L52.943 75.8488Z" fill="#3F3100"/>
<path d="M59.0598 75.7748L58.028 74.2345H57.1953V75.7748H56.134V70.9624H58.3376C59.4725 70.9624 60.1505 71.5593 60.1505 72.5469V72.5616C60.1505 73.3354 59.7304 73.8292 59.1188 74.0503L60.2905 75.7674H59.0524L59.0598 75.7748ZM59.0819 72.6058C59.0819 72.1563 58.765 71.9205 58.2491 71.9205H57.1953V73.2986H58.2712C58.7871 73.2986 59.0819 73.0259 59.0819 72.6206V72.6058Z" fill="#3F3100"/>
<path d="M64.4915 75.7748L62.1627 72.7164V75.7748H61.1162V70.9624H62.089L64.3441 73.925V70.9624H65.3906V75.7748H64.4915Z" fill="#3F3100"/>
<path d="M66.5994 75.7748V70.9624H67.6606V75.7748H66.5994Z" fill="#3F3100"/>
<path d="M72.4431 75.775L72.0009 74.6991H69.9669L69.5247 75.775H68.4487L70.5122 70.9258H71.485L73.5486 75.775H72.4431ZM70.9839 72.2007L70.3427 73.7631H71.6251L70.9839 72.2007Z" fill="#3F3100"/>
<path d="M79.9458 75.775L79.5036 74.6991H77.4696L77.0274 75.775H75.9514L78.0149 70.9258H78.9877L81.0512 75.775H79.9458ZM78.4866 72.2007L77.8454 73.7631H79.1277L78.4866 72.2007Z" fill="#3F3100"/>
<path d="M81.7949 75.7748V70.9624H82.8562V74.8094H85.2587V75.7748H81.8023H81.7949Z" fill="#3F3100"/>
<path d="M89.6372 75.775L89.195 74.6991H87.161L86.7188 75.775H85.6428L87.7063 70.9258H88.6791L90.7427 75.775H89.6372ZM88.178 72.2007L87.5368 73.7631H88.8192L88.178 72.2007Z" fill="#3F3100"/>
<path d="M95.2522 75.7748V72.6353L93.8962 74.6915H93.8667L92.5255 72.6574V75.7748H91.4863V70.9624H92.6286L93.8962 72.9964L95.1638 70.9624H96.3061V75.7748H95.2522Z" fill="#3F3100"/>
<path d="M32.5729 32.2649C32.5729 27.681 36.2872 23.9667 40.8712 23.9667H49.9875V19.9502H40.4143C33.8626 19.9502 28.5491 25.2637 28.5491 31.8154V41.3886H32.5656V32.2723L32.5729 32.2649Z" fill="#3F3100"/>
<path d="M45.9719 29.0589C45.9719 33.6428 42.2576 37.3571 37.6737 37.3571H28.5574V41.3736H38.1306C44.6822 41.3736 49.9958 36.0601 49.9958 29.5084V19.9352H45.9793V29.0515L45.9719 29.0589Z" fill="#388B05"/>
<path d="M37.6727 45.3979C42.2567 45.3979 45.971 49.1122 45.971 53.6961V62.8124H49.9875V53.2392C49.9875 46.6876 44.6739 41.374 38.1223 41.374H28.5491V45.3905H37.6654L37.6727 45.3979Z" fill="#008DD9"/>
<path d="M40.8714 58.7956C36.2874 58.7956 32.5731 55.0812 32.5731 50.4973V40.7472H28.5566V50.9468C28.5566 57.4985 33.8702 62.812 40.4218 62.812H50.651V58.7956H40.8788H40.8714Z" fill="#388B05"/>
<path d="M67.4026 32.2647C67.4026 27.6808 63.6883 23.9664 59.1043 23.9664H49.988V19.95H59.5613C66.1129 19.95 71.4265 25.2635 71.4265 31.8151V41.3884H67.41V32.2721L67.4026 32.2647Z" fill="#3F3100"/>
<path d="M54.0116 29.0589C54.0116 33.6428 57.7259 37.3571 62.3099 37.3571H71.4262V41.3736H61.853C55.3013 41.3736 49.9878 36.0601 49.9878 29.5084L49.5161 19.9352H54.0043V29.0515L54.0116 29.0589Z" fill="#388B05"/>
<path d="M62.3101 45.3979C57.7262 45.3979 54.0118 49.1122 54.0118 53.6961V62.8124H49.9954V53.2392C49.9954 46.6876 55.3089 41.374 61.8606 41.374H71.4338V45.3905H62.3175L62.3101 45.3979Z" fill="#008DD9"/>
<path d="M59.1039 58.7957C63.6879 58.7957 67.4022 55.0814 67.4022 50.4974V40.821H71.4187V50.9544C71.4187 57.506 66.1051 62.8196 59.5535 62.8196H49.656V58.8031H59.1039V58.7957Z" fill="#388B05"/>
</svg>
