<svg width="182" height="45" viewBox="0 0 182 45" fill="none" xmlns="http://www.w3.org/2000/svg">
<g clip-path="url(#clip0_277_2766)">
<path fill-rule="evenodd" clip-rule="evenodd" d="M24.1648 26.3426L9.04368 0H0V45H8.92102V17.7487L24.5551 45H33.5988V0H24.6778V27.2513L24.1648 26.3426Z" fill="#333333"/>
<path d="M48.1735 0H39.2525V45H48.1735V0Z" fill="#333333"/>
<path fill-rule="evenodd" clip-rule="evenodd" d="M77.9809 26.3426L62.8709 0H53.8272V45H62.7483V17.7487L78.3823 45H87.426V0H78.505V27.2513L77.9809 26.3426Z" fill="#333333"/>
<path fill-rule="evenodd" clip-rule="evenodd" d="M102.279 0H93.0797V45H126.678V36.0247H102.001V26.9933H126.678V18.0067H102.001V8.97532H126.678V0H102.279Z" fill="#333333"/>
<path fill-rule="evenodd" clip-rule="evenodd" d="M171.596 1.2902C169.611 0.459985 167.448 0 165.173 0C162.898 0 160.735 0.459985 158.75 1.2902C156.687 2.15408 154.836 3.41062 153.285 4.97008C151.735 6.52954 150.475 8.40314 149.628 10.4675C148.803 12.4533 148.345 14.641 148.345 16.9297V28.0703C148.345 30.359 148.803 32.5355 149.628 34.5325C150.486 36.6081 151.735 38.4705 153.285 40.0299C154.836 41.5894 156.698 42.8571 158.75 43.7098C160.735 44.54 162.898 45 165.173 45C167.448 45 169.611 44.54 171.596 43.7098C173.659 42.8459 175.51 41.5894 177.06 40.0299C178.61 38.4705 179.87 36.5969 180.718 34.5325C181.543 32.5355 182 30.359 182 28.0703V16.9297C182 14.641 181.543 12.4645 180.718 10.4675C179.859 8.39192 178.61 6.52954 177.06 4.97008C175.51 3.41062 173.648 2.14286 171.596 1.2902ZM172.8 18.018H157.266V16.9409C157.266 15.8751 157.478 14.8429 157.869 13.9117C158.27 12.9357 158.861 12.0606 159.597 11.3313C160.333 10.5909 161.203 9.99626 162.162 9.59237C163.087 9.1997 164.113 8.98654 165.173 8.98654C166.232 8.98654 167.258 9.1997 168.184 9.59237C169.154 9.99626 170.024 10.5909 170.748 11.3313C171.484 12.0718 172.064 12.9469 172.477 13.9117C172.867 14.8429 173.079 15.8751 173.079 16.9409V18.018H172.8ZM157.545 26.9933H173.079V28.0703C173.079 29.1361 172.867 30.1683 172.477 31.0995C172.075 32.0755 171.484 32.9506 170.748 33.6799C170.012 34.4091 169.143 35.0037 168.184 35.4188C167.258 35.8115 166.232 36.0247 165.173 36.0247C164.113 36.0247 163.087 35.8115 162.162 35.4188C161.192 35.015 160.322 34.4203 159.597 33.6799C158.861 32.9506 158.281 32.0643 157.869 31.0995C157.478 30.1683 157.266 29.1361 157.266 28.0703V26.9933H157.545Z" fill="#333333"/>
<path fill-rule="evenodd" clip-rule="evenodd" d="M140.004 22.6515L137.506 18.3097L132.533 26.9933H142.491L140.004 22.6515Z" fill="#FF5E00"/>
</g>
<defs>
<clipPath id="clip0_277_2766">
<rect width="182" height="45" fill="white"/>
</clipPath>
</defs>
</svg>
