<svg width="100" height="99" viewBox="0 0 100 99" fill="none" xmlns="http://www.w3.org/2000/svg">
<path d="M51.6458 39.0225V43.6581H54.5494V44.6309H50.5771V39.0225H51.6458Z" fill="#231F20"/>
<path d="M60.2536 44.6309H56.016V39.0225H60.2536V40.0469H57.0772V41.3366H60.1356V42.3241H57.0772V43.5917H60.2536V44.6309Z" fill="#231F20"/>
<path d="M66.7315 40.5704L64.8891 43.0024H64.6754L62.8772 40.563V44.6458H61.8086V39.0301H63.0393L64.8081 41.4473L66.5768 39.0301H67.8001V44.6458H66.7315V40.5704Z" fill="#231F20"/>
<path d="M74.1307 40.6434C74.1307 41.0782 73.9243 41.4909 73.3937 41.7268C74.057 41.9257 74.2928 42.6259 74.2928 42.9722C74.2928 44.2251 73.3495 44.6304 72.1777 44.6304H69.4951V39.0147H72.1777C73.2905 39.0147 74.1233 39.5085 74.1233 40.636M70.549 41.2698H72.1851C72.8557 41.2698 73.0768 40.9898 73.0768 40.6729C73.0768 40.415 72.8704 39.9801 72.1851 39.9801H70.549V41.2698ZM70.549 43.6502H72.1851C72.6272 43.6502 73.2463 43.5029 73.2463 42.9722C73.2463 42.4416 72.6272 42.2058 72.1851 42.2058H70.549V43.6502Z" fill="#231F20"/>
<path d="M79.7907 43.577H76.8355L76.3491 44.6309H75.192L77.7346 39.0225H78.899L81.4341 44.6309H80.2771L79.7981 43.577H79.7907ZM78.3168 40.2017L77.2629 42.5895H79.3633L78.3168 40.2017Z" fill="#231F20"/>
<path d="M86.755 40.3933C86.3791 40.0322 85.8117 39.8332 85.3179 39.8332C84.1093 39.8332 83.3723 40.747 83.3723 41.9041C83.3723 42.8179 83.9103 43.776 85.3179 43.776C85.7675 43.776 86.158 43.6802 86.6002 43.3264V42.3315H85.1484V41.3808H87.573V43.7465C87.0203 44.3803 86.3128 44.7561 85.3179 44.7561C83.1954 44.7561 82.3258 43.3706 82.3258 41.8967C82.3258 40.3196 83.3207 38.853 85.3179 38.853C86.077 38.853 86.8361 39.1478 87.4183 39.7079L86.755 40.3859V40.3933Z" fill="#231F20"/>
<path d="M93.1887 43.577H90.2334L89.747 44.6309H88.59L91.1251 39.0225H92.2896L94.8247 44.6309H93.6603L93.1813 43.577H93.1887ZM91.7147 40.2017L90.6682 42.5895H92.7686L91.7147 40.2017Z" fill="#231F20"/>
<path d="M53.245 50.6002H51.6458V52.251H50.5771V46.6427C51.4689 46.6427 52.3532 46.6353 53.245 46.6353C56.0086 46.6353 56.016 50.6076 53.245 50.6076M51.6458 49.6274H53.245C54.6084 49.6274 54.601 47.645 53.245 47.645H51.6458V49.6274Z" fill="#231F20"/>
<path d="M60.9905 52.2436H56.7529V46.6353H60.9905V47.6597H57.8142V48.9568H60.8726V49.9369H57.8142V51.2045H60.9905V52.2436Z" fill="#231F20"/>
<path d="M66.2525 46.628H67.3211V52.2437H66.6579V52.2511L63.6879 48.463V52.2437H62.6193V46.6354H63.4889L66.2525 50.1139V46.628Z" fill="#231F20"/>
<path d="M73.7696 49.8485C73.7696 51.3004 72.841 52.3542 71.2786 52.3542C69.8342 52.3542 68.795 51.4994 68.795 49.9075H69.8415C69.8415 50.8729 70.3132 51.3593 71.2713 51.3593C72.2293 51.3593 72.6936 50.6887 72.6936 49.8412V47.6155H70.9912V46.628H73.7622V49.8412L73.7696 49.8485Z" fill="#231F20"/>
<path d="M79.518 51.1898H76.5627L76.0764 52.2436H74.9193L77.4545 46.6353H78.6189L81.1541 52.2436H79.9897L79.5106 51.1898H79.518ZM78.0367 47.8145L76.9902 50.2096H79.0906L78.0441 47.8145H78.0367Z" fill="#231F20"/>
<path d="M87.2119 48.1827L85.3695 50.6221H85.1557L83.3575 48.1754V52.2582H82.2889V46.6425H83.5123L85.2884 49.0597L87.0571 46.6425H88.2805V52.2582H87.2119V48.1827Z" fill="#231F20"/>
<path d="M91.0734 46.6353H90.0122V52.2436H91.0734V46.6353Z" fill="#231F20"/>
<path d="M96.5198 46.628H97.5884V52.2437H96.9251V52.2511L93.9478 48.463V52.2437H92.8792V46.6354H93.7488L96.5198 50.1139V46.628Z" fill="#231F20"/>
<path d="M54.0704 55.6041C53.8788 55.2872 53.3408 54.9851 52.7291 54.9851C51.9332 54.9851 51.5573 55.3167 51.5573 55.7294C51.5573 56.2158 52.1395 56.3485 52.8249 56.4369C54.0041 56.5843 55.1021 56.8865 55.1021 58.2278C55.1021 59.4806 53.9893 60.0186 52.7291 60.0186C51.5721 60.0186 50.6877 59.6648 50.2603 58.6405L51.152 58.1835C51.4026 58.7952 52.0585 59.0753 52.7438 59.0753C53.4292 59.0753 54.0483 58.8394 54.0483 58.2351C54.0483 57.7045 53.4882 57.4908 52.7365 57.4097C51.5794 57.2771 50.5108 56.9675 50.5108 55.7147C50.5108 54.565 51.6605 54.086 52.6996 54.0786C53.584 54.0786 54.4905 54.3292 54.9179 55.1914L54.0704 55.6263V55.6041Z" fill="#231F20"/>
<path d="M57.711 54.2482H56.6498V59.8565H57.711V54.2482Z" fill="#231F20"/>
<path d="M64.3731 55.7958L62.5307 58.2351H62.317L60.5188 55.7884V59.8712H59.4502V54.2555H60.6736L62.4497 56.6727L64.2184 54.2555H65.4418V59.8712H64.3731V55.7958Z" fill="#231F20"/>
<path d="M69.8341 58.2129H68.2349V59.8637H67.1663V54.2553C68.058 54.2553 68.9497 54.2406 69.8341 54.2406C72.5977 54.2406 72.6051 58.2129 69.8341 58.2129ZM68.2349 57.2401H69.8341C71.2049 57.2401 71.1901 55.2502 69.8341 55.2502H68.2349V57.2401Z" fill="#231F20"/>
<path d="M77.3732 58.8026H74.418L73.9316 59.8638H72.7745L75.3097 54.2555H76.4741L79.0093 59.8638H77.8449L77.3659 58.8026H77.3732ZM75.8919 55.4273L74.8454 57.815H76.9458L75.8919 55.4273Z" fill="#231F20"/>
<path d="M83.8587 54.2406H84.9273V59.8563H84.2641V59.8637L81.2867 56.083V59.8563H80.2255V54.2553H81.0877L83.8587 57.7265V54.2406Z" fill="#231F20"/>
<path d="M90.6462 58.8026H87.6909L87.2045 59.8638H86.0475L88.5827 54.2555H89.7471L92.2822 59.8638H91.1178L90.6388 58.8026H90.6462ZM89.1649 55.4273L88.111 57.815H90.2114L89.1575 55.4273H89.1649Z" fill="#231F20"/>
<path d="M97.1315 54.2406H98.1927V59.8563H97.5294V59.8637L94.5521 56.083V59.8563H93.4908V54.2553H94.3531L97.1315 57.7265V54.2406Z" fill="#231F20"/>
<path d="M98.399 64.1311H50.2013V64.5807H98.399V64.1311Z" fill="#231F20"/>
<path d="M98.399 34.5196H50.2013V34.9691H98.399V34.5196Z" fill="#231F20"/>
<path d="M30.0747 57.2697L32.5583 52.988C32.6541 53.0838 35.005 55.2062 37.7318 55.2062C38.8225 55.2062 40.0017 55.2062 40.0017 53.9165C40.0017 52.1699 35.4325 51.6614 32.5583 49.3915C32.5509 49.4063 32.5141 49.4874 32.2783 49.9664C31.1065 52.111 28.9472 53.467 26.1835 53.467H22.4987V60.0923H17.2072C17.2072 59.9376 17.2146 59.7828 17.2294 59.628V57.7414L17.2072 57.7856L15.8586 60.0923H7.65613L12.0116 67.5652C12.5349 68.4643 13.5077 69.0244 14.5542 69.0244H33.9806C35.0271 69.0244 35.9999 68.4717 36.5232 67.5652L41.2545 59.4438C40.2375 59.827 39.0436 60.0334 37.6802 60.0334C33.5679 60.0334 30.937 58.0288 30.0895 57.2624" fill="#DA8824"/>
<path d="M5.65894 46.3259C5.65894 46.3259 9.29957 39.4353 9.57225 39.052C9.84493 38.6688 10.125 38.6614 10.125 38.6614V55.597H17.1999V49.3843C17.1999 48.3084 17.4873 47.2471 18.0253 46.3112C18.0253 46.3112 21.7838 39.3247 21.9386 39.0373C22.0933 38.7573 22.4839 38.6541 22.4839 38.6541H26.1762C29.1093 38.6541 31.3792 40.1501 32.4846 42.5158C32.4846 42.5158 32.6467 43.0243 32.7647 43.577L32.8384 43.4444C33.8922 41.6314 34.784 39.9069 35.2261 39.1405C35.344 38.9341 35.5578 38.7941 35.6904 38.7573C36.3168 38.5951 36.9359 38.5656 37.6287 38.5656C38.8962 38.5656 40.0164 38.713 40.9745 38.9341L40.8271 38.6836L36.5158 31.277C35.9926 30.3779 35.0198 29.8252 33.9733 29.8252H14.5468C13.4929 29.8252 12.5275 30.3779 12.0042 31.277L2.291 47.962C1.76775 48.8611 1.76775 49.9739 2.291 50.873L4.84091 55.2432V49.3843C4.84091 48.3084 5.12833 47.2471 5.66631 46.3112" fill="#DA8824"/>
<path d="M25.1811 43.1566H22.4912V48.9713H25.0927C26.9425 48.9713 27.8416 47.7406 27.8416 46.0308C27.8416 44.321 26.9351 43.1566 25.1811 43.1566Z" fill="#DA8824"/>
<path d="M46.2363 47.9693L43.2811 42.8916L42.2199 44.7045C41.4682 44.1666 39.7805 43.1274 37.8496 43.1274C36.7589 43.1274 35.5503 43.6065 35.5503 44.8077C35.5503 47.3503 44.1728 47.0702 45.1898 52.6785L46.2363 50.8877C46.7596 49.9812 46.7596 48.8758 46.2363 47.9693Z" fill="#DA8824"/>
<path d="M35.5504 44.8078C35.5504 43.6066 36.759 43.1275 37.8497 43.1275C39.7732 43.1275 41.4682 44.1593 42.2199 44.6973L43.2738 42.8843L42.7505 41.9926L40.9744 38.9415C40.0164 38.7205 38.8962 38.5731 37.6286 38.5731C36.9285 38.5731 36.3168 38.6025 35.6904 38.7647C35.5651 38.7941 35.3514 38.9342 35.2261 39.1479C34.7765 39.9143 33.8922 41.6388 32.8383 43.4518L32.7646 43.5844C32.6467 43.0317 32.4846 42.5232 32.4846 42.5232C31.3865 40.1575 29.1166 38.6615 26.1835 38.6615H22.4913C22.4913 38.6615 22.1007 38.7573 21.9459 39.0447C21.7911 39.3248 18.04 46.3186 18.04 46.3186C17.4946 47.2545 17.2072 48.3158 17.2072 49.3918V55.6044H10.1323V38.6689C10.1323 38.6689 9.85225 38.6689 9.57957 39.0595C9.3069 39.4427 5.66627 46.3333 5.66627 46.3333C5.12091 47.2693 4.8335 48.3232 4.8335 49.4065V55.2654L5.72523 56.7983L7.61187 60.0336L7.64872 60.0999H15.8512L17.1998 57.7858L17.2219 57.749V59.6283C17.2072 59.783 17.1998 59.9378 17.1998 60.0925H22.4913V53.4672H26.1835C28.9397 53.4672 31.1064 52.1112 32.2782 49.974C32.514 49.4876 32.5509 49.4065 32.5656 49.3918C35.4398 51.6616 40.009 52.1701 40.009 53.9168C40.009 55.2064 38.8299 55.2064 37.7392 55.2064C35.0197 55.2064 32.6688 53.0766 32.573 52.9808L30.0894 57.2552C30.9369 58.0143 33.5605 60.0262 37.6802 60.0262C39.0436 60.0262 40.2375 59.8125 41.2545 59.4366L41.4461 59.1124L44.3719 54.0789L45.1973 52.6713C44.1803 47.0629 35.5577 47.3356 35.5577 44.8004M25.0854 48.9717H22.4839V43.157H25.1738C26.9278 43.157 27.8343 44.3288 27.8343 46.0312C27.8343 47.7336 26.9278 48.9717 25.0854 48.9717Z" fill="white"/>
</svg>
