<svg width="99" height="99" viewBox="0 0 99 99" fill="none" xmlns="http://www.w3.org/2000/svg">
<g clip-path="url(#clip0_319_3)">
<path d="M29.8103 30.7683C29.8472 30.7167 29.884 30.6725 29.943 30.6136C29.9799 30.5841 30.002 30.562 30.0167 30.5399C30.4515 30.2451 30.8716 29.9282 31.3211 29.6629C33.392 28.4174 35.4776 27.1793 37.5485 25.9338C37.9686 25.6832 38.3887 25.4253 38.8161 25.1821C39.2435 24.9315 39.7152 24.7841 40.2163 24.7031C40.3785 24.6883 40.5259 24.6883 40.6954 24.7031C40.7175 24.7325 40.7175 24.7547 40.7175 24.7915C40.7175 27.8057 40.7175 30.7978 40.7175 33.7678C40.8207 33.8046 40.887 33.8341 40.9386 33.8636C40.1942 33.8341 39.5015 33.9741 38.8603 34.3353C38.5287 34.5195 38.2118 34.7185 37.8875 34.9101C37.1579 35.3449 36.4283 35.7723 35.684 36.2072C35.6177 36.185 35.5661 36.1703 35.5219 36.1335C35.1755 35.8608 34.8291 35.5807 34.4827 35.3081C33.8858 34.8364 33.2815 34.3647 32.6772 33.8931C32.0581 33.414 31.4096 32.9645 30.8274 32.4412C30.3262 31.9917 29.884 31.4758 29.9872 30.7094C29.9209 30.7315 29.8619 30.7536 29.803 30.7757L29.8103 30.7683Z" fill="#1D95E6"/>
<path d="M57.4983 24.6958C57.5794 24.6958 57.6604 24.6958 57.7636 24.718C57.7783 27.7616 57.7857 30.7906 57.7636 33.8195C57.3214 33.8637 56.8866 33.8858 56.496 34.0996C56.4223 34.1438 56.3486 34.2027 56.2676 34.2617C56.2454 34.2691 56.2233 34.2764 56.1939 34.2764C56.0759 34.2617 55.9949 34.2838 55.9801 34.4165C55.9507 34.4312 55.9359 34.4386 55.9138 34.4386C55.8917 34.4386 55.8843 34.4533 55.8843 34.4681C55.8843 34.4681 55.877 34.4681 55.8622 34.4681C55.7812 34.5196 55.7075 34.5712 55.6338 34.6228C55.6338 34.6228 55.6338 34.6228 55.6117 34.6228C55.5306 34.667 55.4643 34.7113 55.4053 34.7555C55.4053 34.7555 55.4053 34.7555 55.3906 34.7555C55.3316 34.7923 55.2874 34.8292 55.2358 34.866C55.2358 34.866 55.2358 34.866 55.2137 34.866C55.1253 34.9176 55.0589 34.9692 54.9852 35.0208C54.9852 35.0208 54.9852 35.0208 54.9705 35.0208C54.9558 35.0208 54.9484 35.0355 54.9336 35.0503C53.924 35.6841 52.9291 36.3178 51.9268 36.9295C51.2783 37.3201 50.5782 37.556 49.7896 37.5781C49.6938 37.5707 49.6127 37.5633 49.5243 37.556V28.4765C49.598 28.4618 49.6496 28.447 49.7233 28.4249C49.7822 28.4249 49.8338 28.4249 49.878 28.4249H49.9001C49.9001 28.4249 49.9149 28.4102 49.9296 28.4102C50.7256 28.3144 51.4478 28.0564 52.1184 27.6364C53.1354 26.9952 54.1598 26.354 55.1842 25.7202C55.6927 25.4033 56.1791 25.0422 56.7613 24.8727C57.0045 24.8064 57.2477 24.7474 57.4909 24.6885L57.4983 24.6958Z" fill="#1D95E6"/>
<path d="M57.7858 33.8122C57.7858 30.7832 57.7858 27.7616 57.7858 24.7106C57.9774 24.6885 58.169 24.6885 58.3753 24.6885C58.5006 24.7327 58.6038 24.7769 58.707 24.8359C58.6112 24.8506 58.5154 24.8506 58.4196 24.8432C58.3311 24.8432 58.2427 24.8432 58.1616 24.8211C57.9332 24.7401 57.8668 24.7843 57.8668 25.0127C57.8668 27.9385 57.8668 30.8716 57.8521 33.7974C57.8226 33.7974 57.8005 33.7974 57.7858 33.7974V33.8122Z" fill="#32B3F8"/>
<path d="M41.1081 24.6958C41.4619 24.799 41.8083 24.8727 42.1325 25.0054C42.4347 25.1307 42.7074 25.3149 42.9874 25.4844C42.9063 25.4844 42.8253 25.4844 42.7663 25.4549C42.5305 25.3296 42.3094 25.197 42.0809 25.0643C41.6609 24.8285 41.1966 24.7622 40.7249 24.7695C40.7249 24.7548 40.7249 24.7327 40.7249 24.7032C40.8502 24.6885 40.9681 24.6885 41.1081 24.6885V24.6958Z" fill="#35B3F5"/>
<path d="M29.8104 30.7684C29.8694 30.7463 29.9283 30.7242 29.9946 30.7021C29.8915 31.4685 30.341 31.9918 30.8348 32.434C31.417 32.9572 32.0655 33.3994 32.6846 33.8858C33.2889 34.3575 33.8858 34.8291 34.4902 35.3008C34.8365 35.5735 35.1829 35.8535 35.5293 36.1262C35.5735 36.1557 35.6251 36.1704 35.684 36.2146C35.7356 36.2809 35.7725 36.3399 35.8241 36.3767C36.6863 37.0621 37.5486 37.7401 38.4108 38.4181C39.9437 39.6268 41.4766 40.8428 43.0095 42.0514C44.1297 42.9358 45.2573 43.8201 46.3701 44.7119C47.1071 45.3014 47.9472 45.6478 48.8758 45.7952C49.0821 45.8321 49.2959 45.8173 49.5096 45.8394C49.5096 48.3599 49.5096 50.8655 49.5096 53.3712C49.5096 53.7987 49.5096 54.2188 49.5096 54.6462C49.5096 54.9262 49.5096 54.9189 49.2222 54.9262C49.1264 54.9262 49.0379 54.941 48.9421 54.9557C48.2862 54.9041 47.6524 54.7346 47.1071 54.3735C46.4733 53.9608 45.8837 53.4965 45.2867 53.0322C43.6433 51.7499 42.0072 50.4602 40.3712 49.1632C38.6393 47.7998 36.9148 46.4216 35.1829 45.0582C33.6353 43.8349 32.095 42.6115 30.54 41.4029C29.9652 40.9533 29.4493 40.4669 29.2208 39.7594C29.125 39.4646 29.044 39.1551 29.044 38.853C29.0292 36.7894 29.0292 34.7186 29.044 32.6551C29.044 31.9844 29.2872 31.3875 29.7367 30.8642C29.7809 30.8274 29.7957 30.8053 29.8178 30.7758L29.8104 30.7684Z" fill="#1BB3F5"/>
<path d="M48.9642 54.9557C49.0379 54.941 49.1337 54.9263 49.2222 54.9263C49.5096 54.9263 49.5096 54.9263 49.5096 54.6462C49.5096 54.2188 49.5096 53.7987 49.5096 53.3713C49.5096 50.8656 49.5096 48.3672 49.5243 45.8394C50.6961 45.7952 51.7131 45.4046 52.6122 44.6824C53.5039 43.9675 54.3957 43.2674 55.2948 42.5599C57.7047 40.6585 60.1146 38.7572 62.5244 36.8558C62.7308 36.6937 62.9298 36.5241 63.1288 36.362C63.0698 36.3031 63.033 36.2588 63.0108 36.2146C63.2614 36.3031 63.453 36.2294 63.6152 36.0451C63.6815 35.9641 63.7773 35.9051 63.8584 35.8388C64.5143 35.3229 65.1775 34.807 65.8334 34.2911C66.1798 34.0185 66.5262 33.7384 66.8726 33.4657C67.44 33.0235 68.0222 32.6035 68.4423 32.0065C68.6265 31.7412 68.8329 31.4759 68.8403 31.1295C68.8403 30.9306 68.8403 30.7316 68.8403 30.5326C69.2824 30.8716 69.5772 31.3212 69.7246 31.8518C69.8204 32.1834 69.8868 32.5371 69.8868 32.8835C69.9015 34.8144 69.8868 36.7452 69.8941 38.6761C69.8941 39.6857 69.5109 40.5185 68.7223 41.1449C67.0052 42.5083 65.2881 43.8644 63.5636 45.2277C61.8538 46.5764 60.144 47.9324 58.4343 49.2811C56.5255 50.7845 54.6094 52.2805 52.7154 53.7987C51.9489 54.4104 51.1088 54.8452 50.136 54.9631C49.7528 55.0073 49.3622 54.9778 48.9568 54.9778L48.9642 54.9557Z" fill="#1D95E6"/>
<path d="M15.1005 69.6362V70.5574H12.5948C12.5948 70.4764 12.5948 70.4027 12.5948 70.3363C12.5948 68.6561 12.6096 66.9758 12.5801 65.2881C12.5801 64.7943 12.499 64.2932 12.3885 63.8068C12.1821 62.9446 11.4378 62.5982 10.5829 62.775C9.69117 62.9593 9.07949 63.6447 8.94683 64.6101C8.87313 65.1407 8.84366 65.6861 8.83629 66.2241C8.82155 67.5948 8.83629 68.9656 8.83629 70.3363C8.83629 70.41 8.83629 70.4837 8.83629 70.5574H6.33059C6.33059 70.4616 6.33059 70.3658 6.33059 70.27C6.33059 68.5529 6.33059 66.8357 6.30848 65.126C6.30848 64.6543 6.24953 64.1827 6.07265 63.7405C5.68943 62.7382 4.724 62.5613 3.96492 62.8635C3.12478 63.2025 2.74156 63.8952 2.63101 64.7428C2.55731 65.2734 2.54257 65.8187 2.5352 66.3567C2.52047 67.6759 2.5352 68.9877 2.5352 70.3069C2.5352 70.3879 2.5352 70.469 2.5352 70.5574H0.0442505V60.7263H2.5352V61.7654C2.83736 61.5296 3.10267 61.279 3.40483 61.0874C4.45869 60.4389 5.58625 60.2694 6.77277 60.6747C7.41394 60.8958 7.90034 61.3306 8.26882 61.8907C8.32778 61.9865 8.38673 62.0823 8.45306 62.1928C8.6152 62.0012 8.76259 61.817 8.92472 61.6475C9.927 60.6305 11.143 60.2841 12.5359 60.542C13.516 60.7189 14.2604 61.2422 14.7173 62.1413C14.9605 62.6277 15.0416 63.1583 15.0637 63.6889C15.1005 64.787 15.1005 65.8924 15.1079 66.9905C15.1079 67.8601 15.1079 68.7298 15.1079 69.6215L15.1005 69.6362Z" fill="#020202"/>
<path d="M68.8476 30.5254C68.8476 30.7243 68.8476 30.9233 68.8476 31.1223C68.8402 31.4687 68.6339 31.734 68.4496 31.9993C68.0296 32.5962 67.4474 33.0163 66.8799 33.4585C66.5335 33.7312 66.1871 34.0112 65.8408 34.2839C65.1849 34.7998 64.5216 35.3157 63.8657 35.8315C63.7846 35.8979 63.6888 35.9568 63.6225 36.0379C63.4604 36.2221 63.2761 36.2958 63.0182 36.2074C63.0034 36.2074 63.0108 36.2074 63.0034 36.1927C62.9666 36.1705 62.9371 36.1632 62.8929 36.1632C62.7971 36.119 62.716 36.0747 62.6349 36.0305C62.1117 35.7284 61.5885 35.4188 61.0578 35.1019C61.0284 35.0798 61.0063 35.0725 60.9694 35.0651C60.962 35.0651 60.9473 35.0577 60.9473 35.043C60.7704 34.9324 60.5935 34.8366 60.4167 34.7408C60.4167 34.7408 60.4167 34.7408 60.4167 34.7261C60.203 34.6008 59.9892 34.4829 59.7681 34.3723C59.7681 34.3723 59.7681 34.3723 59.7681 34.3576C59.7166 34.306 59.6797 34.2692 59.6281 34.2397C59.0828 33.9228 58.4858 33.8344 57.8668 33.8049C57.8668 30.8791 57.8668 27.946 57.8668 25.0202C57.8668 24.7844 57.9331 24.7475 58.1615 24.8286C58.2426 24.8581 58.3311 24.8433 58.4195 24.8507C58.5153 24.8507 58.6037 24.8507 58.7143 24.8507C59.3702 24.9023 59.8787 25.2781 60.4093 25.5803C62.178 26.5899 63.9468 27.5996 65.7155 28.6092C66.622 29.1251 67.5284 29.6484 68.4349 30.1716C68.5675 30.2453 68.6855 30.3559 68.8181 30.4664C68.8402 30.5033 68.855 30.5106 68.8623 30.518L68.8476 30.5254Z" fill="#1BB3F6"/>
<path d="M84.1987 60.3948V56.9384H86.6602V70.5576H84.2061V69.5553C84.1103 69.629 84.0513 69.6732 83.9997 69.7248C82.2899 71.3019 79.6811 71.1103 78.0966 69.5627C76.9248 68.4204 76.4384 67.0275 76.4974 65.4136C76.5269 64.4776 76.7111 63.5859 77.2049 62.7826C78.1924 61.1612 79.6221 60.3358 81.5456 60.4906C82.4594 60.5643 83.2554 60.9402 83.9481 61.5445C84.0145 61.6034 84.0808 61.6624 84.1471 61.7213C84.1545 61.7213 84.1692 61.7213 84.2061 61.7213V60.3948M83.5796 67.6908C83.6828 67.5581 83.7934 67.4329 83.8818 67.2855C84.3166 66.5559 84.405 65.7526 84.2429 64.9419C84.0292 63.8659 83.3954 63.1216 82.3121 62.8563C81.2508 62.5983 80.3149 62.8563 79.6 63.7185C78.9957 64.4555 78.8704 65.3177 79.0178 66.2242C79.1947 67.2855 79.7769 68.0666 80.8086 68.3983C81.8404 68.7299 82.7763 68.5015 83.5723 67.6834L83.5796 67.6908Z" fill="#020202"/>
<path d="M60.2619 61.0356C62.0085 62.141 62.7087 63.7697 62.6939 65.7669C62.6792 67.0934 62.2665 68.2652 61.3821 69.2675C60.1588 70.6677 58.2647 71.1836 56.5329 70.5646C56.0538 70.3951 55.6338 70.115 55.2432 69.7834C55.1695 69.7244 55.1032 69.6581 54.9852 69.5623V74.1536H52.5311V60.7334H54.9779V61.7504C55.0442 61.7062 55.0884 61.6841 55.1179 61.662C56.5329 60.306 58.6406 60.1291 60.2693 61.0429M55.9064 63.3202C55.7369 63.497 55.538 63.6592 55.3979 63.8655C54.7863 64.7646 54.7273 65.7522 55.0589 66.7544C55.3685 67.6978 56.0391 68.3021 57.0193 68.4863C57.9921 68.6706 58.8396 68.4053 59.5029 67.6535C60.144 66.9313 60.3062 66.0617 60.1809 65.1405C60.0482 64.1456 59.5471 63.3791 58.6111 62.9885C57.6752 62.5979 56.7613 62.7011 55.9064 63.3275V63.3202Z" fill="#030303"/>
<path d="M20.3624 60.623C21.9838 60.225 23.3914 60.5788 24.6295 61.7579V60.7335H27.1205V70.55H24.6442V69.5624C24.4674 69.7024 24.3273 69.8204 24.1799 69.9383C22.5881 71.228 20.1561 71.0732 18.6158 69.6287C17.3777 68.4717 16.8766 67.0346 16.9429 65.3691C16.9798 64.4405 17.1787 63.5487 17.6651 62.7455C18.2916 61.7137 19.1538 60.962 20.3551 60.623M19.6918 66.9756C19.7434 67.0715 19.7876 67.1673 19.8466 67.2631C20.8783 68.9876 23.3693 68.9728 24.3642 67.2336C24.858 66.3713 24.9022 65.4354 24.5779 64.5142C24.2463 63.5635 23.5535 62.9739 22.5439 62.8118C21.5711 62.657 20.7088 62.9076 20.0824 63.6961C19.2938 64.691 19.257 65.7891 19.6918 66.9756Z" fill="#030303"/>
<path d="M96.3734 61.6843V60.7336H98.857V70.5574H96.3881V69.5551C96.285 69.6436 96.2186 69.6952 96.1597 69.7541C94.4868 71.2796 91.9369 71.1175 90.3671 69.6436C89.5196 68.8476 88.9448 67.8896 88.7753 66.7399C88.5099 65.0007 88.7753 63.3793 89.9618 62.0012C91.3031 60.4462 93.5287 60.0114 95.3269 60.9916C95.6807 61.1832 95.9902 61.478 96.3366 61.7285C96.366 61.7359 96.3734 61.7359 96.3881 61.7285L96.3734 61.6843ZM91.1704 65.406C91.1483 65.8555 91.1704 66.2977 91.3325 66.7178C91.7231 67.7422 92.4306 68.3981 93.5361 68.516C94.5826 68.6265 95.4227 68.236 96.0197 67.359C96.4471 66.7178 96.5355 65.9956 96.4766 65.2439C96.3439 63.4825 94.6268 62.3402 92.9465 62.9003C91.9295 63.2393 91.2367 64.1974 91.163 65.406H91.1704Z" fill="#020202"/>
<path d="M67.4179 70.5356C65.6418 69.7544 64.6248 68.3984 64.3521 66.497C64.19 65.3547 64.2858 64.2198 64.8017 63.1733C65.5386 61.6551 66.7178 60.675 68.4349 60.4907C69.6951 60.3507 70.8227 60.7118 71.7734 61.5741C71.8323 61.6256 71.8913 61.6772 71.9871 61.7583V60.7265H74.4633V70.5577H72.0019V69.5481C70.6458 70.8156 69.1277 71.1178 67.4179 70.5356ZM69.8573 62.7974C69.1129 62.7164 68.4202 62.8269 67.8159 63.3133C66.5704 64.3156 66.4009 66.3791 67.4548 67.6172C68.3833 68.7079 70.0047 68.8627 71.1028 67.9562C71.8029 67.3814 72.0829 66.6075 72.1124 65.7232C72.164 64.0503 71.1175 62.989 69.8573 62.7974Z" fill="#020202"/>
<path d="M44.2108 60.4755C45.5152 60.4018 46.6059 60.8366 47.564 61.7652V60.7334H50.0402V70.5572H47.5713V69.5697C47.4755 69.6507 47.4092 69.7023 47.3429 69.7613C45.6552 71.3016 43.0758 71.1099 41.4987 69.5992C40.128 68.28 39.7079 66.666 39.9142 64.8383C40.0764 63.416 40.6954 62.2442 41.8377 61.3599C42.5305 60.8219 43.319 60.5418 44.2108 60.4902M43.6138 63.1507C43.4885 63.2465 43.3485 63.3349 43.2306 63.4455C42.3315 64.293 42.0736 65.7817 42.6189 66.9829C43.3854 68.6706 45.5815 69.0759 46.8786 67.7641C47.5345 67.1008 47.7335 66.2681 47.6745 65.3616C47.5124 62.9664 45.1393 62.2295 43.6138 63.1507Z" fill="#020202"/>
<path d="M30.4221 65.3467C29.7883 63.8065 29.1619 62.2736 28.5207 60.7186C28.646 60.7186 28.7418 60.7186 28.8376 60.7186C29.5156 60.7186 30.1862 60.7186 30.8643 60.7186C31.0264 60.7186 31.1001 60.7702 31.159 60.9176C31.9402 62.8189 32.7288 64.7203 33.5173 66.6217C33.5394 66.6806 33.5689 66.747 33.6131 66.8428C33.6574 66.7543 33.6942 66.6954 33.7163 66.6291C34.5859 64.7203 35.4629 62.8116 36.3252 60.9028C36.3841 60.7702 36.4578 60.7186 36.6052 60.7186C37.3791 60.7259 38.1602 60.7186 38.9562 60.7186C38.9341 60.7849 38.9193 60.8365 38.8972 60.8807C36.8927 65.2509 34.8881 69.6285 32.8835 73.9987C32.8541 74.0651 32.773 74.1609 32.714 74.1609C31.896 74.1682 31.0853 74.1609 30.2378 74.1609C30.2673 74.0798 30.2894 74.0209 30.3189 73.9619C30.9306 72.6575 31.5423 71.3457 32.1539 70.0412C32.2203 69.8938 32.235 69.7685 32.1687 69.6064C31.5791 68.1914 30.9969 66.7764 30.4147 65.3467H30.4221Z" fill="#030303"/>
<path d="M21.9027 50.3573C21.9837 50.7037 22.1017 51.0353 22.1311 51.3743C22.168 51.8312 22.1385 52.2881 22.1385 52.7745H18.7706C18.7558 53.2093 18.719 53.622 18.8958 54.0053C19.0506 54.3443 19.3675 54.4475 19.7139 54.4769C20.355 54.5359 20.9815 54.4475 21.6005 54.3001C21.6963 54.278 21.7921 54.2558 21.9174 54.219C21.9616 54.4917 22.0059 54.7496 22.0574 55.0444C21.7479 55.1181 21.4531 55.1992 21.151 55.2507C20.4582 55.3687 19.7581 55.4276 19.0653 55.236C18.2989 55.0297 17.8199 54.4696 17.7904 53.6736C17.7609 52.8335 17.7535 51.986 17.7904 51.1458C17.8272 50.2099 18.4905 49.5687 19.4412 49.4434C19.9423 49.3771 20.4361 49.3845 20.9225 49.5319C21.3573 49.6645 21.689 49.9225 21.9027 50.3425M21.0257 50.7405C20.9225 50.5415 20.753 50.4089 20.5393 50.3425C20.1782 50.232 19.8097 50.2394 19.4412 50.3425C19.1906 50.4162 18.999 50.571 18.8885 50.8142C18.7337 51.1679 18.7485 51.5438 18.7632 51.927H21.1731C21.1731 51.5291 21.2099 51.1311 21.0183 50.7405H21.0257Z" fill="#5B5C5D"/>
<path d="M23.5536 51.6617C23.5462 51.3079 23.5167 50.9689 23.5388 50.6299C23.583 49.9445 24.04 49.5466 24.8359 49.4581C25.5507 49.3771 26.2509 49.4434 26.951 49.5761C27.0763 49.5982 27.1205 49.6498 27.1057 49.775C27.0763 49.9888 27.0689 50.2025 27.0468 50.4383C26.7225 50.4015 26.4204 50.3499 26.1108 50.3278C25.7718 50.3057 25.4328 50.2909 25.1012 50.313C24.6811 50.3351 24.5263 50.512 24.5116 50.9321C24.5116 50.9321 24.5116 50.9468 24.5116 50.9542C24.4969 51.5806 24.6 51.7133 25.197 51.8901C25.6465 52.0228 26.1035 52.1481 26.553 52.2955C26.9952 52.4429 27.2163 52.7745 27.2237 53.2314C27.2237 53.6073 27.2237 53.9905 27.1794 54.359C27.1205 54.8012 26.8478 55.0886 26.4204 55.2212C25.7939 55.4202 25.1528 55.4055 24.519 55.317C24.2095 55.2728 23.9147 55.1918 23.6125 55.1328C23.4946 55.1107 23.443 55.0517 23.4725 54.9191C23.5167 54.7127 23.5462 54.5064 23.583 54.2779C23.7599 54.3148 23.922 54.3664 24.0989 54.3811C24.6074 54.4253 25.1159 54.4769 25.6318 54.4769C26.074 54.4769 26.2435 54.2705 26.2582 53.8284C26.2582 53.7473 26.2582 53.6662 26.2582 53.5852C26.2582 53.3125 26.1329 53.1135 25.8676 53.0324C25.4844 52.9145 25.1012 52.8187 24.7253 52.7082C24.5927 52.6713 24.4674 52.6271 24.3421 52.5829C23.922 52.4281 23.6272 52.1554 23.5683 51.669L23.5536 51.6617Z" fill="#5B5C5D"/>
<path d="M1.15706 54.4619C1.56976 54.4619 1.96773 54.4619 2.36569 54.4398C2.60889 54.425 2.74891 54.2481 2.77839 54.0049C2.79313 53.8281 2.79313 53.6438 2.77839 53.4596C2.75628 53.209 2.57941 53.0837 2.36569 53.0174C1.95299 52.8921 1.54028 52.7816 1.12021 52.6563C0.994928 52.6194 0.877013 52.5752 0.759098 52.5236C0.412722 52.3689 0.147414 52.1257 0.117935 51.7277C0.0884563 51.3297 0.0663472 50.917 0.110565 50.5191C0.162153 49.9516 0.530638 49.6273 1.06862 49.5094C1.89403 49.3252 2.71943 49.4136 3.53747 49.5831C3.58169 49.5905 3.64065 49.6863 3.64065 49.7379C3.64065 49.9663 3.61117 50.1948 3.58906 50.438C3.27953 50.4012 2.97737 50.3496 2.68259 50.3275C2.33621 50.3054 1.99721 50.2906 1.65083 50.3054C1.23813 50.3201 1.07599 50.5043 1.06125 50.917C1.06125 50.9981 1.06125 51.0792 1.06125 51.1602C1.07599 51.5435 1.1718 51.6835 1.53291 51.8014C1.90877 51.9193 2.29936 52.0151 2.67522 52.1257C2.85946 52.1846 3.0437 52.2583 3.22057 52.3394C3.53747 52.4794 3.73645 52.7374 3.75119 53.0764C3.7733 53.4891 3.75856 53.9091 3.72171 54.3218C3.67749 54.7861 3.39745 55.103 2.94789 55.2062C2.56467 55.2946 2.15934 55.3683 1.76874 55.3462C1.23076 55.3167 0.692771 55.1988 0.154783 55.1104C0.0147594 55.0883 -0.0294587 55.022 0.0147594 54.8746C0.0663472 54.6829 0.0810866 54.4766 0.117935 54.2702C0.46431 54.3292 0.803316 54.3882 1.15706 54.4471V54.4619Z" fill="#5A5B5D"/>
<path d="M4.68713 50.0181C4.68713 49.8486 4.68713 49.7012 4.68713 49.5391H5.68941C5.68941 49.1411 5.70415 48.7579 5.68941 48.3747C5.68204 48.1904 5.72626 48.1167 5.92524 48.102C6.16844 48.0873 6.41901 48.0357 6.69169 47.9915V49.5317H8.30565C8.27617 49.8191 8.25406 50.0918 8.23195 50.3792H6.69906C6.69906 50.4677 6.69906 50.5414 6.69906 50.6151C6.69906 51.6837 6.69906 52.7523 6.69906 53.8135C6.69906 54.4252 6.8833 54.5873 7.49498 54.4989C7.72344 54.4694 7.95927 54.4252 8.20247 54.3883C8.24669 54.6463 8.28354 54.8895 8.32776 55.1622C7.64238 55.3832 6.96437 55.4938 6.28636 55.2211C5.88102 55.059 5.72626 54.6979 5.71889 54.2925C5.70415 53.2018 5.71152 52.1185 5.70415 51.0278C5.70415 50.8288 5.70415 50.6224 5.70415 50.394H4.6945C4.6945 50.2539 4.6945 50.1508 4.6945 50.0255L4.68713 50.0181Z" fill="#595A5C"/>
<path d="M13.5013 50.3425C13.5013 51.9786 13.5013 53.5999 13.5013 55.236H12.5137V47.2104C12.838 47.1662 13.1549 47.122 13.5013 47.0704C13.5013 48.1685 13.5013 49.2444 13.5013 50.3425Z" fill="#595A5C"/>
<path d="M14.9679 50.6074C15.1963 50.2831 15.4174 49.9662 15.6532 49.6567C15.6975 49.5977 15.8006 49.5388 15.8743 49.5388C16.1986 49.524 16.5302 49.5388 16.9061 49.5388C16.7218 49.7967 16.5671 50.0178 16.4049 50.2389C15.9407 50.8874 15.4837 51.536 15.0047 52.1698C14.8794 52.3319 14.9163 52.4277 15.0194 52.5677C15.6459 53.4005 16.2576 54.2406 16.8766 55.0734C16.9135 55.1176 16.9429 55.1692 16.9945 55.2503C16.6039 55.2503 16.2428 55.2503 15.8817 55.2503C15.8301 55.2503 15.7638 55.1913 15.7269 55.1397C15.0858 54.2627 14.452 53.3784 13.8108 52.5014C13.7371 52.4056 13.7297 52.3393 13.8108 52.2361C14.2014 51.7055 14.5846 51.1601 14.9752 50.6148L14.9679 50.6074Z" fill="#5B5B5D"/>
<path d="M9.66907 49.6643C9.69855 49.6054 9.72802 49.539 9.7575 49.539C10.0523 49.5317 10.3471 49.539 10.6566 49.539V55.2358H9.66907C9.66907 53.3934 9.66907 51.5362 9.66907 49.6643Z" fill="#59595B"/>
<path d="M10.4429 48.6476C10.1775 48.6476 9.94172 48.6476 9.68378 48.6476V47.2252H10.6492V48.6328C10.5902 48.6328 10.5313 48.6328 10.4429 48.6402V48.6476Z" fill="#59595B"/>
<path d="M30.0117 30.5472C30.0117 30.5472 29.9886 30.5934 29.9578 30.6165C29.9578 30.5934 29.9809 30.5703 30.0117 30.5472Z" fill="#1BB3F5"/>
<path d="M29.8049 30.7683C29.8049 30.7683 29.782 30.8218 29.7514 30.8524C29.7514 30.8295 29.7743 30.7989 29.8049 30.7683Z" fill="#1D95E6"/>
<path d="M68.851 30.5132C68.851 30.5132 68.8269 30.5052 68.8108 30.481C68.8188 30.481 68.8349 30.481 68.851 30.5132Z" fill="#1D95E6"/>
<path d="M49.3917 37.5854C49.259 37.5854 49.1264 37.6076 49.0011 37.6002C48.0356 37.5339 47.2102 37.1138 46.3996 36.6274C45.1025 35.8536 43.7907 35.1019 42.4863 34.3502C42.022 34.0848 41.5282 33.9301 40.9829 33.8785C40.9018 33.8416 40.8281 33.8122 40.7249 33.7753C40.7249 30.798 40.7249 27.8059 40.7249 24.799C41.2039 24.7696 41.6609 24.8359 42.0809 25.0717C42.3094 25.2044 42.5379 25.337 42.7663 25.4623C42.8253 25.4918 42.9063 25.4918 42.9948 25.4992C43.0095 25.4992 43.0243 25.4992 43.0316 25.5139C43.1495 25.6318 43.2675 25.7276 43.4075 25.8455C43.5917 25.8013 43.7539 25.9634 43.9013 26.0887C43.9971 26.1698 44.0708 26.2066 44.1813 26.1698C44.1813 26.1698 44.1666 26.1698 44.1813 26.1845C44.4392 26.3393 44.6972 26.4793 44.9477 26.6193C44.9477 26.6193 44.9477 26.6267 44.9477 26.6341C45.0141 26.7594 45.1099 26.8183 45.2425 26.7741C45.2425 26.7741 45.2573 26.7741 45.2573 26.7962C45.4784 26.9362 45.6995 27.0615 45.9205 27.1794C45.9205 27.1794 45.9132 27.1942 45.9205 27.2016C45.9795 27.231 46.0311 27.2531 46.0753 27.2679C46.0974 27.2679 46.1195 27.2826 46.149 27.3121C46.2227 27.3711 46.289 27.4005 46.3554 27.43C46.3554 27.43 46.3554 27.43 46.3554 27.4448C46.4659 27.5332 46.5396 27.6953 46.7165 27.6364C46.7386 27.6437 46.7607 27.6511 46.7902 27.6806C46.967 27.828 47.1292 27.9754 47.3134 28.0712C47.505 28.167 47.7261 28.2186 47.9325 28.2849C48.1241 28.3439 48.3083 28.4102 48.5073 28.4323C48.7063 28.4618 48.9053 28.4323 49.1042 28.4544C49.3696 28.4765 49.4359 28.5502 49.4359 28.8229C49.4359 31.5718 49.4359 34.328 49.4359 37.0769C49.4359 37.2391 49.4064 37.4012 49.3917 37.5707" fill="#1BB3F5"/>
<path d="M49.399 37.6003C49.399 37.4234 49.4284 37.2613 49.4284 37.0991C49.4284 34.3502 49.4284 31.594 49.4284 28.8451C49.4284 28.5724 49.3695 28.4987 49.0968 28.4766C48.8978 28.4619 48.6988 28.484 48.4999 28.4545C48.3083 28.425 48.1166 28.3587 47.925 28.3071C47.7187 28.2408 47.4976 28.1966 47.306 28.0934C47.1217 27.9976 46.967 27.8502 46.7901 27.7175C47.0259 27.8207 47.2618 27.946 47.5123 28.0565C48.1977 28.3661 48.9199 28.4692 49.6864 28.4471C49.6495 28.4692 49.5906 28.4766 49.5169 28.4987V37.5782C49.6053 37.5782 49.679 37.5855 49.7822 37.6003C49.6716 37.6076 49.539 37.615 49.3916 37.6076L49.399 37.6003Z" fill="#35B3F5"/>
<path d="M59.7682 34.3648C59.3334 34.2321 58.906 34.0331 58.4564 33.9373C57.7195 33.7899 56.9972 33.9152 56.2971 34.2395C56.3561 34.1879 56.4224 34.129 56.4961 34.0847C56.8867 33.8784 57.3215 33.8489 57.7637 33.8047C57.8005 33.8047 57.8153 33.8047 57.8448 33.8047C58.4712 33.8342 59.0755 33.9226 59.6208 34.2395C59.6724 34.269 59.7167 34.3058 59.7609 34.3574L59.7682 34.3648Z" fill="#35B3F5"/>
<path d="M55.2155 34.866C55.1561 34.918 55.0892 34.97 55 35.022C55.0595 34.97 55.1264 34.918 55.2155 34.866Z" fill="#35B3F5"/>
<path d="M55.8567 34.4608C55.7973 34.5128 55.7304 34.5648 55.6412 34.6168C55.7006 34.5648 55.7675 34.5128 55.8567 34.4608Z" fill="#35B3F5"/>
<path d="M56.2029 34.2619C56.1509 34.3065 56.0914 34.3511 56.0096 34.3957C56.0096 34.2768 56.084 34.247 56.2029 34.2619Z" fill="#35B3F5"/>
<path d="M55.6133 34.6229C55.5613 34.6675 55.4944 34.7121 55.4201 34.7567C55.4721 34.7121 55.539 34.6675 55.6133 34.6229Z" fill="#35B3F5"/>
<path d="M55.3854 34.7553C55.3554 34.7927 55.303 34.8302 55.2432 34.8676C55.2806 34.8302 55.3255 34.7927 55.3854 34.7553Z" fill="#35B3F5"/>
<path d="M49.8854 28.4336C49.8854 28.4336 49.9024 28.4166 49.911 28.4251C49.9195 28.4336 49.911 28.4421 49.911 28.4421C49.911 28.4421 49.8939 28.4421 49.8854 28.4421V28.4336Z" fill="#35B3F5"/>
<path d="M55.9161 34.4312C55.9161 34.4312 55.9161 34.4556 55.8917 34.4637C55.8917 34.4475 55.8917 34.4393 55.9161 34.4312Z" fill="#35B3F5"/>
<path d="M54.9728 35.028C54.9728 35.028 54.9728 35.0535 54.9558 35.0535C54.9558 35.045 54.9558 35.0365 54.9728 35.028Z" fill="#35B3F5"/>
<path d="M44.1739 26.1623C44.0708 26.2065 43.9971 26.1771 43.9013 26.0886C43.7539 25.9633 43.5917 25.8012 43.4075 25.8454C43.2675 25.7275 43.1495 25.6243 43.039 25.5138C43.4149 25.7128 43.7981 25.9339 44.1813 26.1623H44.1739Z" fill="#35B3F5"/>
<path d="M44.9354 26.6206C44.684 26.4876 44.4326 26.3471 44.1739 26.1918C44.4253 26.3175 44.6766 26.4654 44.9354 26.6206Z" fill="#35B3F5"/>
<path d="M45.9152 27.1807C45.7008 27.0698 45.479 26.9515 45.2646 26.811C45.479 26.9219 45.6934 27.0402 45.9152 27.1807Z" fill="#35B3F5"/>
<path d="M46.7106 27.6444C46.5404 27.7184 46.4664 27.5482 46.3553 27.4594C46.4738 27.5038 46.5848 27.5704 46.7106 27.6444Z" fill="#35B3F5"/>
<path d="M45.2378 26.7826C45.1114 26.8347 45.0146 26.7826 44.9477 26.6413C45.037 26.6711 45.1337 26.7231 45.2378 26.7826Z" fill="#35B3F5"/>
<path d="M46.3497 27.4307C46.2902 27.4158 46.2159 27.3861 46.149 27.334C46.2159 27.3489 46.2753 27.3861 46.3497 27.4307Z" fill="#35B3F5"/>
<path d="M46.0702 27.269C46.0253 27.2615 45.9729 27.239 45.9205 27.2016C45.9654 27.2091 46.0178 27.2315 46.0702 27.269Z" fill="#35B3F5"/>
<path d="M60.4114 34.7342C60.197 34.6307 59.99 34.5198 59.7682 34.3941C59.9752 34.4976 60.197 34.6085 60.4114 34.7342Z" fill="#35B3F5"/>
<path d="M60.9416 35.0436C60.7716 34.9623 60.5941 34.8662 60.4167 34.7553C60.5867 34.8366 60.7642 34.9327 60.9416 35.0436Z" fill="#35B3F5"/>
<path d="M61.0596 35.1102C61.0596 35.1102 61.0144 35.1102 60.9842 35.0875C60.9993 35.0875 61.0294 35.0875 61.0596 35.1102Z" fill="#35B3F5"/>
<path d="M62.9977 36.2004C62.9977 36.2004 62.9452 36.2004 62.9077 36.1779C62.9302 36.1779 62.9602 36.1779 62.9977 36.2004Z" fill="#1D95E6"/>
<path d="M96.3674 61.692C96.3674 61.692 96.3835 61.7161 96.3915 61.7322C96.3835 61.7322 96.3674 61.7322 96.3513 61.7322C96.3513 61.7161 96.3513 61.708 96.3674 61.7V61.692Z" fill="white"/>
</g>
<defs>
<clipPath id="clip0_319_3">
<rect width="98.857" height="98.857" fill="white"/>
</clipPath>
</defs>
</svg>
