<svg width="100" height="99" viewBox="0 0 100 99" fill="none" xmlns="http://www.w3.org/2000/svg">
<path fill-rule="evenodd" clip-rule="evenodd" d="M97.4211 48.3673L74.6561 36.6569C73.9044 36.2516 73.3811 36.1263 73.698 34.984L75.4373 28.2186L62.0023 28.2333L60.0862 35.5735C59.9536 36.0747 59.703 36.48 59.2019 36.6053H11.66L2.83849 70.6238H62.2308L95.1586 57.4541L97.4211 48.36V48.3673ZM75.3783 35.3156L98.0917 46.9966C98.7255 47.3061 99.0792 48.0209 98.9024 48.7358L96.6399 57.83C96.5293 58.2943 96.1977 58.6923 95.726 58.8839L62.7983 72.0609C62.6214 72.1272 62.4298 72.1714 62.2308 72.1714H2.89745C2.75005 72.1714 2.60266 72.1493 2.45527 72.1124C1.63723 71.8987 1.15083 71.066 1.35718 70.2479L10.1787 36.2368C10.3482 35.5809 10.9451 35.0945 11.66 35.0945H58.6344L60.521 27.8575C60.6905 27.2016 61.2875 26.7152 62.0023 26.7152L75.4373 26.7004C75.5626 26.7004 75.6878 26.7152 75.8131 26.7447C76.6312 26.951 77.1249 27.7838 76.9112 28.6018L75.2088 35.2198C75.2751 35.2566 75.3415 35.2861 75.3783 35.3082V35.3156Z" fill="white"/>
<path fill-rule="evenodd" clip-rule="evenodd" d="M97.4214 48.3675L74.6565 36.657C73.9048 36.2517 73.3815 36.1264 73.6984 34.9841L75.4377 28.2188L62.0027 28.2335L60.0866 35.5737C59.9539 36.0748 59.7034 36.4802 59.2022 36.6055H11.6604L2.83887 70.6239H62.2312L95.1589 57.4543L97.4214 48.3601V48.3675Z" fill="black"/>
<path fill-rule="evenodd" clip-rule="evenodd" d="M9.08867 65.723H12.4419L16.0235 52.2365C17.2617 48.1021 19.8926 44.3214 25.1177 44.2404C28.8026 44.1814 31.0061 46.0607 30.9987 49.8487C30.9987 50.3941 30.9398 51.1015 30.7482 51.8533L27.1297 65.723H30.5271L34.3888 50.8952C34.8162 48.3232 34.6173 45.5227 32.738 43.6213C30.7924 41.6536 27.7635 41.5283 24.7271 41.5283H16.053C15.3308 41.5283 15.3455 41.6683 15.1539 42.4643L9.0813 65.723H9.08867Z" fill="#FDFDFD"/>
<path fill-rule="evenodd" clip-rule="evenodd" d="M45.0972 53.6072L33.6963 65.7156H36.4157C37.7496 65.7156 37.7422 65.6051 39.0098 64.2196L46.3206 56.4962L46.3869 56.6509L50.2707 65.7304H54.1472L48.9884 53.6736L60.463 41.5283H57.7731C56.5792 41.5283 56.4097 41.5873 55.8201 42.2432L47.7576 50.7994L43.7854 41.5283H39.9384L45.0972 53.6072Z" fill="#FDFDFD"/>
<path fill-rule="evenodd" clip-rule="evenodd" d="M65.8284 64.1603L90.8779 53.8575L91.6296 51.0349L71.9157 40.8647L71.1124 43.96L87.0162 52.4794L66.6832 60.7924L65.8284 64.1603Z" fill="#FD0000"/>
<path fill-rule="evenodd" clip-rule="evenodd" d="M60.5442 65.7228L69.1004 33.0382H66.1452C65.6367 33.0898 65.644 33.473 65.5261 33.9152L57.2868 65.369C57.2131 65.6491 57.2131 65.7007 57.5079 65.7228H60.5442Z" fill="#FDFDFD"/>
</svg>
