<svg width="100" height="99" viewBox="0 0 100 99" fill="none" xmlns="http://www.w3.org/2000/svg">
<g clip-path="url(#clip0_319_126)">
<path d="M27.3819 44.167V60.6309C27.2935 61.9943 26.9029 63.5051 25.3258 63.5051C24.6035 63.5051 24.2866 63.3429 24.1319 63.0555C25.4437 61.1025 26.2249 58.7074 26.2249 56.0985C26.2249 54.5509 25.9448 53.0843 25.4511 51.7283C25.37 51.4998 25.2742 51.2787 25.1784 51.0576C23.4465 47.078 19.7469 44.3144 15.4504 44.3144C9.49568 44.3144 4.6759 49.5911 4.6759 56.0985C4.6759 62.606 9.50305 67.8826 15.4504 67.8826C17.3002 67.8826 19.0321 67.3741 20.5502 66.4824C21.8031 67.3815 23.3138 67.9121 24.9499 67.9121C28.5758 67.9121 31.6195 65.3106 32.467 61.7953H32.4744V44.1744H27.3893L27.3819 44.167ZM17.9119 63.2103C17.1602 63.6451 16.3274 63.8956 15.443 63.8956C12.0972 63.8956 9.37776 60.3803 9.37776 56.0396C9.37776 51.6988 12.0898 48.1835 15.443 48.1835C17.9119 48.1835 20.0343 50.0996 20.9777 52.8485C21.3167 53.8213 21.5009 54.9046 21.5009 56.0396C21.5009 59.238 20.0196 61.9869 17.9045 63.2103H17.9119Z" fill="url(#paint0_radial_319_126)"/>
<path d="M33.9263 53.1801V60.3287L37.0363 57.4471L44.1038 67.9637H51.0976L41.1486 52.959L49.7121 43.8279H41.9298L33.9263 53.1801Z" fill="url(#paint1_radial_319_126)"/>
<path d="M49.9848 44.056C48.6362 44.196 47.0222 44.2108 45.1208 44.0118C45.0103 44.0044 44.9071 44.0118 44.804 43.9823C37.051 41.7125 34.6485 38.4477 29.7403 34.6744C24.4931 30.6432 11.913 27.909 0.563721 36.8632C0.563721 36.8632 4.44755 39.1036 6.22364 42.899C6.25312 42.9653 6.28997 43.0243 6.31945 43.098C8.06606 47.0113 8.35348 50.394 8.35348 50.394C8.35348 50.394 14.7872 43.039 22.7465 42.7442C29.4603 42.4937 37.2574 45.1099 43.4258 45.7879C44.5681 45.9132 45.6588 45.9795 46.6759 45.9427C53.1686 45.7068 55.6521 41.9851 55.6521 41.9851C55.6521 41.9851 54.0603 43.636 49.9922 44.056H49.9848Z" fill="#313132"/>
<path d="M25.0606 37.7254C34.5675 40.2532 37.0732 43.5622 44.7966 43.5106C44.9219 43.5106 45.0398 43.4959 45.1651 43.4959C45.0545 43.4885 44.9587 43.4959 44.8556 43.4664C37.1469 41.3145 34.7517 38.2266 29.8656 34.6523C24.6479 30.8348 12.6942 28.1448 1.41125 36.6126C1.41125 36.6126 4.71288 38.8382 6.4816 42.4347C6.7985 42.0662 7.11539 41.7272 7.43229 41.4103C13.6007 35.0355 19.5038 36.2441 25.0606 37.7181V37.7254Z" fill="url(#paint2_linear_319_126)"/>
<path d="M49.9994 43.5331C48.6582 43.6658 47.0516 43.6805 45.1649 43.4963C45.0396 43.4963 44.9217 43.511 44.7964 43.511C37.073 43.5626 32.8428 39.2956 25.6574 36.9815C20.1817 35.2128 13.6006 35.0433 7.43213 41.418C7.11524 41.7423 6.79834 42.074 6.48145 42.4424C6.51092 42.5088 6.54777 42.5677 6.57725 42.6267C8.3165 46.3336 8.59655 49.5321 8.59655 49.5321C8.59655 49.5321 14.9934 42.5751 22.9085 42.2877C29.5854 42.0518 37.3383 44.5281 43.4773 45.1692C44.6122 45.2871 45.6955 45.3535 46.7052 45.3166C53.161 45.0955 55.7404 41.7276 55.7404 41.7276C55.7404 41.7276 54.038 43.1352 49.9994 43.5331Z" fill="url(#paint3_linear_319_126)"/>
<path d="M57.008 43.8568H55.9615V67.6535H57.008V43.8568Z" fill="#660812"/>
<path d="M66.1908 47.3577C66.1908 47.7188 66.1245 48.0505 65.9918 48.3747C65.8591 48.6916 65.6602 48.979 65.4096 49.2296C65.1517 49.4802 64.8569 49.6718 64.5326 49.8044C64.2083 49.9371 63.862 50.0034 63.5082 50.0034C63.1545 50.0034 62.8007 49.9371 62.4691 49.8044C62.1375 49.6718 61.85 49.4802 61.5921 49.2296C61.3342 48.979 61.1426 48.699 61.0099 48.3821C60.8772 48.0652 60.8109 47.7262 60.8109 47.3651C60.8109 47.004 60.8772 46.665 61.0099 46.3481C61.1426 46.0312 61.3342 45.7437 61.5921 45.4932C61.85 45.2426 62.1375 45.051 62.4691 44.9183C62.7934 44.7857 63.1397 44.7194 63.5082 44.7194C63.8767 44.7194 64.2157 44.7857 64.54 44.9183C64.8642 45.051 65.159 45.2426 65.417 45.4932C65.6749 45.7437 65.8665 46.0385 65.9992 46.3554C66.1318 46.6723 66.1982 47.0113 66.1982 47.3724L66.1908 47.3577ZM65.3359 47.3577C65.3359 47.0998 65.2917 46.8639 65.1959 46.6281C65.1001 46.3923 64.9674 46.1933 64.7979 46.0164C64.6284 45.8396 64.4294 45.6995 64.2083 45.6111C63.9872 45.5153 63.7514 45.4711 63.5008 45.4711C63.2503 45.4711 63.0145 45.5153 62.7934 45.6111C62.5723 45.7069 62.3733 45.8396 62.1964 46.0238C62.0195 46.2007 61.8869 46.3996 61.7985 46.6355C61.71 46.8639 61.6584 47.1071 61.6584 47.3651C61.6584 47.623 61.7026 47.8588 61.7985 48.0873C61.8943 48.3158 62.0269 48.5221 62.1964 48.699C62.3733 48.8759 62.5723 49.0159 62.7934 49.1117C63.0145 49.2075 63.2503 49.2517 63.5008 49.2517C63.7514 49.2517 63.9799 49.2075 64.201 49.1117C64.4221 49.0159 64.621 48.8832 64.7979 48.699C64.9748 48.5148 65.1074 48.3158 65.1959 48.0873C65.2917 47.8588 65.3359 47.6156 65.3359 47.3651V47.3577Z" fill="#313132"/>
<path d="M68.5048 45.5225V49.8633H67.6867V45.5225H66.3455V44.8298H69.8387V45.5225H68.5048Z" fill="#313132"/>
<path d="M75.3808 47.3577C75.3808 47.7188 75.3144 48.0505 75.1744 48.3747C75.0418 48.6916 74.8428 48.979 74.5922 49.2296C74.3343 49.4802 74.0395 49.6718 73.7152 49.8044C73.391 49.9371 73.0446 50.0034 72.6908 50.0034C72.3371 50.0034 71.9833 49.9371 71.6517 49.8044C71.3201 49.6718 71.0327 49.4802 70.7747 49.2296C70.5168 48.979 70.3252 48.699 70.1925 48.3821C70.0599 48.0652 69.9935 47.7262 69.9935 47.3651C69.9935 47.004 70.0599 46.665 70.1925 46.3481C70.3252 46.0312 70.5242 45.7437 70.7747 45.4932C71.0327 45.2426 71.3201 45.051 71.6517 44.9183C71.976 44.7857 72.3224 44.7194 72.6908 44.7194C73.0593 44.7194 73.3983 44.7857 73.7226 44.9183C74.0469 45.051 74.3416 45.2426 74.5996 45.4932C74.8575 45.7437 75.0491 46.0385 75.1818 46.3554C75.3144 46.6723 75.3881 47.0113 75.3881 47.3724L75.3808 47.3577ZM74.5259 47.3577C74.5259 47.0998 74.4817 46.8639 74.3859 46.6281C74.2901 46.3996 74.1574 46.1933 73.9879 46.0164C73.8184 45.8396 73.6194 45.6995 73.3983 45.6111C73.1772 45.5227 72.9414 45.4711 72.6908 45.4711C72.4403 45.4711 72.2044 45.5153 71.9833 45.6111C71.7623 45.7069 71.5633 45.8396 71.3864 46.0238C71.2095 46.2007 71.0769 46.3996 70.9884 46.6355C70.8926 46.8639 70.8484 47.1071 70.8484 47.3651C70.8484 47.623 70.8926 47.8588 70.9884 48.0873C71.0769 48.3158 71.2095 48.5221 71.3864 48.699C71.5633 48.8759 71.7623 49.0159 71.9833 49.1117C72.2044 49.2075 72.4403 49.2517 72.6908 49.2517C72.9414 49.2517 73.1699 49.2075 73.391 49.1117C73.612 49.0159 73.811 48.8832 73.9879 48.699C74.1648 48.5148 74.2974 48.3158 74.3859 48.0873C74.4817 47.8588 74.5259 47.6156 74.5259 47.3651V47.3577Z" fill="#313132"/>
<path d="M77.0831 47.6155V49.8706H76.3167V44.8298H77.459C77.798 44.8298 78.0559 44.8519 78.2401 44.8961C78.4244 44.9403 78.5791 45.014 78.7118 45.1098C78.8666 45.2351 78.9918 45.3899 79.0729 45.5815C79.154 45.7731 79.1982 45.9868 79.1982 46.2153C79.1982 46.6206 79.1024 46.9375 78.9034 47.166C78.7118 47.3944 78.417 47.5344 78.0412 47.5787L79.7804 49.8706H78.8518L77.1789 47.6155H77.0831ZM77.1347 46.9744H77.2821C77.7169 46.9744 78.0043 46.9228 78.1443 46.8196C78.2844 46.7164 78.3581 46.5395 78.3581 46.2816C78.3581 46.0016 78.2844 45.8099 78.1296 45.692C77.9748 45.5815 77.6948 45.5225 77.2821 45.5225H77.1347V46.967V46.9744Z" fill="#313132"/>
<path d="M80.2816 49.8706V44.8298H81.0996V49.8706H80.2816Z" fill="#313132"/>
<path d="M83.9074 45.5225V49.8633H83.0894V45.5225H81.7555V44.8298H85.2414V45.5225H83.9074Z" fill="#313132"/>
<path d="M88.6757 49.8708L88.1008 48.5737H86.1036L85.5214 49.8708H84.6592L87.0985 44.6309L89.5379 49.8708H88.6757ZM86.4132 47.8883H87.8208L87.3049 46.7386C87.2754 46.665 87.2459 46.5839 87.2091 46.4881C87.1796 46.3923 87.1428 46.2891 87.1133 46.1712C87.0838 46.2817 87.0543 46.3849 87.0248 46.4807C86.9954 46.5765 86.9585 46.665 86.929 46.746L86.4132 47.8957V47.8883Z" fill="#313132"/>
<path d="M89.7295 48.8607L90.3854 48.5585C90.4517 48.7796 90.5623 48.9565 90.7244 49.0744C90.8865 49.1923 91.1003 49.2512 91.3582 49.2512C91.6161 49.2512 91.793 49.1849 91.9404 49.0523C92.0804 48.9196 92.1541 48.7354 92.1541 48.5069C92.1541 48.2121 91.9109 47.9468 91.4171 47.7184C91.3508 47.6815 91.2919 47.6594 91.255 47.6447C90.7023 47.372 90.3264 47.1288 90.1422 46.9077C89.958 46.6866 89.8695 46.4213 89.8695 46.1044C89.8695 45.6917 90.0095 45.3601 90.2822 45.1095C90.5623 44.8515 90.9307 44.7263 91.3803 44.7263C91.7562 44.7263 92.0657 44.8 92.3089 44.94C92.5595 45.08 92.7363 45.2864 92.8321 45.559L92.191 45.8907C92.0878 45.7359 91.9772 45.618 91.8593 45.5443C91.7414 45.4706 91.6014 45.4337 91.4466 45.4337C91.2255 45.4337 91.0487 45.4927 90.9234 45.6033C90.7907 45.7212 90.7318 45.8686 90.7318 46.0602C90.7318 46.3623 91.0192 46.6424 91.5867 46.9077C91.6309 46.9298 91.6677 46.9445 91.6898 46.9593C92.191 47.1877 92.53 47.4088 92.7142 47.6299C92.8985 47.851 92.9943 48.1237 92.9943 48.4479C92.9943 48.927 92.8395 49.3028 92.5447 49.5829C92.2426 49.8629 91.8372 50.003 91.3287 50.003C90.9013 50.003 90.5475 49.9071 90.2748 49.7082C90.0022 49.5092 89.8179 49.2291 89.7369 48.8607H89.7295Z" fill="#313132"/>
<path d="M60.9803 57.4098C61.0688 57.513 61.1498 57.5867 61.2235 57.6309C61.3046 57.6751 61.3857 57.6972 61.4741 57.6972C61.6362 57.6972 61.7468 57.6456 61.8131 57.5425C61.8794 57.4393 61.9089 57.2403 61.9089 56.9529V53.2902H62.7196V57.2182C62.7196 57.6456 62.6238 57.9625 62.4395 58.1615C62.2553 58.3605 61.9605 58.4637 61.5552 58.4637C61.3341 58.4637 61.1351 58.4195 60.9582 58.3384C60.7813 58.2573 60.6118 58.1247 60.4497 57.9404L60.973 57.4172L60.9803 57.4098Z" fill="#313132"/>
<path d="M67.1266 58.3236L66.5517 57.0266H64.5546L63.9724 58.3236H63.1101L65.5495 53.0838L67.9888 58.3236H67.1266ZM64.8641 56.3486H66.2717L65.7558 55.1989C65.7263 55.1252 65.6895 55.0441 65.66 54.9483C65.6305 54.8525 65.5937 54.7493 65.5642 54.6314C65.5347 54.742 65.5053 54.8452 65.4758 54.941C65.4463 55.0368 65.4095 55.1252 65.38 55.2063L64.8641 56.3559V56.3486Z" fill="#313132"/>
<path d="M68.1805 57.3141L68.8364 57.012C68.9028 57.2331 69.0133 57.4099 69.1754 57.5279C69.3376 57.6458 69.5513 57.7047 69.8092 57.7047C70.0524 57.7047 70.2441 57.6384 70.3914 57.5058C70.5315 57.3731 70.6052 57.1889 70.6052 56.9604C70.6052 56.6656 70.3546 56.4003 69.8682 56.1718C69.8019 56.135 69.7429 56.1129 69.7061 56.0981C69.1533 55.8255 68.7849 55.5823 68.6006 55.3612C68.4164 55.1401 68.3206 54.8748 68.3206 54.5579C68.3206 54.1452 68.4606 53.8135 68.7333 53.563C69.0133 53.305 69.3818 53.1797 69.8314 53.1797C70.1998 53.1797 70.5094 53.2534 70.7599 53.3935C71.0105 53.5335 71.18 53.7398 71.2832 54.0125L70.642 54.3442C70.5388 54.1894 70.4283 54.0715 70.3104 53.9978C70.1925 53.9241 70.0524 53.8872 69.8977 53.8872C69.6766 53.8872 69.4997 53.9462 69.3744 54.0567C69.2491 54.1747 69.1828 54.322 69.1828 54.521C69.1828 54.8232 69.4702 55.1032 70.0377 55.3685C70.0819 55.3906 70.1188 55.4054 70.1409 55.4201C70.642 55.6486 70.981 55.8697 71.1653 56.0908C71.3495 56.3119 71.4453 56.5845 71.4453 56.9088C71.4453 57.3878 71.2979 57.7637 70.9958 58.0437C70.6936 58.3238 70.2883 58.4638 69.7798 58.4638C69.3523 58.4638 68.9986 58.368 68.7259 58.169C68.4532 57.97 68.269 57.69 68.1879 57.3215L68.1805 57.3141Z" fill="#313132"/>
<path d="M75.6607 58.3236L75.0933 57.0266H73.0961L72.5139 58.3236H71.6516L74.091 53.0838L76.5303 58.3236H75.6681H75.6607ZM73.3982 56.3486H74.8058L74.29 55.1989C74.2605 55.1252 74.231 55.0441 74.1942 54.9483C74.1647 54.8525 74.1278 54.7493 74.0983 54.6314C74.0689 54.742 74.0394 54.8452 74.0099 54.941C73.9804 55.0368 73.951 55.1252 73.9141 55.2063L73.3982 56.3559V56.3486Z" fill="#313132"/>
<path d="M61.0245 66.7843V61.7435H61.8426V63.8291L63.6555 61.7435H64.6578L62.6606 63.9839L64.8936 66.7843H63.8324L61.8426 64.2123V66.7843H61.0245Z" fill="#313132"/>
<path d="M65.3948 66.7843V61.7435H68.21V62.4362H66.2202V63.6964H68.21V64.4187H66.2202V66.0474H68.21V66.7843H65.3948Z" fill="#313132"/>
<path d="M69.1239 61.7433H69.9346V64.8017C69.9346 65.2586 70.0377 65.5976 70.2515 65.8261C70.4652 66.0545 70.7747 66.1651 71.1948 66.1651C71.6149 66.1651 71.9244 66.0545 72.1307 65.8261C72.3445 65.5976 72.4476 65.2586 72.4476 64.8017V61.7433H73.2657V64.8828C73.2657 65.5608 73.0888 66.0766 72.7498 66.4083C72.4034 66.7473 71.8875 66.9168 71.1948 66.9168C70.502 66.9168 69.9862 66.7473 69.6398 66.4083C69.3008 66.0693 69.1239 65.5608 69.1239 64.8754V61.7359V61.7433Z" fill="#313132"/>
<path d="M77.5918 66.7838L77.0243 65.4867H75.0271L74.4449 66.7838H73.5826L76.022 61.5439L78.4614 66.7838H77.5991H77.5918ZM75.3293 64.8013H76.7369L76.221 63.6517C76.1915 63.578 76.162 63.4969 76.1252 63.4011C76.0957 63.3053 76.0589 63.2021 76.0294 63.0842C75.9999 63.1948 75.9704 63.2979 75.9409 63.3937C75.9115 63.4895 75.882 63.578 75.8451 63.659L75.3293 64.8087V64.8013Z" fill="#313132"/>
<path d="M78.9329 66.7838V61.5439L82.1313 64.6245C82.2197 64.7129 82.3082 64.8087 82.3966 64.9045C82.485 65.0003 82.5809 65.1109 82.684 65.2362V61.7429H83.4431V66.9754L80.1783 63.8359C80.0899 63.7549 80.0088 63.659 79.9278 63.5706C79.8467 63.4748 79.773 63.379 79.6993 63.2758V66.7838H78.9476H78.9329Z" fill="#313132"/>
<path d="M87.386 64.2051H89.3832C89.3832 64.2051 89.3832 64.2861 89.3832 64.3525C89.3832 64.5146 89.3906 64.6251 89.3906 64.6841C89.3906 65.3916 89.1842 65.9443 88.7789 66.3349C88.3736 66.7255 87.7987 66.9245 87.0618 66.9245C86.6491 66.9245 86.2806 66.8655 85.9563 66.7403C85.632 66.6223 85.352 66.4381 85.1088 66.1875C84.873 65.9443 84.6887 65.6569 84.5634 65.3326C84.4382 65.001 84.3718 64.6546 84.3718 64.2788C84.3718 63.9029 84.4382 63.5492 84.5634 63.2249C84.6961 62.9006 84.8877 62.6206 85.1383 62.3774C85.3888 62.1342 85.6763 61.95 86.0005 61.8247C86.3322 61.6994 86.6859 61.6331 87.0618 61.6331C87.4597 61.6331 87.8135 61.7068 88.1304 61.8468C88.4399 61.9942 88.7199 62.2153 88.9705 62.5101L88.3736 62.9596C88.2041 62.7606 88.0125 62.6132 87.7987 62.5174C87.585 62.4216 87.3492 62.37 87.0839 62.37C86.5385 62.37 86.0963 62.5469 85.75 62.8933C85.4036 63.2396 85.2341 63.6966 85.2341 64.2567C85.2341 64.8168 85.4036 65.2884 85.75 65.6422C86.0963 65.9959 86.5459 66.1728 87.0986 66.1728C87.5703 66.1728 87.9388 66.0622 88.2041 65.8485C88.4694 65.6348 88.602 65.3326 88.602 64.9568V64.8831H87.3934V64.1903L87.386 64.2051Z" fill="#313132"/>
<path d="M93.5839 66.7838L93.009 65.4867H91.0118L90.4296 66.7838H89.5674L92.0067 61.5439L94.4461 66.7838H93.5839ZM91.3214 64.8013H92.729L92.2131 63.6517C92.1836 63.578 92.1468 63.4969 92.1173 63.4011C92.0878 63.3053 92.051 63.2021 92.0215 63.0842C91.992 63.1948 91.9625 63.2979 91.9331 63.3937C91.9036 63.4895 91.8667 63.578 91.8372 63.659L91.3214 64.8087V64.8013Z" fill="#313132"/>
<path d="M94.925 66.7838V61.5439L98.1309 64.6245C98.2193 64.7129 98.3077 64.8087 98.3962 64.9045C98.4846 65.0003 98.5804 65.1109 98.6762 65.2362V61.7429H99.4353V66.9754L96.1705 63.8359C96.0821 63.7549 96.001 63.659 95.92 63.5706C95.8389 63.4748 95.7652 63.379 95.6915 63.2758V66.7838H94.9398H94.925Z" fill="#313132"/>
</g>
<defs>
<radialGradient id="paint0_radial_319_126" cx="0" cy="0" r="1" gradientUnits="userSpaceOnUse" gradientTransform="translate(29.4749 54.7867) scale(19.2201)">
<stop stop-color="#C40015"/>
<stop offset="0.14" stop-color="#AC0114"/>
<stop offset="0.37" stop-color="#8E0413"/>
<stop offset="0.59" stop-color="#770612"/>
<stop offset="0.81" stop-color="#6A0712"/>
<stop offset="1" stop-color="#660812"/>
</radialGradient>
<radialGradient id="paint1_radial_319_126" cx="0" cy="0" r="1" gradientUnits="userSpaceOnUse" gradientTransform="translate(29.475 54.7867) scale(19.2201)">
<stop stop-color="#C40015"/>
<stop offset="0.14" stop-color="#AC0114"/>
<stop offset="0.37" stop-color="#8E0413"/>
<stop offset="0.59" stop-color="#770612"/>
<stop offset="0.81" stop-color="#6A0712"/>
<stop offset="1" stop-color="#660812"/>
</radialGradient>
<linearGradient id="paint2_linear_319_126" x1="40.8096" y1="41.904" x2="-1.69138" y2="33.9669" gradientUnits="userSpaceOnUse">
<stop stop-color="#E77D62"/>
<stop offset="0.02" stop-color="#D76854"/>
<stop offset="0.04" stop-color="#C24B41"/>
<stop offset="0.07" stop-color="#B13532"/>
<stop offset="0.1" stop-color="#A62628"/>
<stop offset="0.14" stop-color="#9F1C21"/>
<stop offset="0.19" stop-color="#9D1A20"/>
<stop offset="0.22" stop-color="#A01E23"/>
<stop offset="0.26" stop-color="#AA2B2B"/>
<stop offset="0.3" stop-color="#BA423A"/>
<stop offset="0.34" stop-color="#D1604F"/>
<stop offset="0.38" stop-color="#E77D62"/>
<stop offset="0.43" stop-color="#D76753"/>
<stop offset="0.52" stop-color="#C24B41"/>
<stop offset="0.61" stop-color="#B13532"/>
<stop offset="0.71" stop-color="#A52628"/>
<stop offset="0.83" stop-color="#9F1C21"/>
<stop offset="1" stop-color="#9D1A20"/>
</linearGradient>
<linearGradient id="paint3_linear_319_126" x1="-12.8714" y1="43.7469" x2="45.9461" y2="41.4991" gradientUnits="userSpaceOnUse">
<stop stop-color="#7F8083"/>
<stop offset="0.15" stop-color="#818285"/>
<stop offset="0.26" stop-color="#8B8B8E"/>
<stop offset="0.35" stop-color="#9A9B9D"/>
<stop offset="0.44" stop-color="#B0B1B3"/>
<stop offset="0.52" stop-color="#CCCDCE"/>
<stop offset="0.59" stop-color="#EFEFEF"/>
<stop offset="0.62" stop-color="white"/>
<stop offset="0.64" stop-color="#F1F2F2"/>
<stop offset="0.69" stop-color="#D3D4D5"/>
<stop offset="0.73" stop-color="#BCBEC0"/>
<stop offset="0.77" stop-color="#AFB1B4"/>
<stop offset="0.81" stop-color="#ABADB0"/>
<stop offset="0.87" stop-color="#ADAFB2"/>
<stop offset="0.9" stop-color="#B7B8BB"/>
<stop offset="0.94" stop-color="#C6C8CA"/>
<stop offset="0.97" stop-color="#DCDDDE"/>
<stop offset="1" stop-color="white"/>
</linearGradient>
<clipPath id="clip0_319_126">
<rect width="98.857" height="98.857" fill="white" transform="translate(0.571045)"/>
</clipPath>
</defs>
</svg>
