<svg width="99" height="99" viewBox="0 0 99 99" fill="none" xmlns="http://www.w3.org/2000/svg">
<g clip-path="url(#clip0_129_7357)">
<path fill-rule="evenodd" clip-rule="evenodd" d="M23.504 66.0766C24.6611 67.4326 27.4763 67.2705 28.5007 66.2756C29.2524 65.546 29.5619 64.6248 29.6946 63.6299C29.8198 62.7234 29.8272 61.8096 29.8272 60.8884C29.8272 58.9575 29.8272 57.0193 29.8272 55.0884C29.8272 54.8526 29.7977 54.661 30.1515 54.661C32.2445 54.661 34.3448 54.5283 36.4305 54.7641C38.0813 54.9484 39.6142 55.4127 40.7417 56.7392C41.2355 57.3141 41.5598 57.9994 41.8988 58.6701C41.9356 58.7438 41.943 58.847 42.1346 58.8691C42.1346 58.6701 42.1346 58.4785 42.1346 58.2795C42.1346 57.174 42.142 56.0686 42.1272 54.9558C42.1272 54.661 42.1935 54.5431 42.5178 54.5431C45.053 54.5578 47.5955 54.5504 50.1307 54.5431C50.4181 54.5431 50.5139 54.6168 50.5213 54.9115C50.5434 56.0023 50.5508 56.0023 49.4527 56.0023C47.9788 56.0023 46.4974 56.0096 45.0235 56.0023C44.6919 56.0023 44.5961 56.0981 44.5961 56.4297C44.6034 57.6088 44.5961 58.788 44.5666 59.9745C44.5592 60.3504 44.6476 60.483 45.053 60.4757C46.6154 60.4535 48.1851 60.4757 49.7475 60.4535C50.1602 60.4535 50.2634 60.5788 50.256 60.9768C50.2265 61.9349 50.2486 61.9349 49.3053 61.9349C47.8756 61.9349 46.4385 61.9422 45.0088 61.9349C44.6992 61.9349 44.5592 61.9864 44.5666 62.3402C44.5887 63.6962 44.5813 65.0596 44.5666 66.4156C44.5666 66.703 44.6403 66.7915 44.9351 66.7915C46.9249 66.7767 48.9221 66.7767 50.9119 66.7915C51.3025 66.7915 51.2877 66.6072 51.2877 66.3346C51.2877 62.5834 51.2877 58.8396 51.273 55.0884C51.273 54.6683 51.3909 54.602 51.7962 54.5357C52.8648 54.3662 53.4692 54.8894 54.103 55.6633C56.4097 58.4932 58.7827 61.279 61.1336 64.0794C61.2 64.1531 61.2737 64.2268 61.3621 64.3226C61.4726 64.1384 61.4284 63.9615 61.4284 63.792C61.4284 60.8663 61.4358 57.9479 61.4284 55.0221C61.4284 54.661 61.5095 54.5504 61.8853 54.5504C66.064 54.5652 70.2426 54.5652 74.4138 54.5504C74.8191 54.5504 74.9002 54.6683 74.8928 55.0516C74.8707 56.0686 74.8928 56.0686 73.8832 56.0686C72.9841 56.0686 72.085 56.0907 71.1859 56.0612C70.7732 56.0465 70.7069 56.1865 70.7069 56.5624C70.7216 60.2988 70.7069 64.0278 70.7216 67.7643C70.7216 68.1475 70.6405 68.2728 70.2426 68.2507C69.6383 68.2138 69.0339 68.2212 68.4296 68.2507C68.0906 68.2654 68.0096 68.1549 68.0169 67.8306C68.0317 64.1089 68.0243 60.3946 68.0169 56.6729C68.0169 55.9359 68.0833 56.0391 67.3831 56.0317C66.2335 56.0317 65.0838 56.0391 63.9268 56.0244C63.5583 56.0244 63.4551 56.1423 63.4551 56.5034C63.4698 60.2546 63.4551 63.9984 63.4698 67.7495C63.4698 68.1696 63.3298 68.2138 62.954 68.2581C61.8485 68.4054 61.1336 67.9854 60.4409 67.1084C58.1858 64.2858 55.8275 61.5516 53.506 58.788C53.4176 58.6775 53.3513 58.5374 53.1891 58.5006C53.0859 58.6553 53.1302 58.8175 53.1302 58.9722C53.1302 61.9422 53.1302 64.9048 53.1375 67.8748C53.1375 68.2286 53.0638 68.3539 52.688 68.3465C49.3643 68.3023 46.0479 68.2728 42.7242 68.2581C42.3852 68.2581 42.3115 68.1475 42.3115 67.8232C42.3262 66.4083 42.3188 64.9933 42.3188 63.5709C42.0904 63.5709 42.1198 63.7404 42.0756 63.8436C41.6924 64.7574 41.2723 65.6418 40.5501 66.3567C39.6068 67.2779 38.435 67.7422 37.1822 68.0075C34.9639 68.4791 32.7235 68.457 30.4831 68.2654C30.4389 68.2654 30.402 68.2359 30.321 68.2065C30.8221 67.8969 31.2717 67.58 31.5665 67.0936C31.677 66.9094 31.8539 66.9757 32.0086 66.9831C33.232 67.0052 34.4554 66.9831 35.664 66.7252C37.9928 66.224 39.2162 64.7132 39.5994 62.4434C39.7689 61.4337 39.8205 60.4167 39.5773 59.4071C39.1204 57.4836 37.7644 56.5697 35.9367 56.1865C34.8312 55.958 33.7037 55.9949 32.5835 56.0096C32.2445 56.0096 32.215 56.1939 32.215 56.4592C32.2297 58.5669 32.3182 60.682 32.1929 62.7897C32.156 63.4088 32.0676 64.0205 32.0013 64.6395C31.8465 66.1061 31.0653 67.0936 29.7609 67.7422C27.3215 68.9582 24.9043 68.9213 22.5017 67.6832C21.7869 67.3147 21.1973 66.7767 20.8509 66.0177C20.8141 65.745 20.6888 65.5092 20.5119 65.2954V65.2733C20.4309 65.0817 20.6519 64.8017 20.3351 64.6764C20.3351 64.6469 20.3351 64.6101 20.3277 64.5806C20.3277 61.4558 20.3277 58.3311 20.3203 55.2063C20.3203 54.8673 20.4014 54.7199 20.7625 54.7568C21.1015 54.7863 21.4405 54.7568 21.7795 54.7568C22.3691 54.7568 22.4502 54.8378 22.4502 55.4127C22.4502 57.8152 22.4575 60.2177 22.4502 62.6202C22.4502 63.2098 22.7376 63.7625 22.6418 64.3595C22.627 64.4406 22.7155 64.4774 22.7892 64.4921C22.7892 64.529 22.7965 64.5585 22.8039 64.5953C22.8039 65.1996 23.0324 65.7008 23.504 66.0914V66.0766Z" fill="#D72D21"/>
<path fill-rule="evenodd" clip-rule="evenodd" d="M10.0692 61.5735C10.0692 59.451 10.0692 57.3212 10.0692 55.1987C10.0692 54.9629 10.0471 54.7713 10.4009 54.7786C12.2875 54.8229 14.1815 54.7197 16.0682 54.8376C16.4072 54.8597 16.7462 54.8966 17.0778 54.9555C18.4928 55.2135 19.3477 56.0536 19.6793 57.4538C20.151 59.4658 19.6277 60.8807 17.9327 62.0599C17.66 62.2515 17.7411 62.3768 17.8664 62.5831C18.9423 64.3077 20.0183 66.0322 21.0943 67.764C21.3891 68.2357 21.3817 68.2431 20.8511 68.2725C20.2173 68.3094 19.5835 68.3315 18.9497 68.3831C18.6918 68.4052 18.5591 68.302 18.4338 68.0883C17.4684 66.467 16.4809 64.8604 15.5154 63.239C15.3459 62.9516 15.1543 62.8337 14.8079 62.8558C14.2331 62.8853 13.6583 62.8779 13.0834 62.8558C12.7886 62.8411 12.7149 62.9516 12.7149 63.2317C12.7297 64.8088 12.7149 66.3933 12.7297 67.9704C12.7297 68.3315 12.6191 68.4126 12.2875 68.3978C11.6832 68.3757 11.0789 68.3683 10.4746 68.3978C10.1134 68.4199 10.0471 68.2799 10.0471 67.9483C10.0619 65.8258 10.0545 63.696 10.0545 61.5735H10.0766H10.0692ZM12.7149 58.574C12.7149 59.3405 12.7149 60.1069 12.7149 60.8734C12.7149 61.0134 12.6707 61.1903 12.9066 61.1903C13.8794 61.1829 14.8522 61.3524 15.8176 61.1092C16.2966 60.9839 16.6725 60.7186 16.9157 60.2838C17.5126 59.2299 17.3652 57.4023 16.5914 56.4663C16.3703 56.201 16.1197 55.9873 15.7365 55.9946C14.8374 56.002 13.9383 56.002 13.0392 55.9946C12.7886 55.9946 12.7076 56.061 12.7076 56.3189C12.7223 57.0706 12.7076 57.8223 12.7076 58.574H12.7149Z" fill="#D82C21"/>
<path fill-rule="evenodd" clip-rule="evenodd" d="M22.7893 64.4771C22.7156 64.4623 22.6272 64.4181 22.6419 64.3444C22.7377 63.7475 22.443 63.1948 22.4503 62.6052C22.4651 60.2027 22.4503 57.8001 22.4503 55.3976C22.4503 54.8228 22.3693 54.7417 21.7797 54.7417C21.4407 54.7417 21.1017 54.7638 20.7627 54.7417C20.4016 54.7122 20.3205 54.8523 20.3205 55.1913C20.3352 58.316 20.3279 61.4408 20.3279 64.5655C20.1584 64.1454 20.1878 63.6959 20.1878 63.2537C20.1731 60.5269 20.1878 57.8001 20.1731 55.0734C20.1731 54.7417 20.2615 54.6312 20.5932 54.6533C21.0943 54.6828 21.5954 54.6754 22.0966 54.6533C22.4209 54.6385 22.5314 54.7344 22.5314 55.0734C22.5388 57.2843 22.5756 59.4952 22.5904 61.7061C22.5904 62.6347 22.6493 63.5632 22.7893 64.4771Z" fill="#D53025"/>
<path fill-rule="evenodd" clip-rule="evenodd" d="M78.2607 67.3441C78.2534 67.5063 78.2607 67.7274 78.0323 67.6905C77.8185 67.6537 77.8996 67.4252 77.8996 67.2778C77.8996 63.2761 77.8922 59.2817 77.8996 55.28C77.8996 54.8673 77.8112 54.683 77.369 54.7346C77.0521 54.7714 76.7278 54.7346 76.4036 54.7125C76.89 54.5725 77.3985 54.7493 77.8849 54.5798C78.1502 54.6535 78.0249 54.8673 78.0249 55.0146C78.0323 59.0238 78.0249 63.0255 78.0249 67.0346C78.0249 67.1525 77.9954 67.2852 78.0396 67.3884C78.1428 67.661 78.1797 67.3736 78.246 67.3515L78.2607 67.3441Z" fill="#D53025"/>
<path fill-rule="evenodd" clip-rule="evenodd" d="M23.5041 66.0766C23.0324 65.686 22.804 65.1923 22.804 64.5806C23.0029 65.0964 23.1798 65.6197 23.5041 66.0766Z" fill="#D53025"/>
<path fill-rule="evenodd" clip-rule="evenodd" d="M20.519 65.2735C20.6965 65.4879 20.8148 65.7245 20.8591 65.998C20.6669 65.7984 20.5634 65.547 20.519 65.2735Z" fill="#D53025"/>
<path fill-rule="evenodd" clip-rule="evenodd" d="M20.3425 64.6541C20.6604 64.7797 20.4386 65.0607 20.52 65.2529C20.3943 65.0755 20.3499 64.8685 20.3425 64.6541Z" fill="#D53025"/>
<path fill-rule="evenodd" clip-rule="evenodd" d="M98.9696 66.88C98.9917 66.5705 98.8811 66.4747 98.5716 66.4747C97.2008 66.4894 95.8301 66.4821 94.4519 66.4747C93.7445 66.4747 93.8255 66.5779 93.8255 65.8335C93.8255 62.1856 93.8182 58.5449 93.8329 54.8969C93.8329 54.499 93.715 54.3884 93.3391 54.4105C92.838 54.44 92.3368 54.44 91.8357 54.4105C91.4525 54.3884 91.3419 54.4916 91.3419 54.8896C91.3419 58.8766 91.3198 62.8562 91.2977 66.8432C91.2977 66.9832 91.3346 67.1306 91.224 67.3149C91.1503 67.1748 91.084 67.0643 91.0398 66.9537C89.4258 63.1878 87.8192 59.4219 86.2126 55.656C85.682 54.4032 85.6894 54.4105 84.2891 54.4105C83.9944 54.4105 83.8543 54.499 83.729 54.779C82.8078 56.9162 81.8645 59.0461 80.9286 61.1759C80.0368 63.2247 79.1451 65.2808 78.2534 67.337C78.246 67.4991 78.2534 67.7202 78.0249 67.6833C77.8112 67.6465 77.8923 67.418 77.8923 67.2706C77.8923 63.2689 77.8849 59.2745 77.8923 55.2728C77.8923 54.8601 77.8038 54.6758 77.3616 54.7274C77.0447 54.7643 76.7205 54.7274 76.3962 54.7053C76.8826 54.5653 77.3911 54.7422 77.8775 54.5727C77.1848 54.5653 76.492 54.5727 75.7993 54.5432C75.475 54.5284 75.3718 54.6243 75.3718 54.9633C75.3866 59.2598 75.3866 63.5489 75.3718 67.8455C75.3718 68.1771 75.4824 68.2287 75.7772 68.2287C77.0595 68.214 78.3418 68.214 79.6315 68.2287C79.941 68.2287 80.0663 68.1108 80.1769 67.8528C80.619 66.8432 81.0907 65.8409 81.5329 64.8313C81.6213 64.6249 81.7392 64.5512 81.9677 64.5512C83.6627 64.5586 85.3651 64.5512 87.0602 64.5512C87.2812 64.5512 87.3992 64.6323 87.495 64.8386C87.9445 65.8335 88.4162 66.8137 88.8584 67.816C88.9984 68.1255 89.1605 68.2434 89.5143 68.2434C92.2263 68.2287 94.9457 68.2434 97.6578 68.2287C98.0778 68.2287 98.6527 68.4277 98.8811 68.1329C99.0948 67.8602 98.9327 67.3149 98.9622 66.8874L98.9696 66.88ZM86.4485 62.9004C85.1809 62.8857 83.9133 62.9004 82.6457 62.893C82.4688 62.893 82.2551 62.9373 82.3804 62.6277C83.0437 60.9622 83.7069 59.2893 84.4144 57.4984C84.6797 58.0733 84.9082 58.5449 85.1219 59.0313C85.6378 60.1884 86.1463 61.3454 86.6769 62.4951C86.8022 62.7678 86.8464 62.9078 86.4485 62.9078V62.9004Z" fill="#D82C21"/>
<path fill-rule="evenodd" clip-rule="evenodd" d="M9.2878 57.1153C8.90458 56.0246 8.20446 55.2213 7.02531 54.9634C6.53891 54.8528 6.03777 54.7865 5.53663 54.757C3.88582 54.6465 2.23501 54.7865 0.576829 54.7718C0.223084 54.7718 0.134648 54.8897 0.142018 55.2287C0.156757 57.3364 0.142018 59.4515 0.149387 61.5592C0.149387 63.6964 0.156757 65.841 0.149387 67.9782C0.149387 68.3025 0.230454 68.4204 0.56209 68.3983C1.04849 68.3688 1.53489 68.3688 2.02129 68.3983C2.36029 68.4204 2.44136 68.3099 2.44136 67.9782C2.42662 66.519 2.44873 65.0598 2.42662 63.5933C2.42662 63.1879 2.5298 63.0627 2.9425 63.0774C3.90056 63.1069 4.85862 63.1806 5.81668 63.0848C7.099 62.9595 8.26341 62.5615 8.94879 61.3824C9.73735 60.0263 9.81105 58.5819 9.29517 57.1153H9.2878ZM7.01057 60.4833C6.73789 61.1465 6.19253 61.4708 5.52926 61.6108C4.60068 61.8024 3.65736 61.7508 2.71404 61.6919C2.48558 61.6772 2.42662 61.574 2.42662 61.3529C2.43399 60.5422 2.42662 59.7316 2.42662 58.9209C2.42662 58.1397 2.44136 57.3585 2.42662 56.5773C2.41925 56.2457 2.50032 56.113 2.86143 56.1278C3.64262 56.1573 4.42381 56.1351 5.20499 56.1351C6.29571 56.1351 6.89265 56.5478 7.18744 57.5796C7.46749 58.5598 7.40116 59.5326 7.01794 60.4759L7.01057 60.4833Z" fill="#D72D21"/>
<path d="M28.6113 30.7387C28.6113 30.7387 28.9356 29.2574 29.5841 28.8521C30.2327 28.4468 30.2179 29.1174 30.4243 29.4343C30.6306 29.7586 31.1096 30.2744 32.9447 29.9207C34.7724 29.5596 36.6443 28.0562 38.4351 29.4859C40.226 30.9156 40.8524 31.4389 40.8524 31.4389C40.8524 31.4389 42.3042 32.0948 40.2997 33.3034L38.2951 34.512C38.2951 34.512 38.5899 34.9026 34.1681 33.5171C34.1681 33.5171 32.0898 34.2172 31.714 34.851C31.3381 35.4922 31.3234 34.77 31.4044 34.3867C31.4855 33.9961 31.5518 32.6327 32.7899 32.2495C34.028 31.8663 36.3127 31.8663 37.6908 32.4264C39.0615 32.9865 38.7815 32.0358 38.6488 31.9621C38.5236 31.8884 37.2339 31.1662 37.1159 30.6871C36.998 30.2008 34.8756 30.3997 34.2344 30.6577C33.5932 30.9156 31.795 31.4315 31.795 31.4315C31.795 31.4315 29.5915 32.5443 28.6187 30.7535L28.6113 30.7387Z" fill="#EC2227"/>
<path d="M42.2821 28.6829C42.2821 28.6829 40.5723 27.6143 40.9998 29.3461C40.9998 29.3461 40.6165 31.7929 43.019 31.3875C45.4289 30.9822 54.5084 30.4369 55.7097 32.3456L56.8298 33.6353L57.5816 31.1001C57.5816 31.1001 57.4194 30.1347 56.5424 29.7957C55.6728 29.4567 49.0548 28.4986 46.2322 29.6778C43.4096 30.8569 42.9454 29.7588 42.2894 28.6902L42.2821 28.6829Z" fill="#EC2227"/>
<path d="M65.2607 36.045C65.2607 36.045 65.6955 36.0966 65.5112 35.1975C65.327 34.2984 64.3911 32.6402 63.1087 34.3205C61.8264 36.0008 60.5146 41.5723 60.5146 41.5723C60.5146 41.5723 59.9398 43.7685 60.6915 45.0361C60.6915 45.0361 62.2981 36.3251 64.45 35.8755C64.45 35.8755 64.9806 35.8461 65.2607 36.045Z" fill="#4B4B4D"/>
<path d="M50.7425 33.9227C50.7425 33.9227 48.2074 33.9964 47.5367 34.7334C46.8661 35.4703 45.3037 34.2985 46.844 33.65C48.3842 33.0015 49.895 33.3405 50.3446 33.4731C50.7941 33.6058 51.31 33.7606 51.31 33.7606C51.31 33.7606 51.5237 33.8711 50.7352 33.9227H50.7425Z" fill="#4B4B4D"/>
<path d="M53.0271 44.0411C53.0271 44.0411 53.6757 43.6358 53.2335 43.3558C52.7913 43.0757 52.6587 43.4737 52.4892 43.4516C52.2607 43.4221 52.1059 43.3558 52.0175 43.142C51.9291 42.9283 51.5532 42.9431 51.4206 43.1199C51.2953 43.3042 50.3593 43.6284 50.1824 43.6137C50.0056 43.599 49.3792 43.5621 49.3792 43.5621C49.3792 43.5621 49.5781 43.9969 50.0572 44.0264C50.5436 44.0559 51.2068 43.6579 51.5016 43.7906C52.327 44.1664 53.0198 44.0338 53.0198 44.0338L53.0271 44.0411Z" fill="#4B4B4D"/>
<path d="M52.9091 44.6897C52.9091 44.6897 51.9584 44.9771 51.2215 44.6897C50.4845 44.3949 50.6171 44.7192 50.7056 44.9329C50.794 45.1466 52.069 45.633 52.4301 45.4414C52.7838 45.2498 53.3881 44.8592 52.9091 44.6897Z" fill="#4B4B4D"/>
<path d="M56.8594 38.4475C57.0511 37.74 57.8912 37.4969 57.5153 38.8897C57.1395 40.2826 56.8889 42.7883 53.6978 47.0996C53.6978 47.0996 52.4229 49.1188 51.1037 48.7725C49.7845 48.4187 45.6649 47.5712 45.2448 45.913C45.2448 45.913 44.8911 45.0581 45.9228 45.8909C46.9546 46.7237 49.814 48.0945 50.9784 47.7628C52.1428 47.4312 53.322 47.7407 54.7886 44.3138C56.2551 40.8869 56.4688 39.892 56.8594 38.4549V38.4475Z" fill="#4B4B4D"/>
<path d="M41.8179 40.5038C41.8179 40.5038 41.7073 41.5208 41.3462 40.5922C41.3462 40.5922 40.5945 38.4402 40.5871 37.5854C40.5798 36.7305 40.2555 34.9102 41.1251 35.7651C41.9948 36.6199 41.4715 37.519 41.4715 38.5287C41.4715 39.5383 41.8253 40.5038 41.8253 40.5038H41.8179Z" fill="#4B4B4D"/>
<path d="M41.5083 43.8203C41.3241 43.3044 40.7787 42.7148 40.0491 42.2211C40.1081 41.5136 40.1228 40.9756 40.0491 40.725C39.7617 39.7006 39.5111 39.2658 39.5111 39.2658C39.5111 39.2658 39.1647 40.0396 38.7889 41.5725C38.4646 41.4472 38.133 41.3441 37.7866 41.2925C36.0031 40.9829 37.3444 42.7738 37.3444 42.7738C37.3444 42.7738 37.8898 42.6706 38.5309 42.7148C38.3172 43.7761 38.1256 45.0879 38.0003 46.6429C37.7571 46.7534 37.4918 46.8713 37.2118 47.0114C34.4481 48.3674 36.0768 50.2024 36.1874 50.6815C36.2979 51.1605 36.8949 51.2268 37.0128 50.9247C37.1307 50.6225 36.8949 49.8413 36.9686 48.699C36.9981 48.2274 37.396 47.8736 37.934 47.5641C37.8824 48.5369 37.8529 49.5907 37.8677 50.733C37.8677 50.733 38.1551 52.8039 38.6931 50.3424C38.8773 49.5023 39.1279 48.2347 39.3637 46.8861C39.7912 46.6945 40.2112 46.5028 40.5724 46.2818C41.8989 45.4785 41.8399 44.7857 41.4936 43.8129L41.5083 43.8203ZM39.5259 46.0312C39.688 45.0436 39.8354 44.0635 39.9386 43.2086C40.2039 43.4223 40.4176 43.7171 40.5134 44.1372C40.7861 45.3384 40.4913 45.6332 39.5259 46.0386V46.0312Z" fill="#4B4B4D"/>
<path d="M39.7026 36.9883C39.7026 36.9883 39.4152 38.5949 38.0297 39.6045C38.0297 39.6045 36.74 40.113 37.7938 38.477C38.4645 37.8947 38.8993 37.9316 39.3046 37.1946C39.71 36.4577 39.7026 36.9883 39.7026 36.9883Z" fill="#4B4B4D"/>
<path d="M50.3962 35.5147C50.8236 35.5516 51.1258 35.6474 51.1258 35.6474C51.1258 35.2715 51.3026 35.4336 50.3004 35.1388C49.2981 34.8441 48.0673 34.8146 47.6841 35.7284C47.3009 36.6423 48.2442 36.3696 48.2442 36.3696C48.4211 36.1116 48.6348 35.9274 48.8706 35.7948C48.9591 35.7432 49.0033 35.7948 48.9517 35.8832C48.6643 36.3033 48.8117 36.6275 49.1359 36.8412C49.4528 37.055 49.8287 37.0844 50.1087 36.6644C50.3151 36.3622 50.3519 36.0085 50.2414 35.7579C50.1972 35.6621 50.2709 35.5073 50.3888 35.5147H50.3962Z" fill="#4B4B4D"/>
<path d="M56.6602 35.3376C56.9698 35.2491 57.154 35.0649 56.4612 34.8659C55.7759 34.6596 53.7566 35.3744 53.8892 38.9782C54.0219 42.582 52.9017 41.8008 51.8773 41.7197C51.2951 41.6608 50.5286 41.2112 50.8603 41.8671C51.1919 42.5304 51.8257 42.1545 51.8257 42.1545C51.8257 42.1545 52.5185 42.2135 53.3586 42.2282C54.1914 42.2503 54.5599 40.15 54.6557 38.5655C54.663 37.9907 54.6778 37.2905 54.8031 36.9C55.0168 37.3274 55.4221 37.4158 55.7611 37.2611C56.1149 37.1063 56.2549 36.7452 56.0559 36.2809C55.9306 36.0082 55.9159 35.9198 55.6948 35.8387C56.2254 35.3081 56.6676 35.3376 56.6676 35.3376H56.6602Z" fill="#4B4B4D"/>
<path d="M57.8098 48.1608C57.8098 48.1608 58.053 45.3087 59.5195 46.9448C59.5195 46.9448 60.0944 47.6523 59.6669 47.7039C59.2395 47.7554 58.8784 47.5786 58.5099 48.743C58.1488 49.9074 57.8245 51.1234 57.1318 52.0814C56.4316 53.0395 55.9673 54.0639 55.9673 54.0639C55.9673 54.0639 55.2156 54.7419 55.4441 53.4596C55.6726 52.1773 56.1811 50.836 57.2939 50.3717C58.4067 49.9074 57.8024 48.1534 57.8024 48.1534L57.8098 48.1608Z" fill="#4B4B4D"/>
<path d="M60.8832 50.5706C60.8832 50.5706 59.1956 51.8308 59.3798 52.7447C59.5567 53.6585 58.0533 52.1699 58.4733 51.5066C58.8934 50.8433 60.5516 50.0621 60.8832 50.5706Z" fill="#4B4B4D"/>
<path d="M60.9346 48.8609C60.9346 48.8609 60.3008 49.6863 60.0724 49.6568C59.8439 49.6274 59.5565 49.2073 59.8513 48.7283C60.1387 48.2492 60.7725 48.3966 60.9051 48.3303C61.0378 48.2566 61.0083 48.6251 61.0083 48.6251L60.9346 48.8683V48.8609Z" fill="#4B4B4D"/>
<path d="M57.4195 26.9287C57.4195 26.9287 57.4342 28.6974 56.1445 27.5256L55.8424 26.0517C55.8424 26.0517 55.8129 25.1084 56.2993 25.6979C56.7857 26.2949 57.4195 26.9287 57.4195 26.9287Z" fill="#4B4B4D"/>
<path d="M53.7345 26.8552C53.7345 26.8552 54.5968 27.7543 54.5378 26.1551C54.4788 24.5632 53.5061 24.7991 52.7617 24.3495C52.01 23.9 51.4868 23.4062 51.4868 23.4062C51.4868 23.4062 49.7622 22.6103 51.0077 24.0032C52.2532 25.396 53.6756 25.8161 53.7345 26.8479V26.8552Z" fill="#4B4B4D"/>
<path d="M51.4499 27.2677C51.4499 27.2677 51.4499 28.2037 50.5213 27.592C49.6001 26.9803 48.2736 25.6169 47.8977 25.5064C47.5145 25.3958 45.0383 24.6515 44.7509 24.3641C44.4635 24.0767 43.2548 22.5659 44.773 23.2734C44.773 23.2734 45.3036 23.5092 45.7458 23.5239C46.2101 23.3618 46.4901 23.1776 47.6324 24.4967C48.2367 25.1232 48.6494 25.2484 49.2759 25.02C49.9023 24.7915 50.4919 25.0274 51.0372 26.3244C51.5826 27.6141 51.4426 27.2751 51.4426 27.2751L51.4499 27.2677Z" fill="#4B4B4D"/>
</g>
<defs>
<clipPath id="clip0_129_7357">
<rect width="98.857" height="98.857" fill="white" transform="translate(0.14209)"/>
</clipPath>
</defs>
</svg>
