<svg width="100" height="99" viewBox="0 0 100 99" fill="none" xmlns="http://www.w3.org/2000/svg">
<g clip-path="url(#clip0_129_8165)">
<path d="M44.4814 35.7724C43.796 35.5808 43.2359 35.3007 42.8085 34.9396C42.3737 34.5785 42.16 34.1658 42.16 33.7015V31.6306H42.5063C42.7274 32.9203 43.1549 33.8563 43.7813 34.4311C44.4151 35.0059 45.2847 35.2933 46.3975 35.2933C47.0976 35.2933 47.6946 35.1165 48.1884 34.7701C48.6821 34.4237 48.9327 33.9373 48.9327 33.3183C48.9327 32.7729 48.7632 32.3086 48.4316 31.9033C48.0926 31.5053 47.5546 31.0852 46.8029 30.6431L44.4225 29.2281C43.597 28.7417 43.0148 28.2405 42.6685 27.7394C42.3295 27.2383 42.1526 26.6266 42.1526 25.897C42.1526 24.9021 42.499 24.1062 43.1917 23.5092C43.8845 22.9123 44.7909 22.6101 45.9111 22.6101C46.567 22.6101 47.2229 22.7059 47.8641 22.8902C48.5126 23.0744 49.0432 23.3471 49.4633 23.7008C49.8834 24.0546 50.0897 24.4673 50.0897 24.9316V27.0024H49.7434C49.5223 25.7127 49.1096 24.7842 48.4979 24.2241C47.8862 23.664 47.024 23.3839 45.9111 23.3839C45.3142 23.3839 44.7909 23.5682 44.3414 23.9293C43.8918 24.2904 43.6634 24.7621 43.6634 25.3443C43.6634 25.8749 43.8255 26.3097 44.1571 26.6634C44.4888 27.0098 45.0415 27.4151 45.8153 27.8794L48.1957 29.2944C49.0727 29.825 49.6918 30.3114 50.0529 30.7684C50.414 31.2179 50.5983 31.7927 50.5983 32.4929C50.5983 33.5762 50.2371 34.4458 49.5149 35.0944C48.7927 35.7429 47.8125 36.0745 46.5744 36.0745C45.8669 36.0745 45.1668 35.9787 44.4814 35.7871V35.7724Z" fill="#231F20"/>
<path d="M54.1422 35.3006C53.5379 34.8805 53.0736 34.313 52.7641 33.5982C52.4546 32.8833 52.2998 32.08 52.2998 31.1883C52.2998 30.2966 52.4546 29.508 52.7641 28.7858C53.0736 28.0635 53.5232 27.4887 54.1127 27.076C54.7023 26.6559 55.3877 26.4496 56.1763 26.4496C57.4807 26.4496 58.4535 26.8107 59.0873 27.5403C59.7284 28.2699 60.0453 29.3238 60.0453 30.7019L60.0085 31.4757H54.1422C54.1422 32.5591 54.3707 33.4434 54.8423 34.1288C55.3066 34.8142 55.9478 35.1532 56.7585 35.1532C57.3628 35.1532 57.8787 35.0279 58.2987 34.7626C58.7188 34.5047 59.1094 34.1141 59.4705 33.5982L59.8611 33.8856C59.4337 34.5931 58.9399 35.109 58.3724 35.4332C57.805 35.7575 57.1417 35.9196 56.3752 35.9196C55.4982 35.9196 54.7539 35.7133 54.1496 35.2932L54.1422 35.3006ZM58.2103 30.7019C58.2103 29.567 58.0408 28.7047 57.7092 28.1078C57.3702 27.5182 56.8616 27.216 56.1763 27.216C55.7857 27.216 55.4393 27.3708 55.1298 27.673C54.8202 27.9751 54.577 28.3952 54.4002 28.9184C54.2233 29.449 54.1422 30.0386 54.1422 30.7019H58.2103Z" fill="#231F20"/>
<path d="M62.3531 25.2779C62.3531 24.622 62.2646 24.1356 62.0804 23.8187C61.8961 23.5018 61.535 23.347 60.997 23.347H60.6064V22.9564H62.3531C62.8321 22.9564 63.1858 23.0154 63.429 23.1407C63.6649 23.2659 63.8417 23.487 63.9449 23.8113C64.0481 24.1356 64.0997 24.622 64.0997 25.2852V35.7428H62.3604V25.2852L62.3531 25.2779Z" fill="#231F20"/>
<path d="M67.8731 35.6691C67.4456 35.4922 67.0845 35.2048 66.7824 34.8069C66.4802 34.4089 66.3254 33.8783 66.3254 33.2224C66.3254 32.2422 66.7824 31.5421 67.6888 31.1294C68.5953 30.7167 69.7892 30.5103 71.2631 30.5103H71.8453C71.8453 29.2427 71.6685 28.3805 71.3221 27.9162C70.9757 27.4519 70.4672 27.2161 69.8113 27.2161C69.2291 27.2161 68.7648 27.3414 68.4184 27.5846C68.0721 27.8278 67.8215 28.2552 67.6815 28.8669H66.8118C66.8118 28.4247 66.8339 28.0857 66.8855 27.8278C66.9371 27.5772 67.0698 27.3414 67.2909 27.1203C67.5267 26.8844 67.9099 26.7149 68.4405 26.6044C68.9712 26.4938 69.5607 26.4423 70.1945 26.4423C71.241 26.4423 72.0664 26.7223 72.6707 27.2824C73.2751 27.8425 73.5772 28.9185 73.5772 30.503V35.7281H72.6118L71.9338 34.8584H71.838C71.6095 35.1532 71.2631 35.4038 70.8136 35.6102C70.364 35.8165 69.7966 35.9197 69.1259 35.9197C68.7132 35.9197 68.2931 35.8312 67.8657 35.6617L67.8731 35.6691ZM71.0715 34.7479C71.3589 34.5415 71.6169 34.2615 71.8453 33.893V31.2768H71.2631C70.3051 31.2768 69.5534 31.4536 69.0006 31.8074C68.4479 32.1611 68.1679 32.6328 68.1679 33.215C68.1679 33.7972 68.3447 34.2615 68.6985 34.5784C69.0522 34.8953 69.487 35.0501 70.0029 35.0501C70.4304 35.0501 70.7841 34.9469 71.0641 34.7405L71.0715 34.7479Z" fill="#231F20"/>
<path d="M76.4282 28.9553C76.4282 28.2994 76.3398 27.813 76.1556 27.4961C75.9713 27.1792 75.6102 27.0245 75.0722 27.0245H74.8806V26.6339H76.4282C76.922 26.6339 77.2905 26.7002 77.5411 26.8402C77.7916 26.9729 77.9685 27.2013 78.0717 27.5109H78.1675C78.4033 27.2161 78.7129 26.9655 79.1034 26.7518C79.494 26.5454 79.9583 26.4423 80.4889 26.4423C81.0196 26.4423 81.3954 26.5381 81.6534 26.7297C81.8745 26.8992 82.0955 27.1866 82.3314 27.5993L81.5575 28.1815C81.4175 27.9899 81.2112 27.8425 80.9385 27.7467C80.6658 27.6509 80.3563 27.5993 80.0099 27.5993C79.6193 27.5993 79.2656 27.6877 78.9413 27.8572C78.617 28.0267 78.3591 28.2699 78.1675 28.5647V35.7281H76.4282V28.948V28.9553Z" fill="#231F20"/>
<path d="M84.8743 35.6691C84.4469 35.4922 84.0857 35.2048 83.7836 34.8069C83.4814 34.4089 83.3267 33.8783 83.3267 33.2224C83.3267 32.2422 83.7836 31.5421 84.6901 31.1294C85.5965 30.7167 86.7904 30.5103 88.2644 30.5103H88.8466C88.8466 29.2427 88.6697 28.3805 88.3233 27.9162C87.9769 27.4519 87.4684 27.2161 86.8125 27.2161C86.2303 27.2161 85.766 27.3414 85.4197 27.5846C85.0733 27.8278 84.8227 28.2552 84.6827 28.8669H83.8131C83.8131 28.4247 83.8352 28.0857 83.8868 27.8278C83.9383 27.5772 84.071 27.3414 84.2921 27.1203C84.5279 26.8844 84.9111 26.7149 85.4418 26.6044C85.9724 26.4938 86.562 26.4423 87.1957 26.4423C88.2422 26.4423 89.0676 26.7223 89.672 27.2824C90.2763 27.8425 90.5784 28.9185 90.5784 30.503V35.7281H89.613L88.935 34.8584H88.8392C88.6107 35.1532 88.2644 35.4038 87.8148 35.6102C87.3653 35.8165 86.7978 35.9197 86.1271 35.9197C85.7144 35.9197 85.2944 35.8312 84.8669 35.6617L84.8743 35.6691ZM88.0654 34.7479C88.3528 34.5415 88.6107 34.2615 88.8392 33.893V31.2768H88.257C87.2989 31.2768 86.5472 31.4536 85.9945 31.8074C85.4418 32.1611 85.1617 32.6328 85.1617 33.215C85.1617 33.7972 85.3386 34.2615 85.6923 34.5784C86.0461 34.8953 86.4809 35.0501 86.9968 35.0501C87.4242 35.0501 87.7779 34.9469 88.058 34.7405L88.0654 34.7479Z" fill="#231F20"/>
<path d="M93.3126 35.1533C93.0915 34.9322 92.9588 34.689 92.9072 34.4089C92.8557 34.1289 92.8262 33.7014 92.8262 33.1192H93.2168C93.3347 33.7604 93.6147 34.2615 94.0569 34.6227C94.4991 34.9838 95.1255 35.1533 95.9288 35.1533C96.6363 35.1533 97.1743 35.028 97.528 34.7848C97.8818 34.5416 98.0587 34.21 98.0587 33.7973C98.0587 33.4214 97.9186 33.1045 97.646 32.8318C97.3733 32.5591 96.9237 32.3012 96.3194 32.058L95.155 31.5716C94.3812 31.2621 93.799 30.901 93.4084 30.4883C93.0178 30.0756 92.8262 29.5671 92.8262 28.9554C92.8262 28.1668 93.121 27.5551 93.7179 27.1056C94.3148 26.656 95.0813 26.4349 96.0246 26.4349C97.447 26.4349 98.4124 26.6929 98.9283 27.2088C99.1494 27.4298 99.282 27.673 99.3336 27.9457C99.3852 28.2184 99.4073 28.6532 99.4073 29.2428H99.0167C98.9135 28.5943 98.6409 28.1005 98.206 27.7394C97.7639 27.3856 97.1669 27.2088 96.4078 27.2088C95.8035 27.2088 95.3245 27.334 94.9855 27.5846C94.6465 27.8352 94.4696 28.1668 94.4696 28.5648C94.4696 29.2354 94.9855 29.7881 96.0172 30.2082L97.1817 30.6946C98.0587 31.0557 98.6998 31.439 99.0978 31.8443C99.4957 32.2496 99.6947 32.7729 99.6947 33.4067C99.6947 34.1952 99.3778 34.8143 98.744 35.2565C98.1102 35.6986 97.2996 35.9271 96.3047 35.9271C94.8234 35.9271 93.8211 35.6692 93.3052 35.1533H93.3126Z" fill="#231F20"/>
<path d="M43.1692 43.695C43.1692 43.0391 43.0808 42.5527 42.8965 42.2358C42.7123 41.9189 42.3512 41.7641 41.8132 41.7641H41.4226V41.3735H46.4929C48.9986 41.3735 50.8927 41.9263 52.175 43.0391C53.4573 44.1519 54.0985 45.6995 54.0985 47.6894C54.0985 48.9717 53.8258 50.0919 53.2878 51.072C52.7424 52.0448 51.9391 52.8039 50.8779 53.3493C49.8167 53.8873 48.5196 54.1599 46.9941 54.1599H43.1619V43.7024L43.1692 43.695ZM49.5293 52.7671C50.2957 52.2954 50.9 51.6321 51.3422 50.7699C51.7844 49.915 51.9981 48.9054 51.9981 47.7631C51.9981 46.6208 51.7844 45.648 51.3496 44.7783C50.9148 43.9161 50.3104 43.2454 49.5366 42.7664C48.7628 42.2874 47.8858 42.0515 46.9057 42.0515C46.2866 42.0515 45.6381 42.1547 44.9674 42.3611V53.224C45.6897 53.3935 46.3456 53.4746 46.9425 53.4746C47.9006 53.4746 48.7628 53.2387 49.5293 52.7671Z" fill="#231F20"/>
<path d="M57.26 54.086C56.8326 53.9092 56.4715 53.6217 56.1693 53.2238C55.8672 52.8258 55.7124 52.2952 55.7124 51.6393C55.7124 50.6591 56.1693 49.959 57.0758 49.5463C57.9823 49.1336 59.1762 48.9272 60.6501 48.9272H61.2323C61.2323 47.6597 61.0554 46.7974 60.7091 46.3331C60.3627 45.8688 59.8542 45.633 59.1983 45.633C58.6161 45.633 58.1518 45.7583 57.8054 46.0015C57.459 46.2447 57.2085 46.6721 57.0684 47.2764H56.1988C56.1988 46.8343 56.2209 46.4952 56.2725 46.2373C56.3241 45.9794 56.4567 45.7509 56.6778 45.5298C56.9137 45.294 57.2969 45.1245 57.8275 45.0139C58.3655 44.9034 58.9477 44.8518 59.5815 44.8518C60.628 44.8518 61.4534 45.1319 62.0577 45.692C62.662 46.252 62.9642 47.328 62.9642 48.9199V54.145H61.9988L61.3207 53.2754H61.2249C60.9965 53.5701 60.6501 53.8281 60.2005 54.0344C59.751 54.2408 59.1835 54.344 58.5129 54.344C58.1002 54.344 57.6801 54.2555 57.2527 54.086H57.26ZM60.4585 53.1648C60.7459 52.9585 61.0038 52.671 61.2323 52.3099V49.6937H60.6501C59.692 49.6937 58.9403 49.8706 58.3876 50.2243C57.8349 50.5781 57.5548 51.0497 57.5548 51.6319C57.5548 52.2141 57.7317 52.6784 58.0854 52.9953C58.4392 53.3122 58.874 53.467 59.3899 53.467C59.8173 53.467 60.1711 53.3638 60.4511 53.1574L60.4585 53.1648Z" fill="#231F20"/>
<path d="M65.9566 47.3798C65.9566 46.7239 65.8681 46.2375 65.6839 45.9206C65.4997 45.6037 65.1385 45.4489 64.6006 45.4489H64.21V45.0583H65.9492C66.4282 45.0583 66.7893 45.1246 67.0399 45.2499C67.2905 45.3826 67.4747 45.5742 67.5926 45.8321H67.6884C67.9611 45.5594 68.3149 45.331 68.7423 45.1467C69.1771 44.9625 69.6635 44.8667 70.2015 44.8667C70.7395 44.8667 71.2112 44.9699 71.5944 45.1689C71.985 45.3678 72.2945 45.7216 72.523 46.2227C72.862 45.7953 73.2894 45.4636 73.8127 45.2278C74.3359 44.992 74.8739 44.8667 75.4266 44.8667C76.252 44.8667 76.9079 45.1246 77.4017 45.6405C77.8881 46.1564 78.1387 47.0629 78.1387 48.3526V54.1599H76.3994V48.3526C76.3994 47.424 76.2668 46.7533 76.0088 46.348C75.7509 45.9427 75.3603 45.7363 74.8444 45.7363C74.4833 45.7363 74.1001 45.869 73.7021 46.1343C73.3042 46.3996 73.002 46.687 72.8104 46.9965C72.8767 47.1882 72.9062 47.6377 72.9062 48.3526V54.1599H71.1669V48.3526C71.1669 47.424 71.0343 46.7533 70.7763 46.348C70.5184 45.9427 70.1278 45.7363 69.6119 45.7363C68.9266 45.7363 68.2854 46.0753 67.6737 46.7607V54.1599H65.9345V47.3798H65.9566Z" fill="#231F20"/>
<path d="M81.7796 54.086C81.3521 53.9092 80.991 53.6217 80.6889 53.2238C80.3867 52.8258 80.2319 52.2952 80.2319 51.6393C80.2319 50.6591 80.6889 49.959 81.5953 49.5463C82.5018 49.1336 83.6957 48.9272 85.1696 48.9272H85.7518C85.7518 47.6597 85.575 46.7974 85.2286 46.3331C84.8822 45.8688 84.3737 45.633 83.7178 45.633C83.1356 45.633 82.6713 45.7583 82.3249 46.0015C81.9785 46.2447 81.728 46.6721 81.588 47.2764H80.7183C80.7183 46.8343 80.7404 46.4952 80.792 46.2373C80.8436 45.9794 80.9763 45.7509 81.1974 45.5298C81.4332 45.294 81.8164 45.1245 82.347 45.0139C82.885 44.9034 83.4672 44.8518 84.101 44.8518C85.1475 44.8518 85.9729 45.1319 86.5772 45.692C87.1815 46.252 87.4837 47.328 87.4837 48.9199V54.145H86.5183L85.8403 53.2754H85.7445C85.516 53.5701 85.1696 53.8281 84.7201 54.0344C84.2705 54.2408 83.7031 54.344 83.0324 54.344C82.6197 54.344 82.1996 54.2555 81.7722 54.086H81.7796ZM84.9706 53.1648C85.2581 52.9585 85.516 52.671 85.7445 52.3099V49.6937H85.1623C84.2042 49.6937 83.4525 49.8706 82.8998 50.2243C82.347 50.5781 82.067 51.0497 82.067 51.6319C82.067 52.2141 82.2439 52.6784 82.5976 52.9953C82.9513 53.3122 83.3862 53.467 83.902 53.467C84.3295 53.467 84.6832 53.3638 84.9633 53.1574L84.9706 53.1648Z" fill="#231F20"/>
<path d="M90.4683 47.3793C90.4683 46.7234 90.3799 46.237 90.1956 45.9201C90.0114 45.6032 89.6503 45.4484 89.1123 45.4484H88.7217V45.0578H90.4609C90.94 45.0578 91.2937 45.1168 91.5369 45.2421C91.7727 45.3674 91.9496 45.5884 92.0528 45.9127C92.156 46.237 92.2075 46.7234 92.2075 47.3867V54.1668H90.4683V47.3867V47.3793ZM90.4388 43.5249C90.2251 43.2817 90.1219 42.987 90.1219 42.6553C90.1219 42.3826 90.203 42.1689 90.3651 42.0142C90.5273 41.8594 90.741 41.7783 91.0137 41.7783C91.3084 41.7783 91.5664 41.9036 91.7801 42.1468C91.9938 42.39 92.097 42.6848 92.097 43.0164C92.097 43.2891 92.0159 43.5028 91.8538 43.6576C91.6917 43.8124 91.4779 43.8861 91.2053 43.8861C90.9105 43.8861 90.6525 43.7608 90.4388 43.5176V43.5249Z" fill="#231F20"/>
<path d="M43.1692 62.1187C43.1692 61.4628 43.0808 60.9764 42.8965 60.6595C42.7123 60.3426 42.3512 60.1878 41.8132 60.1878H41.4226V59.7972H46.4929C48.9986 59.7972 50.8927 60.35 52.175 61.4628C53.4573 62.5756 54.0985 64.1232 54.0985 66.1131C54.0985 67.388 53.8258 68.5156 53.2878 69.4958C52.7424 70.4686 51.9391 71.2276 50.8779 71.773C49.8167 72.3183 48.5196 72.5836 46.9941 72.5836H43.1619V62.1261L43.1692 62.1187ZM49.5293 71.1908C50.2957 70.7191 50.9 70.0558 51.3422 69.1936C51.7844 68.3313 51.9981 67.3291 51.9981 66.1868C51.9981 65.0445 51.7844 64.0717 51.3496 63.202C50.9148 62.3398 50.3104 61.6691 49.5366 61.1901C48.7628 60.7111 47.8858 60.4753 46.9057 60.4753C46.2866 60.4753 45.6381 60.5784 44.9674 60.7848V71.6477C45.6897 71.8172 46.3456 71.8983 46.9425 71.8983C47.9006 71.8983 48.7628 71.6624 49.5293 71.1908Z" fill="#231F20"/>
<path d="M54.8069 75.8632C55.4259 75.8632 55.8902 75.5316 56.1924 74.8757C56.4945 74.2198 56.6493 73.2912 56.6493 72.0899V65.7962C56.6493 65.1403 56.5609 64.6539 56.3766 64.337C56.1924 64.0201 55.8313 63.8654 55.2933 63.8654H54.9027V63.4748H56.6419C57.121 63.4748 57.4747 63.5337 57.7179 63.659C57.9611 63.7843 58.1306 64.0054 58.2338 64.3297C58.337 64.6539 58.3886 65.1403 58.3886 65.8036V72.0973C58.3886 73.107 58.2854 73.9103 58.0717 74.5072C57.8579 75.1041 57.4968 75.5463 56.9809 75.8337C56.4651 76.1212 55.7428 76.2612 54.8143 76.2612V75.8706L54.8069 75.8632ZM56.6125 61.9419C56.3987 61.6987 56.2956 61.4039 56.2956 61.0723C56.2956 60.7996 56.3766 60.5859 56.5388 60.4311C56.7009 60.2763 56.9146 60.2026 57.1873 60.2026C57.4821 60.2026 57.74 60.3279 57.9537 60.5711C58.1675 60.8143 58.2706 61.1091 58.2706 61.4407C58.2706 61.7134 58.1896 61.9271 58.0274 62.0819C57.8653 62.2367 57.6516 62.3177 57.3789 62.3177C57.0841 62.3177 56.8262 62.1924 56.6125 61.9492V61.9419Z" fill="#231F20"/>
<path d="M61.4097 65.7962C61.4097 65.1403 61.3213 64.6539 61.137 64.337C60.9528 64.0201 60.5917 63.8654 60.0537 63.8654H59.6631V63.4748H61.4023C61.8814 63.4748 62.2351 63.5337 62.4783 63.659C62.7215 63.7843 62.891 64.0054 62.9942 64.3297C63.0974 64.6539 63.149 65.1403 63.149 65.8036V72.5837H61.4097V65.8036V65.7962ZM61.3802 61.9419C61.1665 61.6987 61.0633 61.4039 61.0633 61.0723C61.0633 60.7996 61.1444 60.5859 61.3065 60.4311C61.4687 60.2763 61.6824 60.2026 61.9551 60.2026C62.2498 60.2026 62.5078 60.3279 62.7215 60.5711C62.9352 60.8143 63.0384 61.1091 63.0384 61.4407C63.0384 61.7134 62.9573 61.9271 62.7952 62.0819C62.6331 62.2367 62.4194 62.3177 62.1467 62.3177C61.8519 62.3177 61.5939 62.1924 61.3802 61.9492V61.9419Z" fill="#231F20"/>
<path d="M66.3991 65.7006C66.0896 64.9784 65.7948 64.4699 65.5074 64.1825C65.22 63.8951 64.8515 63.7329 64.3872 63.7108V63.3202C64.4535 63.3202 64.542 63.3202 64.6673 63.2981C64.7925 63.2834 64.9178 63.276 65.0431 63.276C65.7285 63.276 66.3475 63.4455 66.9003 63.7919C67.453 64.1309 67.932 64.772 68.33 65.7006L70.0766 69.8645L72.7887 63.475H73.7541L69.7818 72.7682H69.3912L66.3918 65.7006H66.3991Z" fill="#231F20"/>
<path d="M76.4136 72.5028C75.9862 72.326 75.625 72.0386 75.3229 71.6406C75.0207 71.2426 74.866 70.712 74.866 70.0561C74.866 69.0759 75.3229 68.3758 76.2294 67.9631C77.1358 67.5504 78.3297 67.3441 79.8037 67.3441H80.3859C80.3859 66.0765 80.209 65.2142 79.8626 64.7499C79.5162 64.2856 79.0077 64.0498 78.3518 64.0498C77.7696 64.0498 77.3053 64.1751 76.959 64.4183C76.6126 64.6615 76.362 65.0889 76.222 65.7006H75.3524C75.3524 65.2584 75.3745 64.9194 75.4261 64.6615C75.4776 64.4109 75.6103 64.1751 75.8314 63.954C76.0672 63.7182 76.4504 63.5487 76.9811 63.4381C77.5117 63.3276 78.1013 63.276 78.7351 63.276C79.7815 63.276 80.607 63.556 81.2113 64.1161C81.8156 64.6762 82.1177 65.7522 82.1177 67.3367V72.5618H81.1523L80.4743 71.6922H80.3785C80.15 71.987 79.8037 72.2375 79.3541 72.4439C78.9046 72.6502 78.3371 72.7534 77.6664 72.7534C77.2537 72.7534 76.8337 72.665 76.4062 72.4955L76.4136 72.5028ZM79.6047 71.5816C79.8921 71.3753 80.15 71.0952 80.3785 70.7268V68.1105H79.7963C78.8382 68.1105 78.0865 68.2874 77.5338 68.6411C76.9811 68.9949 76.701 69.4665 76.701 70.0487C76.701 70.631 76.8779 71.0952 77.2316 71.4121C77.5854 71.729 78.0202 71.8838 78.5361 71.8838C78.9635 71.8838 79.3173 71.7806 79.5973 71.5743L79.6047 71.5816Z" fill="#231F20"/>
<path d="M17.3677 34.0921C18.5248 32.9793 19.9913 31.8517 21.8632 30.7757C20.0724 28.1006 18.1121 26.1844 17.3751 25.5138C16.6381 26.1918 14.6778 28.1079 12.887 30.7757C14.2946 31.5864 15.9012 32.6845 17.3751 34.0995L17.3677 34.0921Z" fill="#956DAE"/>
<path d="M11.5453 31.1C9.59233 30.0682 7.91204 29.4565 7.19718 29.2207C6.79184 30.0314 5.77483 32.2275 5.07471 34.9985C6.37177 35.0796 7.85308 35.2638 9.38597 35.6323C9.94607 33.9889 10.7051 32.4634 11.5453 31.1073V31.1Z" fill="#956DAE"/>
<path d="M16.7195 34.7628C15.3561 33.4584 13.8232 32.3898 12.3788 31.557C11.5681 32.8541 10.8385 34.3133 10.3005 35.8683C11.745 36.281 13.1968 36.8706 14.5307 37.7107C15.0466 36.7969 15.7541 35.7946 16.7269 34.7555L16.7195 34.7628Z" fill="#956DAE"/>
<path d="M27.5522 29.2205C26.8374 29.4563 25.1571 30.068 23.2041 31.0998C24.0442 32.4558 24.8033 33.9813 25.3634 35.6248C26.8963 35.2563 28.385 35.072 29.6747 34.991C28.9746 32.22 27.9576 30.0238 27.5522 29.2131V29.2205Z" fill="#956DAE"/>
<path d="M20.2272 37.7107C21.5611 36.8779 23.0055 36.2883 24.45 35.8683C23.912 34.3059 23.175 32.8541 22.3718 31.557C20.9273 32.3898 19.3944 33.451 18.031 34.7555C18.8564 35.6324 19.6155 36.6126 20.2345 37.7033L20.2272 37.7107Z" fill="#956DAE"/>
<path d="M17.3753 40.1427C17.589 39.9068 17.8027 39.671 18.0312 39.4426C18.4807 38.993 18.9597 38.6024 19.4609 38.2413C18.886 37.2022 18.1638 36.2662 17.3679 35.4187C16.572 36.2662 15.8497 37.2022 15.2749 38.2413C15.776 38.6024 16.2624 38.993 16.7046 39.4426C16.9331 39.671 17.1468 39.9068 17.3605 40.1427H17.3753Z" fill="#956DAE"/>
<path d="M4.47791 45.8982C3.58618 43.7536 2.83447 40.1425 4.10943 34.9469C2.22279 34.8879 0.940462 35.0279 0.940462 35.0279C0.940462 35.0279 -0.216579 45.2202 5.3549 50.7991C7.2047 52.6489 9.22399 54.0933 11.2064 55.0956C11.118 55.0293 11.0369 54.985 10.9485 54.9187C8.33226 52.8626 6.03292 49.6568 4.47054 45.8908L4.47791 45.8982Z" fill="#4C4199"/>
<path d="M8.48702 40.7913C8.48702 38.9783 8.84076 37.2465 9.38612 35.6251C7.85323 35.2566 6.36455 35.0724 5.07485 34.9913C4.27893 38.1456 3.90307 42.0515 5.34753 45.5374C7.28576 50.2097 10.3073 53.7767 13.2921 55.3538C12.4593 54.5652 11.6855 53.5335 11.0075 52.2585C9.37875 49.1854 8.48702 45.1173 8.48702 40.7913Z" fill="#4C4199"/>
<path d="M12.0399 50.0545C11.6419 46.7529 12.2831 42.8617 13.8454 39.0958C14.0223 38.6757 14.2581 38.2041 14.5308 37.7177C13.1969 36.8775 11.7451 36.2879 10.3006 35.8752C9.76263 37.4302 9.41626 39.0811 9.41626 40.7908C9.41626 45.5664 10.5438 49.8482 12.3052 52.6855C12.5779 53.1203 12.8653 53.5109 13.1674 53.8794C12.7031 52.9877 12.3568 51.9412 12.1578 50.7546C12.1209 50.5262 12.0693 50.2977 12.0399 50.0619V50.0545Z" fill="#4C4199"/>
<path d="M33.8019 35.0279C33.8019 35.0279 32.5195 34.8879 30.6329 34.9469C31.3772 37.9979 31.8194 42.1397 30.2644 45.8982C28.702 49.6641 26.4027 52.8699 23.7938 54.9261C23.7054 54.9924 23.6243 55.0366 23.5359 55.103C25.5183 54.1007 27.5303 52.6562 29.3874 50.8064C34.9589 45.2349 33.8019 35.0353 33.8019 35.0353V35.0279Z" fill="#4C4199"/>
<path d="M29.6755 34.9984C28.3784 35.0795 26.8971 35.2637 25.3642 35.6322C25.9096 37.2535 26.2633 38.9854 26.2633 40.7984C26.2633 45.1244 25.3642 49.1924 23.7429 52.2656C23.0796 53.5184 22.3205 54.5428 21.4951 55.3314C22.0626 55.0292 22.6374 54.6534 23.2123 54.1964C25.7032 52.2435 27.8994 49.1703 29.4028 45.5444C30.8472 42.0586 30.4714 38.1526 29.6755 34.9984Z" fill="#4C4199"/>
<path d="M20.9058 39.0958C22.4682 42.8617 23.1094 46.7603 22.7114 50.0545C22.5345 51.5358 22.1439 52.8182 21.5838 53.872C23.8316 51.1379 25.3277 46.3033 25.3277 40.7908C25.3277 39.0737 24.9813 37.4229 24.4433 35.8752C22.9988 36.2879 21.5544 36.8775 20.2205 37.7177C20.471 38.1598 20.6995 38.6168 20.8985 39.0958H20.9058Z" fill="#4C4199"/>
<path d="M17.3902 56.1494C17.685 56.0904 17.9724 56.0167 18.2524 55.8988C20.1686 55.1029 21.4288 52.9878 21.7899 49.9441C22.1658 46.7972 21.5467 43.0756 20.0507 39.4497C19.8811 39.037 19.6822 38.6316 19.4684 38.2484C18.9673 38.6095 18.4809 39.0001 18.0387 39.4497C17.8103 39.6781 17.5965 39.914 17.3828 40.1498C17.1691 39.914 16.9554 39.6781 16.7269 39.4497C16.2774 39.0001 15.7983 38.6095 15.2972 38.2484C15.0835 38.639 14.8845 39.037 14.715 39.4497C13.6243 42.088 13.0052 44.778 12.8873 47.2689C12.8431 48.1975 12.8652 49.0966 12.9684 49.9441C13.3369 52.9952 14.5897 55.1103 16.5058 55.8988C16.7932 56.0167 17.088 56.0904 17.3902 56.1494Z" fill="#4C4199"/>
</g>
<defs>
<clipPath id="clip0_129_8165">
<rect width="98.857" height="98.857" fill="white" transform="translate(0.844727)"/>
</clipPath>
</defs>
</svg>
