<svg width="100" height="99" viewBox="0 0 100 99" fill="none" xmlns="http://www.w3.org/2000/svg">
<g clip-path="url(#clip0_129_8117)">
<path d="M1.07373 62.8632V57.7118H2.74665C3.38044 57.7118 3.79314 57.7339 3.98476 57.7855C4.27954 57.8592 4.53011 58.0287 4.72909 58.2866C4.92808 58.5446 5.03125 58.8836 5.03125 59.2889C5.03125 59.6058 4.97229 59.8711 4.86175 60.0848C4.74383 60.2986 4.60381 60.4681 4.42694 60.5933C4.25007 60.7186 4.07319 60.7997 3.88895 60.8365C3.63838 60.8881 3.27727 60.9102 2.81298 60.9102H2.13497V62.8558H1.07373V62.8632ZM2.11286 58.5814V60.0406H2.68032C3.09302 60.0406 3.3657 60.0111 3.50573 59.9595C3.64575 59.908 3.74893 59.8195 3.82999 59.709C3.91106 59.5911 3.94791 59.4584 3.94791 59.311C3.94791 59.1268 3.89632 58.972 3.78578 58.8467C3.67523 58.7214 3.53521 58.6477 3.3657 58.6183C3.24042 58.5962 2.98985 58.5814 2.614 58.5814H2.11286Z" fill="#0022EA"/>
<path d="M6.9911 62.8632V58.5814H5.46558V57.7118H9.56312V58.5814H8.0376V62.8632H6.99847H6.9911Z" fill="#0022EA"/>
<path d="M9.37891 62.8629V61.8754H10.3664V62.8629H9.37891Z" fill="#0022EA"/>
<path d="M14.4564 62.8632V58.5814H12.9309V57.7118H17.0285V58.5814H15.5029V62.8632H14.4638H14.4564Z" fill="#0022EA"/>
<path d="M21.7678 62.8632H20.6328L20.1833 61.6914H18.1271L17.6997 62.8632H16.5942L18.5988 57.7118H19.6969L21.7604 62.8632H21.7678ZM19.8516 60.8218L19.1441 58.9131L18.4514 60.8218H19.859H19.8516Z" fill="#0022EA"/>
<path d="M22.2754 62.8632V57.7118H24.4642C25.0169 57.7118 25.4149 57.756 25.6654 57.8518C25.916 57.9476 26.115 58.1098 26.2624 58.3456C26.4098 58.5814 26.4909 58.8541 26.4909 59.1562C26.4909 59.5395 26.3803 59.8637 26.1518 60.1143C25.9234 60.3649 25.5844 60.527 25.1348 60.5933C25.3633 60.726 25.5475 60.866 25.6949 61.0282C25.8423 61.1829 26.0413 61.463 26.2845 61.8683L26.9109 62.8706H25.6654L24.9137 61.7504C24.6484 61.3524 24.4642 61.0945 24.3684 60.9913C24.2726 60.8881 24.162 60.8144 24.0589 60.7776C23.9557 60.7407 23.7714 60.7186 23.5356 60.7186H23.3219V62.8706H22.2828L22.2754 62.8632ZM23.3219 59.8859H24.0883C24.5895 59.8859 24.899 59.8637 25.0243 59.8195C25.1496 59.7753 25.2454 59.7016 25.3191 59.5984C25.3928 59.4953 25.4222 59.37 25.4222 59.2152C25.4222 59.0383 25.378 58.8983 25.2822 58.7951C25.1864 58.692 25.0611 58.6183 24.8916 58.5962C24.8106 58.5814 24.5526 58.5814 24.1326 58.5814H23.3219V59.8859Z" fill="#0022EA"/>
<path d="M27.4273 57.7046H28.4664V60.4977C28.4664 60.9399 28.4812 61.2273 28.5033 61.36C28.5475 61.5737 28.6507 61.7432 28.8202 61.8685C28.9897 61.9937 29.2181 62.0601 29.5055 62.0601C29.793 62.0601 30.0214 62.0011 30.1762 61.8758C30.3236 61.7579 30.4194 61.6032 30.4489 61.4337C30.4783 61.2568 30.4931 60.9694 30.4931 60.5567V57.7046H31.5322V60.4093C31.5322 61.0283 31.5027 61.4631 31.4511 61.7211C31.3922 61.979 31.289 62.1927 31.1416 62.3696C30.9868 62.5465 30.7879 62.6865 30.5373 62.7897C30.2867 62.8928 29.9551 62.9444 29.5424 62.9444C29.0486 62.9444 28.6801 62.8855 28.4222 62.7749C28.1716 62.6644 27.9653 62.517 27.8179 62.3328C27.6705 62.1485 27.5747 61.9643 27.5231 61.7579C27.4568 61.4631 27.4199 61.0283 27.4199 60.4535V57.7046H27.4273Z" fill="#0022EA"/>
<path d="M32.5715 62.8632V57.7118H34.1265L35.0625 61.2271L35.9837 57.7118H37.5461V62.8632H36.5806V58.8099L35.5563 62.8632H34.554L33.537 58.8099V62.8632H32.5715Z" fill="#0022EA"/>
<path d="M43.1909 62.8632H42.0559L41.6064 61.6914H39.5502L39.1228 62.8632H38.0173L40.0219 57.7118H41.12L43.1835 62.8632H43.1909ZM41.2747 60.8218L40.5672 58.9131L39.8745 60.8218H41.2821H41.2747Z" fill="#0022EA"/>
<path d="M45.3875 57.7046H47.4436C47.849 57.7046 48.1585 57.7193 48.3575 57.7562C48.5565 57.793 48.7407 57.8594 48.8955 57.9699C49.0502 58.0804 49.1829 58.2205 49.2934 58.3973C49.404 58.5742 49.4482 58.7806 49.4482 59.0017C49.4482 59.2449 49.3819 59.4659 49.2566 59.6649C49.1239 59.8639 48.9471 60.0187 48.726 60.1218C49.0429 60.2103 49.2787 60.3724 49.4482 60.5861C49.6177 60.7999 49.6988 61.0652 49.6988 61.36C49.6988 61.5958 49.6472 61.8242 49.5366 62.0453C49.4261 62.2664 49.2787 62.4433 49.0871 62.576C48.8955 62.7086 48.667 62.7897 48.387 62.8191C48.2101 62.8413 47.7974 62.8486 47.1341 62.856H45.3801V57.7046H45.3875ZM46.434 58.5668V59.7607H47.1194C47.5247 59.7607 47.7753 59.7607 47.8785 59.746C48.0553 59.7239 48.1954 59.6649 48.2985 59.5617C48.4017 59.4586 48.4533 59.3259 48.4533 59.1564C48.4533 58.9869 48.4091 58.869 48.3206 58.7658C48.2322 58.6626 48.0995 58.6037 47.93 58.5816C47.8269 58.5668 47.5321 58.5668 47.0383 58.5668H46.4414H46.434ZM46.434 60.6156V61.9937H47.3994C47.7753 61.9937 48.0111 61.9864 48.1143 61.9643C48.269 61.9348 48.3943 61.8685 48.4901 61.7579C48.5859 61.6474 48.6375 61.5 48.6375 61.3231C48.6375 61.1683 48.6007 61.0357 48.527 60.9325C48.4533 60.822 48.3427 60.7483 48.2027 60.6967C48.0627 60.6451 47.7532 60.623 47.2815 60.623H46.4414L46.434 60.6156Z" fill="#0022EA"/>
<path d="M50.5454 62.8632V57.7118H51.5845V59.7385H53.6259V57.7118H54.6651V62.8632H53.6259V60.6081H51.5845V62.8632H50.5454Z" fill="#0022EA"/>
<path d="M60.3476 62.8632H59.2127L58.7631 61.6914H56.707L56.2795 62.8632H55.1741L57.1786 57.7118H58.2767L60.3402 62.8632H60.3476ZM58.4315 60.8218L57.724 58.9131L57.0312 60.8218H58.4388H58.4315Z" fill="#0022EA"/>
<path d="M60.8633 62.8632V57.7118H61.9024V59.9964L64.0028 57.7118H65.403L63.4648 59.7163L65.5136 62.8632H64.1649L62.7499 60.4459L61.9098 61.3082V62.8632H60.8707H60.8633Z" fill="#0022EA"/>
<path d="M67.1727 62.8632V58.5814H65.6472V57.7118H69.7448V58.5814H68.2192V62.8632H67.1801H67.1727Z" fill="#0022EA"/>
<path d="M70.334 62.8632V57.7118H71.3731V62.8632H70.334Z" fill="#0022EA"/>
<path d="M74.2693 57.7046H75.3085V60.4977C75.3085 60.9399 75.3232 61.2273 75.3453 61.36C75.3895 61.5737 75.4927 61.7432 75.6622 61.8685C75.8317 61.9937 76.0602 62.0601 76.3476 62.0601C76.635 62.0601 76.8635 62.0011 77.0182 61.8758C77.1656 61.7579 77.2614 61.6032 77.2909 61.4337C77.3204 61.2568 77.3351 60.9694 77.3351 60.5567V57.7046H78.3742V60.4093C78.3742 61.0283 78.3448 61.4631 78.2932 61.7211C78.2342 61.979 78.1311 62.1927 77.9837 62.3696C77.8289 62.5465 77.6299 62.6865 77.3793 62.7897C77.1288 62.8928 76.7971 62.9444 76.3844 62.9444C75.8907 62.9444 75.5222 62.8855 75.2642 62.7749C75.0137 62.6644 74.8073 62.517 74.6599 62.3328C74.5125 62.1485 74.4167 61.9643 74.3651 61.7579C74.2988 61.4631 74.262 61.0283 74.262 60.4535V57.7046H74.2693Z" fill="#0022EA"/>
<path d="M79.1699 61.1826L80.1796 61.0868C80.2385 61.4258 80.3638 61.6764 80.5481 61.8385C80.7323 62.0006 80.9829 62.0743 81.2998 62.0743C81.6314 62.0743 81.8893 62.0006 82.0588 61.8606C82.2283 61.7206 82.3168 61.5511 82.3168 61.3668C82.3168 61.2416 82.2799 61.1384 82.2062 61.0573C82.1325 60.9689 82.0073 60.8952 81.8304 60.8362C81.7051 60.792 81.4324 60.7183 80.9976 60.6078C80.4375 60.4677 80.0469 60.2982 79.8258 60.0993C79.5089 59.8192 79.3542 59.4728 79.3542 59.0601C79.3542 58.7948 79.4279 58.5516 79.5753 58.3232C79.7227 58.0947 79.9364 57.9178 80.2164 57.7999C80.4965 57.682 80.8355 57.623 81.2334 57.623C81.882 57.623 82.3684 57.7631 82.6926 58.0505C83.0169 58.3379 83.1938 58.7138 83.2085 59.1854L82.1694 59.2296C82.1252 58.9643 82.0294 58.7727 81.882 58.6548C81.7346 58.5369 81.5135 58.4779 81.2261 58.4779C80.9386 58.4779 80.6881 58.5369 80.5186 58.6622C80.408 58.7432 80.3564 58.8464 80.3564 58.9791C80.3564 59.1044 80.408 59.2075 80.5112 59.2886C80.6439 59.3991 80.9608 59.5171 81.4693 59.635C81.9778 59.7529 82.3463 59.8782 82.5895 60.0035C82.8327 60.1287 83.0243 60.3056 83.1569 60.5267C83.2896 60.7478 83.3633 61.0205 83.3633 61.3447C83.3633 61.6395 83.2822 61.9196 83.1201 62.1775C82.9579 62.4355 82.7221 62.6271 82.4273 62.7523C82.1252 62.8776 81.7567 62.944 81.3071 62.944C80.6586 62.944 80.1575 62.7966 79.8037 62.4944C79.4573 62.1923 79.2436 61.7574 79.1773 61.1752L79.1699 61.1826Z" fill="#0022EA"/>
<path d="M88.8388 62.8632H87.7039L87.2543 61.6914H85.1982L84.7707 62.8632H83.6653L85.6698 57.7118H86.7679L88.8314 62.8632H88.8388ZM86.9227 60.8218L86.2152 58.9131L85.5224 60.8218H86.9301H86.9227Z" fill="#0022EA"/>
<path d="M89.3477 62.8632V57.7118H90.3868V59.7385H92.4282V57.7118H93.4673V62.8632H92.4282V60.6081H90.3868V62.8632H89.3477Z" fill="#0022EA"/>
<path d="M99.1494 62.8632H98.0144L97.5649 61.6914H95.5087L95.0813 62.8632H93.9758L95.9804 57.7118H97.0785L99.142 62.8632H99.1494ZM97.2332 60.8218L96.5257 58.9131L95.833 60.8218H97.2406H97.2332Z" fill="#0022EA"/>
<path d="M41.209 42.287L42.3071 38.5359H44.9896L45.6603 36.1112L51.6076 34.5636L50.4874 38.5359H53.8406L52.7794 42.3312L49.4041 42.3681L47.8491 47.9175C47.5322 49.0671 47.6427 49.244 47.8712 49.4946C48.0849 49.723 48.8882 49.9147 49.5883 49.9147C49.8315 49.9147 50.539 49.9515 51.4528 49.4504L50.5464 52.8552C49.662 53.4521 48.7482 54.0417 47.2742 54.0417C45.336 54.0417 43.921 53.7616 43.044 53.2089C42.1597 52.6562 41.7249 51.8824 41.7249 50.8875C41.7249 50.4232 41.9607 49.3472 42.4324 47.6669L43.9431 42.2723L41.2164 42.287H41.209Z" fill="#0022EA"/>
<path d="M78.5654 38.3152H84.7412L82.3092 47.3946C81.7344 49.5097 83.6873 49.4582 84.4464 49.4066C86.053 49.3034 87.807 48.1463 88.3818 45.6185L90.3495 38.3152H96.4738L92.3615 53.6441H86.5836L87.1364 51.5659C84.9623 53.1946 83.4073 54.0052 80.85 54.0052C79.2287 54.0052 77.9611 53.6441 77.0325 52.9219C76.1039 52.1997 75.6396 51.2343 75.6396 50.0183C75.6396 49.4876 75.8534 48.4338 76.2661 46.8567L78.5654 38.3152Z" fill="#0022EA"/>
<path d="M72.8173 40.2087C71.6677 38.8601 69.84 38.2263 67.9902 38.0862C66.332 37.961 63.3399 38.3147 63.3399 38.3147L64.5264 33.2886H58.1148L53.354 53.5626H58.8002L59.375 51.1453C60.7458 52.9878 62.0208 53.7542 64.7844 53.7542C66.5384 53.7542 68.7861 53.6879 71.0339 51.477C73.2079 49.3398 73.9744 47.3426 74.0923 44.6379C74.1807 42.6923 73.8712 41.4616 72.81 40.2087H72.8173ZM67.7691 45.3454C67.4817 48.6617 65.2782 49.7746 63.4063 49.6861C61.1659 49.583 60.6131 47.8584 61.2027 45.5149C62.1682 41.69 62.6177 41.8448 64.9539 41.83C66.7079 41.8153 67.9755 42.965 67.7691 45.3454Z" fill="#0022EA"/>
</g>
<defs>
<clipPath id="clip0_129_8117">
<rect width="98.857" height="98.857" fill="white" transform="translate(0.416748)"/>
</clipPath>
</defs>
</svg>
