<svg width="100" height="68" viewBox="0 0 100 68" fill="none" xmlns="http://www.w3.org/2000/svg">
<g clip-path="url(#clip0_1182_4744)">
<path fill-rule="evenodd" clip-rule="evenodd" d="M13.2774 38.6383L4.96906 24.3084H0V48.7877H4.90166V33.9634L13.4918 48.7877H18.4609V24.3084H13.5592V39.1327L13.2774 38.6383Z" fill="#989898"/>
<path d="M26.469 24.3084H21.5674V48.7877H26.469V24.3084Z" fill="#989898"/>
<path fill-rule="evenodd" clip-rule="evenodd" d="M42.8467 38.6383L34.5445 24.3084H29.5754V48.7877H34.4771V33.9634L43.0673 48.7877H48.0363V24.3084H43.1347V39.1327L42.8467 38.6383Z" fill="#989898"/>
<path fill-rule="evenodd" clip-rule="evenodd" d="M56.1974 24.3084H51.1426V48.7877H69.6035V43.9053H56.0442V38.9923H69.6035V34.1099H56.0442V29.1908H69.6035V24.3084H56.1974Z" fill="#989898"/>
<path fill-rule="evenodd" clip-rule="evenodd" d="M94.2835 25.0103C93.1929 24.5586 92.0042 24.3084 90.7543 24.3084C89.5044 24.3084 88.3157 24.5586 87.2251 25.0103C86.0916 25.4802 85.0745 26.1637 84.2228 27.0121C83.3712 27.8604 82.6788 28.8796 82.2132 30.0025C81.7598 31.0828 81.5085 32.2729 81.5085 33.5179V39.5782C81.5085 40.8232 81.7598 42.0072 82.2132 43.0935C82.6849 44.2226 83.3712 45.2357 84.2228 46.084C85.0745 46.9324 86.0977 47.622 87.2251 48.0858C88.3157 48.5375 89.5044 48.7877 90.7543 48.7877C92.0042 48.7877 93.1929 48.5375 94.2835 48.0858C95.417 47.6159 96.4341 46.9324 97.2858 46.084C98.1374 45.2357 98.8298 44.2165 99.2954 43.0935C99.7488 42.0072 100 40.8232 100 39.5782V33.5179C100 32.2729 99.7488 31.0889 99.2954 30.0025C98.8237 28.8735 98.1374 27.8604 97.2858 27.0121C96.4341 26.1637 95.4109 25.4741 94.2835 25.0103ZM94.9452 34.1099H86.4102V33.524C86.4102 32.9442 86.5266 32.3827 86.7411 31.8762C86.9616 31.3452 87.2864 30.8692 87.6908 30.4725C88.0951 30.0697 88.5731 29.7462 89.1 29.5265C89.6085 29.3129 90.1722 29.1969 90.7543 29.1969C91.3364 29.1969 91.9001 29.3129 92.4086 29.5265C92.9417 29.7462 93.4196 30.0697 93.8178 30.4725C94.2222 30.8753 94.5408 31.3513 94.7675 31.8762C94.982 32.3827 95.0984 32.9442 95.0984 33.524V34.1099H94.9452ZM86.5634 38.9923H95.0984V39.5782C95.0984 40.158 94.982 40.7195 94.7675 41.226C94.547 41.757 94.2222 42.233 93.8178 42.6297C93.4135 43.0264 92.9355 43.3499 92.4086 43.5757C91.9001 43.7893 91.3364 43.9053 90.7543 43.9053C90.1722 43.9053 89.6085 43.7893 89.1 43.5757C88.5669 43.356 88.089 43.0325 87.6908 42.6297C87.2864 42.233 86.9678 41.7509 86.7411 41.226C86.5266 40.7195 86.4102 40.158 86.4102 39.5782V38.9923H86.5634Z" fill="#989898"/>
<path fill-rule="evenodd" clip-rule="evenodd" d="M76.9255 36.6304L75.553 34.2686L72.8203 38.9923H78.2918L76.9255 36.6304Z" fill="#989898"/>
<path d="M27.5718 68V56.0991H33.8582C36.1313 56.0991 37.2954 57.5455 37.2954 59.1323C37.2954 60.6153 36.3641 61.6284 35.2367 61.8603C36.5234 62.0556 37.5283 63.2884 37.5283 64.7715C37.5283 66.5719 36.3457 68 34.0542 68H27.5718ZM34.6976 59.5778C34.6976 58.8454 34.1584 58.3267 33.3006 58.3267H30.1145V60.8228H33.3006C34.1584 60.8228 34.6976 60.3407 34.6976 59.5717V59.5778ZM34.9304 64.4114C34.9304 63.6607 34.3912 63.0565 33.4048 63.0565H30.1084V65.7663H33.4048C34.3544 65.7663 34.9304 65.2658 34.9304 64.4114Z" fill="#989898"/>
<path d="M49.9416 68L49.188 65.986H44.0657L43.3121 68H40.4263L45.0277 56.0991H48.2138L52.8152 68H49.9294H49.9416ZM46.633 58.6318L44.7704 63.7523H48.4956L46.633 58.6318Z" fill="#989898"/>
<path d="M56.075 68V56.0991H58.6361V65.7724H63.6909V68H56.075Z" fill="#989898"/>
<path d="M67.6489 68V56.0991H70.1917V68H67.6489Z" fill="#989898"/>
<path d="M38.9682 7.25649C38.9682 6.90861 38.9927 6.54853 38.9621 6.19456C38.9192 5.73683 38.6067 5.4683 38.1839 5.4805C37.7305 5.49271 37.3629 5.82227 37.369 6.2739C37.369 6.57295 37.4487 6.872 37.4977 7.21987C37.2894 7.29921 37.0504 7.39075 36.8237 7.4762C36.211 6.6767 36.2661 5.55984 36.6889 5.0655C37.2281 4.44909 38.3922 4.21718 39.1826 4.59556C39.6973 4.84579 39.9853 5.2608 40.0588 5.81007C40.1262 6.28 40.1446 6.75604 40.1875 7.26259H40.6715C40.7389 6.95134 40.7818 6.62177 40.8737 6.31052C41.1556 5.35234 41.7866 4.71763 42.767 4.53453C43.3123 4.43078 43.9005 4.40027 44.4519 4.48571C45.6773 4.6627 46.3513 5.40727 46.5351 6.65229C46.5841 6.98185 46.5964 7.31752 46.6025 7.64708C46.6148 8.44048 46.6025 9.23387 46.6025 10.0517H45.4077C45.4077 9.35593 45.4077 8.67849 45.4077 8.00106C45.4077 7.64098 45.42 7.2748 45.3649 6.91472C45.2239 5.98706 44.6847 5.54764 43.7228 5.51102C42.8282 5.4805 42.142 5.96264 41.9337 6.79266C41.8908 6.95744 41.9031 7.12832 41.8908 7.29311C42.3994 7.39686 42.8711 7.46399 43.3307 7.60436C44.1027 7.84238 44.4274 8.31231 44.3723 9.00195C44.3049 9.85638 43.49 10.3568 42.5219 10.1188C41.707 9.91741 41.1617 9.38645 40.9166 8.61136C40.7879 8.19635 40.598 8.07429 40.1813 8.19635C40.1446 8.44658 40.1201 8.72122 40.0649 8.98365C39.8934 9.74042 39.2745 10.192 38.4596 10.1554C37.7121 10.1249 37.173 9.66719 37.0565 8.97144C36.9524 8.32452 37.3077 7.75083 38.0062 7.50061C38.3065 7.39075 38.6189 7.33583 38.9682 7.25038V7.25649ZM41.9705 8.15363C42.1114 8.81276 42.4177 9.13622 42.8466 9.13622C42.9937 9.13622 43.2142 9.03857 43.2571 8.93482C43.3 8.82497 43.1959 8.56254 43.0917 8.51371C42.767 8.36724 42.4055 8.2818 41.9705 8.15363ZM38.9498 8.19025C38.4106 8.20246 38.0614 8.45268 38.0859 8.80666C38.1043 9.07519 38.2574 9.23997 38.5454 9.20946C38.9008 9.17284 39.0295 8.83717 38.9498 8.18415V8.19025Z" fill="#989898"/>
<path d="M63.8991 10.0578H62.7472C62.7472 9.539 62.7472 9.03245 62.7472 8.532C62.7472 8.05596 62.7594 7.57382 62.7288 7.09778C62.6614 6.04196 62.018 5.48658 60.9458 5.5232C59.8981 5.55982 59.2363 6.24336 59.2486 7.31749C59.5427 7.36632 59.8552 7.40294 60.1615 7.47617C60.4434 7.54331 60.7252 7.62265 60.9887 7.7386C61.5891 8.01934 61.8465 8.5442 61.7239 9.16061C61.6075 9.72819 61.1357 10.1127 60.5047 10.1615C59.4937 10.2408 58.6053 9.65495 58.2621 8.59303C58.1273 8.16581 57.9251 8.08037 57.4963 8.22074C57.484 8.39773 57.4779 8.59913 57.4534 8.80053C57.3615 9.68547 56.6262 10.2531 55.701 10.1615C54.8616 10.0822 54.3347 9.44745 54.4082 8.61744C54.4634 7.99493 54.8861 7.68368 55.4192 7.49448C55.701 7.39683 56.0013 7.34191 56.326 7.26257C56.326 6.90249 56.3566 6.54241 56.3199 6.18843C56.2647 5.7185 55.9093 5.44997 55.4805 5.49269C55.0148 5.54151 54.7084 5.87718 54.7084 6.3349C54.7084 6.43255 54.7329 6.5363 54.7452 6.63395C54.8024 7.0571 54.6084 7.33173 54.1631 7.45786C53.5872 6.7194 53.5565 5.62085 54.0957 5.02275C54.6717 4.38193 55.9093 4.21715 56.6752 4.67488C57.2083 4.99834 57.4105 5.511 57.4595 6.09689C57.484 6.40204 57.4595 6.70719 57.5024 7.00624C57.5208 7.11609 57.6617 7.25036 57.772 7.28698C57.9742 7.34801 58.0661 7.23815 58.0967 7.01234C58.4031 4.72981 60.8233 3.61905 62.8084 4.83966C63.4824 5.24856 63.85 5.88328 63.8868 6.63395C63.9481 7.75691 63.9052 8.88597 63.9052 10.0517L63.8991 10.0578ZM59.2547 8.17192C59.4263 8.72729 59.6469 9.04465 60.0696 9.12399C60.2351 9.15451 60.425 9.02634 60.6027 8.97142C60.5169 8.79443 60.4679 8.532 60.327 8.46486C60.0267 8.32449 59.6836 8.28177 59.2547 8.17192ZM56.2892 8.18412C55.7255 8.20243 55.364 8.47707 55.4498 8.84935C55.4866 8.99583 55.701 9.18502 55.8419 9.19723C56.2157 9.22774 56.3811 8.83105 56.2831 8.18412H56.2892Z" fill="#989898"/>
<path d="M31.4257 7.48231C30.8987 6.69502 30.3657 5.88942 29.8081 5.0472C30.1022 4.8397 30.3718 4.6505 30.6843 4.43079C30.9661 4.8458 31.2418 5.2425 31.5482 5.68192C31.5972 5.60868 31.6278 5.57206 31.6524 5.52934C32.167 4.50403 33.2025 4.13175 34.2441 4.61999C34.9181 4.93735 35.2244 5.52324 35.157 6.21288C35.0713 7.08561 34.8568 7.94614 34.7036 8.81277C34.4708 10.1188 34.1645 11.4249 34.0358 12.7431C33.8765 14.3177 34.1277 15.2271 34.8691 16.7223C34.7955 16.7711 34.7036 16.8322 34.6056 16.8932C34.5137 16.9603 34.4218 17.0275 34.3054 17.1129C33.4292 16.2402 33.0064 15.1782 32.8471 13.9881C32.6082 12.1755 33.0555 10.4484 33.4966 8.72123C33.6682 8.04989 33.8152 7.36635 33.901 6.68281C33.9868 6.00538 33.7172 5.60868 33.2393 5.55375C32.694 5.49272 32.2834 5.80398 32.2038 6.48141C32.1425 6.98797 31.971 7.31753 31.4318 7.48231H31.4257Z" fill="#989898"/>
<path d="M52.1658 16.7528C52.0739 16.826 51.9023 16.9603 51.7063 17.1129C51.1058 16.5514 50.726 15.8801 50.4931 15.1233C49.9907 13.4938 50.15 11.8582 50.5176 10.2286C50.7811 9.04466 51.0874 7.86677 51.308 6.67058C51.4489 5.9077 50.9281 5.38284 50.2848 5.56593C49.8191 5.70019 49.6047 6.08469 49.5863 6.5241C49.5679 7.03676 49.3228 7.3114 48.8266 7.47618C48.2996 6.68278 47.7604 5.87718 47.2029 5.03496C47.497 4.82746 47.7666 4.63827 48.0791 4.42466C48.3609 4.83967 48.6366 5.23636 48.9368 5.66968C48.9859 5.59644 49.041 5.55372 49.0594 5.49269C49.4515 4.49179 50.3828 4.3026 51.2161 4.46738C52.1168 4.64437 52.6498 5.3157 52.5396 6.3227C52.417 7.42125 52.1413 8.51369 51.8901 9.59393C51.5102 11.2417 51.21 12.8957 51.5163 14.5801C51.645 15.282 51.9207 15.9533 52.1658 16.7406V16.7528Z" fill="#989898"/>
<path d="M62.7473 15.6787C62.7473 14.6717 62.7473 13.744 62.7473 12.8225C62.7473 12.5234 62.7044 12.2305 62.3245 12.1633C61.9262 12.0901 61.6812 12.2915 61.6566 12.7553C61.6321 13.2009 61.6567 13.6525 61.6444 14.1041C61.6199 15.1233 61.0807 15.6787 60.0697 15.7641C60.0268 15.7641 59.984 15.7702 59.9411 15.7702C58.3297 15.874 57.6005 15.1172 57.815 13.5182C57.8885 12.9995 58.0723 12.4929 58.201 11.9802C57.8824 11.9924 57.5658 12.4949 57.2513 13.4877C57.0123 13.4633 56.7611 13.4389 56.4731 13.4084C56.516 12.5478 56.5651 11.7361 57.3983 11.2662C58.0294 10.9122 59.0036 11.0587 59.5489 11.5347C59.359 12.1572 59.1629 12.7797 58.9852 13.4022C58.9362 13.5792 58.9301 13.7745 58.9362 13.9637C58.9485 14.4703 59.1997 14.7205 59.6837 14.7327C60.2352 14.7449 60.4619 14.5496 60.4925 14.0003C60.517 13.506 60.4925 13.0178 60.5231 12.5234C60.5722 11.7117 60.9888 11.2357 61.8037 11.1319C62.1836 11.0831 62.5941 11.1136 62.9617 11.2052C63.5622 11.3577 63.8869 11.8155 63.9114 12.4197C63.9543 13.4023 63.942 14.3909 63.9543 15.3735C63.9543 15.5871 63.8869 15.697 63.6541 15.6909C63.3661 15.6787 63.0781 15.6909 62.7411 15.6909L62.7473 15.6787Z" fill="#989898"/>
<path d="M65.5965 8.84325C65.8538 8.68457 66.0682 8.5442 66.2949 8.40383C66.3317 8.37942 66.3746 8.37332 66.4236 8.36111C66.5523 8.49538 66.6687 8.64795 66.8096 8.77001C67.5939 9.42304 68.7029 9.04465 68.8928 8.02544C68.9725 7.61044 68.9602 7.15271 68.8745 6.7377C68.6845 5.84666 67.8574 5.30349 66.9628 5.54151C66.2888 5.7185 65.6516 6.04806 64.9715 6.3227C64.8612 6.1396 64.7203 5.88938 64.5732 5.63916C65.4617 4.61995 67.1405 4.16833 68.4027 4.59554C69.7445 5.05327 70.4185 6.43255 70.1305 8.12919C69.8609 9.72209 68.3291 10.5948 66.8158 10.015C66.2582 9.80143 65.8722 9.41693 65.6026 8.84935L65.5965 8.84325Z" fill="#989898"/>
<path d="M33.3067 0.823886C33.0677 0.823886 32.8226 0.81168 32.5837 0.829989C32.504 0.836092 32.3876 0.933741 32.3754 1.00087C32.3631 1.07411 32.4366 1.20227 32.5102 1.245C32.743 1.38537 33.0064 1.48912 33.2454 1.62338C33.8459 1.96515 33.9929 2.55715 33.5395 3.07591C33.2332 3.42988 32.8349 3.70452 32.455 4.03408C32.2651 3.80827 32.1119 3.63738 31.9587 3.45429C32.2038 3.25289 32.4428 3.08811 32.6511 2.88671C32.9268 2.61818 32.8962 2.42898 32.5592 2.24589C32.3447 2.12994 32.1119 2.03229 31.9036 1.90412C31.5421 1.67831 31.3644 1.35485 31.4318 0.915432C31.4992 0.46991 31.7749 0.231892 32.1732 0.0976251C32.2957 0.0549039 32.4244 0.0243887 32.553 0.0182857C33.3189 -0.0488477 33.4047 0.0426978 33.3128 0.829989L33.3067 0.823886Z" fill="#989898"/>
</g>
<defs>
<clipPath id="clip0_1182_4744">
<rect width="100" height="68" fill="white"/>
</clipPath>
</defs>
</svg>
