<svg width="100" height="68" viewBox="0 0 100 68" fill="none" xmlns="http://www.w3.org/2000/svg">
<g clip-path="url(#clip0_277_3924)">
<path fill-rule="evenodd" clip-rule="evenodd" d="M13.2774 38.6383L4.96906 24.3084H0V48.7877H4.90166V33.9634L13.4918 48.7877H18.4609V24.3084H13.5592V39.1327L13.2774 38.6383Z" fill="#333333"/>
<path d="M26.469 24.3084H21.5673V48.7877H26.469V24.3084Z" fill="#333333"/>
<path fill-rule="evenodd" clip-rule="evenodd" d="M42.8466 38.6383L34.5444 24.3084H29.5754V48.7877H34.477V33.9634L43.0672 48.7877H48.0363V24.3084H43.1346V39.1327L42.8466 38.6383Z" fill="#333333"/>
<path fill-rule="evenodd" clip-rule="evenodd" d="M56.1975 24.3084H51.1427V48.7877H69.6036V43.9053H56.0444V38.9923H69.6036V34.1099H56.0444V29.1908H69.6036V24.3084H56.1975Z" fill="#333333"/>
<path fill-rule="evenodd" clip-rule="evenodd" d="M94.2834 25.0103C93.1928 24.5586 92.0042 24.3084 90.7542 24.3084C89.5043 24.3084 88.3157 24.5586 87.225 25.0103C86.0915 25.4802 85.0744 26.1637 84.2228 27.0121C83.3711 27.8604 82.6788 28.8796 82.2131 30.0025C81.7597 31.0828 81.5085 32.2729 81.5085 33.5179V39.5782C81.5085 40.8232 81.7597 42.0072 82.2131 43.0935C82.6849 44.2226 83.3711 45.2357 84.2228 46.084C85.0744 46.9324 86.0977 47.622 87.225 48.0858C88.3157 48.5375 89.5043 48.7877 90.7542 48.7877C92.0042 48.7877 93.1928 48.5375 94.2834 48.0858C95.4169 47.6159 96.434 46.9324 97.2857 46.084C98.1374 45.2357 98.8297 44.2165 99.2954 43.0935C99.7488 42.0072 100 40.8232 100 39.5782V33.5179C100 32.2729 99.7488 31.0889 99.2954 30.0025C98.8236 28.8735 98.1374 27.8604 97.2857 27.0121C96.434 26.1637 95.4108 25.4741 94.2834 25.0103ZM94.9452 34.1099H86.4101V33.524C86.4101 32.9442 86.5266 32.3827 86.741 31.8762C86.9616 31.3452 87.2863 30.8692 87.6907 30.4725C88.0951 30.0697 88.573 29.7462 89.0999 29.5265C89.6085 29.3129 90.1722 29.1969 90.7542 29.1969C91.3363 29.1969 91.9 29.3129 92.4086 29.5265C92.9416 29.7462 93.4195 30.0697 93.8178 30.4725C94.2222 30.8753 94.5408 31.3513 94.7675 31.8762C94.9819 32.3827 95.0983 32.9442 95.0983 33.524V34.1099H94.9452ZM86.5633 38.9923H95.0983V39.5782C95.0983 40.158 94.9819 40.7195 94.7675 41.226C94.5469 41.757 94.2222 42.233 93.8178 42.6297C93.4134 43.0264 92.9355 43.3499 92.4086 43.5757C91.9 43.7893 91.3363 43.9053 90.7542 43.9053C90.1722 43.9053 89.6085 43.7893 89.0999 43.5757C88.5669 43.356 88.089 43.0325 87.6907 42.6297C87.2863 42.233 86.9677 41.7509 86.741 41.226C86.5266 40.7195 86.4101 40.158 86.4101 39.5782V38.9923H86.5633Z" fill="#333333"/>
<path fill-rule="evenodd" clip-rule="evenodd" d="M76.9255 36.6304L75.553 34.2686L72.8203 38.9923H78.2918L76.9255 36.6304Z" fill="#333333"/>
<path d="M27.5718 68V56.0991H33.8582C36.1314 56.0991 37.2955 57.5455 37.2955 59.1323C37.2955 60.6153 36.3642 61.6284 35.2368 61.8603C36.5235 62.0556 37.5283 63.2884 37.5283 64.7715C37.5283 66.5719 36.3458 68 34.0543 68H27.5718ZM34.6976 59.5778C34.6976 58.8454 34.1584 58.3267 33.3007 58.3267H30.1146V60.8228H33.3007C34.1584 60.8228 34.6976 60.3407 34.6976 59.5717V59.5778ZM34.9305 64.4114C34.9305 63.6607 34.3913 63.0565 33.4048 63.0565H30.1084V65.7663H33.4048C34.3545 65.7663 34.9305 65.2658 34.9305 64.4114Z" fill="#333333"/>
<path d="M49.9418 68L49.1882 65.986H44.0659L43.3123 68H40.4265L45.0279 56.0991H48.214L52.8154 68H49.9295H49.9418ZM46.6332 58.6318L44.7705 63.7523H48.4958L46.6332 58.6318Z" fill="#333333"/>
<path d="M56.075 68V56.0991H58.6361V65.7724H63.6909V68H56.075Z" fill="#333333"/>
<path d="M67.649 68V56.0991H70.1918V68H67.649Z" fill="#333333"/>
<path d="M38.9682 7.25649C38.9682 6.90861 38.9927 6.54853 38.9621 6.19456C38.9192 5.73683 38.6067 5.4683 38.184 5.4805C37.7305 5.49271 37.3629 5.82227 37.3691 6.2739C37.3691 6.57295 37.4487 6.872 37.4977 7.21987C37.2894 7.29921 37.0504 7.39075 36.8237 7.4762C36.211 6.6767 36.2662 5.55984 36.6889 5.0655C37.2281 4.44909 38.3923 4.21718 39.1827 4.59556C39.6973 4.84579 39.9853 5.2608 40.0588 5.81007C40.1262 6.28 40.1446 6.75604 40.1875 7.26259H40.6715C40.7389 6.95134 40.7818 6.62177 40.8737 6.31052C41.1556 5.35234 41.7867 4.71763 42.767 4.53453C43.3123 4.43078 43.9005 4.40027 44.452 4.48571C45.6774 4.6627 46.3513 5.40727 46.5352 6.65229C46.5842 6.98185 46.5964 7.31752 46.6026 7.64708C46.6148 8.44048 46.6026 9.23387 46.6026 10.0517H45.4078C45.4078 9.35593 45.4078 8.67849 45.4078 8.00106C45.4078 7.64098 45.42 7.2748 45.3649 6.91472C45.224 5.98706 44.6848 5.54764 43.7228 5.51102C42.8283 5.4805 42.142 5.96264 41.9337 6.79266C41.8908 6.95744 41.9031 7.12832 41.8908 7.29311C42.3994 7.39686 42.8712 7.46399 43.3307 7.60436C44.1027 7.84238 44.4274 8.31231 44.3723 9.00195C44.3049 9.85638 43.49 10.3568 42.5219 10.1188C41.707 9.91741 41.1617 9.38645 40.9166 8.61136C40.788 8.19635 40.598 8.07429 40.1814 8.19635C40.1446 8.44658 40.1201 8.72122 40.065 8.98365C39.8934 9.74042 39.2746 10.192 38.4597 10.1554C37.7122 10.1249 37.173 9.66719 37.0566 8.97144C36.9524 8.32452 37.3078 7.75083 38.0063 7.50061C38.3065 7.39075 38.619 7.33583 38.9682 7.25038V7.25649ZM41.9705 8.15363C42.1114 8.81276 42.4178 9.13622 42.8467 9.13622C42.9937 9.13622 43.2143 9.03857 43.2572 8.93482C43.3001 8.82497 43.1959 8.56254 43.0917 8.51371C42.767 8.36724 42.4055 8.2818 41.9705 8.15363ZM38.9498 8.19025C38.4107 8.20246 38.0614 8.45268 38.0859 8.80666C38.1043 9.07519 38.2575 9.23997 38.5454 9.20946C38.9008 9.17284 39.0295 8.83717 38.9498 8.18415V8.19025Z" fill="#333333"/>
<path d="M63.8993 10.0578H62.7474C62.7474 9.539 62.7474 9.03245 62.7474 8.532C62.7474 8.05596 62.7596 7.57382 62.729 7.09778C62.6616 6.04196 62.0183 5.48658 60.946 5.5232C59.8983 5.55982 59.2366 6.24336 59.2488 7.31749C59.5429 7.36632 59.8554 7.40294 60.1617 7.47617C60.4436 7.54331 60.7254 7.62265 60.9889 7.7386C61.5894 8.01934 61.8467 8.5442 61.7242 9.16061C61.6077 9.72819 61.136 10.1127 60.5049 10.1615C59.4939 10.2408 58.6055 9.65495 58.2624 8.59303C58.1276 8.16581 57.9254 8.08037 57.4965 8.22074C57.4842 8.39773 57.4781 8.59913 57.4536 8.80053C57.3617 9.68547 56.6264 10.2531 55.7012 10.1615C54.8618 10.0822 54.3349 9.44745 54.4084 8.61744C54.4636 7.99493 54.8863 7.68368 55.4194 7.49448C55.7012 7.39683 56.0015 7.34191 56.3262 7.26257C56.3262 6.90249 56.3568 6.54241 56.3201 6.18843C56.2649 5.7185 55.9096 5.44997 55.4807 5.49269C55.015 5.54151 54.7087 5.87718 54.7087 6.3349C54.7087 6.43255 54.7332 6.5363 54.7454 6.63395C54.8026 7.0571 54.6086 7.33173 54.1633 7.45786C53.5874 6.7194 53.5568 5.62085 54.0959 5.02275C54.6719 4.38193 55.9096 4.21715 56.6754 4.67488C57.2085 4.99834 57.4107 5.511 57.4597 6.09689C57.4842 6.40204 57.4597 6.70719 57.5026 7.00624C57.521 7.11609 57.6619 7.25036 57.7722 7.28698C57.9744 7.34801 58.0663 7.23815 58.0969 7.01234C58.4033 4.72981 60.8235 3.61905 62.8086 4.83966C63.4826 5.24856 63.8502 5.88328 63.887 6.63395C63.9483 7.75691 63.9054 8.88597 63.9054 10.0517L63.8993 10.0578ZM59.2549 8.17192C59.4265 8.72729 59.6471 9.04465 60.0698 9.12399C60.2353 9.15451 60.4252 9.02634 60.6029 8.97142C60.5171 8.79443 60.4681 8.532 60.3272 8.46486C60.027 8.32449 59.6838 8.28177 59.2549 8.17192ZM56.2894 8.18412C55.7257 8.20243 55.3642 8.47707 55.45 8.84935C55.4868 8.99583 55.7012 9.18502 55.8422 9.19723C56.2159 9.22774 56.3813 8.83105 56.2833 8.18412H56.2894Z" fill="#333333"/>
<path d="M31.4258 7.48231C30.8988 6.69502 30.3658 5.88942 29.8082 5.0472C30.1023 4.8397 30.3719 4.6505 30.6844 4.43079C30.9662 4.8458 31.242 5.2425 31.5483 5.68192C31.5973 5.60868 31.628 5.57206 31.6525 5.52934C32.1672 4.50403 33.2026 4.13175 34.2442 4.61999C34.9182 4.93735 35.2246 5.52324 35.1572 6.21288C35.0714 7.08561 34.8569 7.94614 34.7038 8.81277C34.4709 10.1188 34.1646 11.4249 34.0359 12.7431C33.8766 14.3177 34.1278 15.2271 34.8692 16.7223C34.7957 16.7711 34.7038 16.8322 34.6057 16.8932C34.5138 16.9603 34.4219 17.0275 34.3055 17.1129C33.4293 16.2402 33.0066 15.1782 32.8473 13.9881C32.6083 12.1755 33.0556 10.4484 33.4967 8.72123C33.6683 8.04989 33.8153 7.36635 33.9011 6.68281C33.9869 6.00538 33.7173 5.60868 33.2394 5.55375C32.6941 5.49272 32.2836 5.80398 32.2039 6.48141C32.1426 6.98797 31.9711 7.31753 31.4319 7.48231H31.4258Z" fill="#333333"/>
<path d="M52.1659 16.7528C52.074 16.826 51.9025 16.9603 51.7064 17.1129C51.1059 16.5514 50.7261 15.8801 50.4932 15.1233C49.9908 13.4938 50.1501 11.8582 50.5177 10.2286C50.7812 9.04466 51.0876 7.86677 51.3081 6.67058C51.4491 5.9077 50.9283 5.38284 50.2849 5.56593C49.8193 5.70019 49.6048 6.08469 49.5864 6.5241C49.5681 7.03676 49.323 7.3114 48.8267 7.47618C48.2998 6.68278 47.7606 5.87718 47.203 5.03496C47.4971 4.82746 47.7667 4.63827 48.0792 4.42466C48.361 4.83967 48.6367 5.23636 48.937 5.66968C48.986 5.59644 49.0411 5.55372 49.0595 5.49269C49.4516 4.49179 50.383 4.3026 51.2162 4.46738C52.1169 4.64437 52.65 5.3157 52.5397 6.3227C52.4171 7.42125 52.1414 8.51369 51.8902 9.59393C51.5103 11.2417 51.2101 12.8957 51.5165 14.5801C51.6451 15.282 51.9208 15.9533 52.1659 16.7406V16.7528Z" fill="#333333"/>
<path d="M62.7474 15.6787C62.7474 14.6717 62.7474 13.744 62.7474 12.8225C62.7474 12.5234 62.7045 12.2305 62.3246 12.1633C61.9264 12.0901 61.6813 12.2915 61.6568 12.7553C61.6323 13.2009 61.6568 13.6525 61.6445 14.1041C61.62 15.1233 61.0808 15.6787 60.0699 15.7641C60.027 15.7641 59.9841 15.7702 59.9412 15.7702C58.3298 15.874 57.6006 15.1172 57.8151 13.5182C57.8886 12.9995 58.0724 12.4929 58.2011 11.9802C57.8825 11.9924 57.5659 12.4949 57.2514 13.4877C57.0125 13.4633 56.7612 13.4389 56.4733 13.4084C56.5162 12.5478 56.5652 11.7361 57.3985 11.2662C58.0295 10.9122 59.0038 11.0587 59.5491 11.5347C59.3591 12.1572 59.1631 12.7797 58.9854 13.4022C58.9363 13.5792 58.9302 13.7745 58.9364 13.9637C58.9486 14.4703 59.1998 14.7205 59.6839 14.7327C60.2353 14.7449 60.462 14.5496 60.4926 14.0003C60.5171 13.506 60.4926 13.0178 60.5233 12.5234C60.5723 11.7117 60.9889 11.2357 61.8038 11.1319C62.1837 11.0831 62.5942 11.1136 62.9618 11.2052C63.5623 11.3577 63.887 11.8155 63.9115 12.4197C63.9544 13.4023 63.9422 14.3909 63.9544 15.3735C63.9544 15.5871 63.887 15.697 63.6542 15.6909C63.3662 15.6787 63.0783 15.6909 62.7413 15.6909L62.7474 15.6787Z" fill="#333333"/>
<path d="M65.5965 8.84325C65.8538 8.68457 66.0682 8.5442 66.2949 8.40383C66.3317 8.37942 66.3746 8.37332 66.4236 8.36111C66.5523 8.49538 66.6687 8.64795 66.8096 8.77001C67.5939 9.42304 68.7029 9.04465 68.8928 8.02544C68.9725 7.61044 68.9602 7.15271 68.8745 6.7377C68.6845 5.84666 67.8574 5.30349 66.9628 5.54151C66.2888 5.7185 65.6516 6.04806 64.9715 6.3227C64.8612 6.1396 64.7203 5.88938 64.5732 5.63916C65.4617 4.61995 67.1405 4.16833 68.4027 4.59554C69.7445 5.05327 70.4185 6.43255 70.1305 8.12919C69.8609 9.72209 68.3291 10.5948 66.8158 10.015C66.2582 9.80143 65.8722 9.41693 65.6026 8.84935L65.5965 8.84325Z" fill="#333333"/>
<path d="M33.3068 0.823886C33.0678 0.823886 32.8228 0.81168 32.5838 0.829989C32.5041 0.836092 32.3877 0.933741 32.3755 1.00087C32.3632 1.07411 32.4368 1.20227 32.5103 1.245C32.7431 1.38537 33.0066 1.48912 33.2455 1.62338C33.846 1.96515 33.993 2.55715 33.5396 3.07591C33.2333 3.42988 32.835 3.70452 32.4551 4.03408C32.2652 3.80827 32.112 3.63738 31.9588 3.45429C32.2039 3.25289 32.4429 3.08811 32.6512 2.88671C32.9269 2.61818 32.8963 2.42898 32.5593 2.24589C32.3448 2.12994 32.112 2.03229 31.9037 1.90412C31.5422 1.67831 31.3645 1.35485 31.4319 0.915432C31.4993 0.46991 31.775 0.231892 32.1733 0.0976251C32.2958 0.0549039 32.4245 0.0243887 32.5532 0.0182857C33.3191 -0.0488477 33.4048 0.0426978 33.3129 0.829989L33.3068 0.823886Z" fill="#333333"/>
</g>
<defs>
<clipPath id="clip0_277_3924">
<rect width="100" height="68" fill="white"/>
</clipPath>
</defs>
</svg>
