<svg width="128" height="51" viewBox="0 0 128 51" fill="none" xmlns="http://www.w3.org/2000/svg">
<g clip-path="url(#clip0_1182_4767)">
<path fill-rule="evenodd" clip-rule="evenodd" d="M16.995 18.1471L6.36039 0H0V31H6.27412V12.2269L17.2695 31H23.6299V0H17.3558V18.7731L16.995 18.1471Z" fill="#989898"/>
<path d="M33.8803 0H27.6062V31H33.8803V0Z" fill="#989898"/>
<path fill-rule="evenodd" clip-rule="evenodd" d="M54.8436 18.1471L44.2168 0H37.8564V31H44.1306V12.2269L55.126 31H61.4864V0H55.2122V18.7731L54.8436 18.1471Z" fill="#989898"/>
<path fill-rule="evenodd" clip-rule="evenodd" d="M71.9328 0H65.4626V31H89.0926V24.817H71.7368V18.5954H89.0926V12.4046H71.7368V6.183H89.0926V0H71.9328Z" fill="#989898"/>
<path fill-rule="evenodd" clip-rule="evenodd" d="M120.683 0.888806C119.287 0.316879 117.765 0 116.165 0C114.565 0 113.044 0.316879 111.648 0.888806C110.197 1.48392 108.895 2.34954 107.805 3.42383C106.715 4.49813 105.829 5.78883 105.233 7.21092C104.652 8.57891 104.331 10.086 104.331 11.6627V19.3373C104.331 20.914 104.652 22.4134 105.233 23.7891C105.837 25.2189 106.715 26.5019 107.805 27.5762C108.895 28.6505 110.205 29.5238 111.648 30.1112C113.044 30.6831 114.565 31 116.165 31C117.765 31 119.287 30.6831 120.683 30.1112C122.134 29.5161 123.436 28.6505 124.526 27.5762C125.616 26.5019 126.502 25.2112 127.098 23.7891C127.678 22.4134 128 20.914 128 19.3373V11.6627C128 10.086 127.678 8.58664 127.098 7.21092C126.494 5.7811 125.616 4.49813 124.526 3.42383C123.436 2.34954 122.126 1.47619 120.683 0.888806ZM121.53 12.4124H110.605V11.6704C110.605 10.9362 110.754 10.2251 111.028 9.58364C111.311 8.91124 111.726 8.3084 112.244 7.80603C112.762 7.29594 113.373 6.88631 114.048 6.60808C114.699 6.33757 115.42 6.19073 116.165 6.19073C116.91 6.19073 117.632 6.33757 118.283 6.60808C118.965 6.88631 119.577 7.29594 120.087 7.80603C120.604 8.31613 121.012 8.91897 121.302 9.58364C121.577 10.2251 121.726 10.9362 121.726 11.6704V12.4124H121.53ZM110.801 18.5954H121.726V19.3373C121.726 20.0716 121.577 20.7826 121.302 21.4241C121.02 22.0965 120.604 22.6993 120.087 23.2017C119.569 23.7041 118.957 24.1137 118.283 24.3997C117.632 24.6702 116.91 24.817 116.165 24.817C115.42 24.817 114.699 24.6702 114.048 24.3997C113.366 24.1214 112.754 23.7118 112.244 23.2017C111.726 22.6993 111.319 22.0888 111.028 21.4241C110.754 20.7826 110.605 20.0716 110.605 19.3373V18.5954H110.801Z" fill="#989898"/>
<path fill-rule="evenodd" clip-rule="evenodd" d="M98.4645 15.6044L96.7078 12.6133L93.21 18.5954H100.213L98.4645 15.6044Z" fill="#989898"/>
</g>
<path d="M19.52 50.168C18.568 50.168 17.672 49.902 17 49.244L17.868 47.732C18.232 48.082 18.708 48.404 19.352 48.404C20.234 48.404 20.808 47.802 20.808 46.906V40.662H22.81V46.934C22.81 49.132 21.424 50.168 19.52 50.168Z" fill="#989898"/>
<path d="M38.6318 50H36.3778L35.7897 48.418H31.7858L31.1978 50H28.9437L32.5417 40.662H35.0338L38.6318 50ZM35.2437 46.668L33.7878 42.65L32.3317 46.668H35.2437Z" fill="#989898"/>
<path d="M53.2281 50H50.7781L47.9501 46.248L47.2221 47.13V50H45.2341V40.662H47.2221V44.82L50.5261 40.662H52.9761L49.2661 45.044L53.2281 50Z" fill="#989898"/>
<path d="M68.5825 50H66.3285L65.7405 48.418H61.7365L61.1485 50H58.8945L62.4925 40.662H64.9845L68.5825 50ZM65.1945 46.668L63.7385 42.65L62.2825 46.668H65.1945Z" fill="#989898"/>
<path d="M82.7588 50H80.4628L78.6288 46.682H77.1728V50H75.1848V40.662H79.5528C81.4988 40.662 82.7028 41.936 82.7028 43.672C82.7028 45.31 81.6528 46.206 80.6448 46.444L82.7588 50ZM79.2728 44.932C80.0568 44.932 80.6588 44.456 80.6588 43.658C80.6588 42.888 80.0568 42.412 79.2728 42.412H77.1728V44.932H79.2728Z" fill="#989898"/>
<path d="M93.9421 50H91.9401V42.412H89.2101V40.662H96.6581V42.412H93.9421V50Z" fill="#989898"/>
<path d="M111.478 50H109.224L108.636 48.418H104.632L104.044 50H101.79L105.388 40.662H107.88L111.478 50ZM108.09 46.668L106.634 42.65L105.178 46.668H108.09Z" fill="#989898"/>
<defs>
<clipPath id="clip0_1182_4767">
<rect width="128" height="31" fill="white"/>
</clipPath>
</defs>
</svg>
